<svg width="28" height="16" viewBox="0 0 28 16" fill="none" xmlns="http://www.w3.org/2000/svg">
<path fill-rule="evenodd" clip-rule="evenodd" d="M0 0.34375H28V15.3438H26V13.9062H25.4689V15.3438H23V13.9062H22.4689V15.3438H20V13.9062H19.4689V15.3438H17V13.9062H16.4689V15.3438H14V13.9062H13.4689V15.3438H11V13.9062H10.4689V15.3438H7.99998V13.9062H7.46887V15.3438H4.99998V13.9062H4.46887V15.3438H2.53111L2.53111 13.9062H2L2 15.3438H0V0.34375ZM9.48866 7.19175L6.19866 5.27375V6.98175L8.20066 8.14375L6.19866 9.30575V11.0138L9.48866 9.09575V7.19175ZM12.536 7.52775H13.95C14.846 7.52775 15.56 6.81375 15.56 5.91775V4.16775C15.56 3.27175 14.846 2.54375 13.95 2.54375H11.36V4.25175H13.544V5.77775H12.116L10.52 7.30375V12.3438H15.378V10.6497H12.536V7.52775ZM21.6996 4.57375L20.0756 2.54375H18.6896H18.3676C17.4296 2.54375 16.6736 3.31375 16.6736 4.25175V10.7478C16.6736 11.6298 17.3876 12.3577 18.2696 12.3577H20.0756C20.9716 12.3577 21.6996 11.6298 21.6996 10.7338V4.57375ZM19.6836 4.25175V10.6497H18.6896V4.25175H19.6836Z" fill="#F9F9FB"/>
</svg>
