<svg width="28" height="16" viewBox="0 0 28 16" fill="none" xmlns="http://www.w3.org/2000/svg">
<path fill-rule="evenodd" clip-rule="evenodd" d="M0 0.34375H28V15.3438H26V13.9062H25.4689V15.3438H23V13.9062H22.4689V15.3438H20V13.9062H19.4689V15.3438H17V13.9062H16.4689V15.3438H14V13.9062H13.4689V15.3438H11V13.9062H10.4689V15.3438H7.99998V13.9062H7.46887V15.3438H4.99998V13.9062H4.46887V15.3438H2.53111L2.53111 13.9062H2L2 15.3438H0V0.34375ZM7.4789 7.30375L5.8829 5.77775H4.3429V4.25175H7.2969V2.54375H2.4809V5.91775C2.4809 6.75775 3.1109 7.42975 3.9229 7.51375V7.52775H5.4489V10.6497H2.4809V12.3438H5.8689C6.7649 12.3438 7.4789 11.6298 7.4789 10.7478V7.30375ZM8.46524 8.31175H13.3092V6.81375H8.46524V8.31175ZM16.2957 7.52775H17.7097C18.6057 7.52775 19.3197 6.81375 19.3197 5.91775V4.16775C19.3197 3.27175 18.6057 2.54375 17.7097 2.54375H15.1197V4.25175H17.3037V5.77775H15.8757L14.2797 7.30375V12.3438H19.1377V10.6497H16.2957V7.52775ZM25.4594 4.57375L23.8354 2.54375H22.4494H22.1274C21.1894 2.54375 20.4334 3.31375 20.4334 4.25175V10.7478C20.4334 11.6298 21.1474 12.3577 22.0294 12.3577H23.8354C24.7314 12.3577 25.4594 11.6298 25.4594 10.7338V4.57375ZM23.4434 4.25175V10.6497H22.4494V4.25175H23.4434Z" fill="#F9F9FB"/>
</svg>
