<svg width="36" height="32" viewBox="0 0 36 32" fill="none" xmlns="http://www.w3.org/2000/svg">
<g filter="url(#filter0_d_516_408)">
<g filter="url(#filter1_d_516_408)">
<path d="M24.4569 9.20379C21.3743 8.58388 18.4396 9.37611 15.9955 11.6097C15.1494 12.3833 14.4303 13.3503 13.8584 14.484L13.8586 14.4842C13.2146 15.7618 12.7887 17.1801 12.5488 18.6082C12.3136 20.0038 13.1291 21.3698 14.3943 21.6049C15.6884 21.8456 17.0023 21.8508 18.2572 21.6026L18.2572 21.603C19.9179 21.2748 21.4363 20.5113 22.7704 19.3335C24.6522 17.6721 25.3872 15.7081 25.3153 15.8678C25.6469 15.1314 25.9176 14.2545 25.9894 13.9024L25.9899 13.9026C26.1441 13.2775 26.2512 12.6285 26.3083 11.9735C26.4241 10.651 25.6268 9.4391 24.4571 9.20388L24.4569 9.20379ZM16.9834 21.4254C16.127 19.4454 14.9358 17.3668 13.5854 15.8788C13.7203 15.5195 13.8693 15.1704 14.0296 14.8377C15.2603 16.107 16.7676 18.3135 18.0106 21.3027C17.6726 21.3621 17.3282 21.4032 16.9833 21.4254L16.9834 21.4254ZM21.7449 10.8732C21.2678 11.0335 20.7976 11.226 20.344 11.4461C20.4941 11.6646 20.6109 11.8704 20.6911 12.0596C20.7394 12.1735 20.6651 12.3041 20.5552 12.3041C20.499 12.3041 20.4451 12.2684 20.4192 12.2072C20.3403 12.0211 20.2197 11.8137 20.0601 11.5894C19.8323 11.7077 19.6061 11.8345 19.3841 11.9686C19.548 12.2024 19.6744 12.4219 19.7596 12.6228C19.8079 12.7367 19.7337 12.8673 19.6237 12.8673C19.5675 12.8673 19.5136 12.8316 19.4877 12.7704C19.4068 12.5796 19.2818 12.3663 19.116 12.1354C18.9048 12.2705 18.6955 12.4135 18.4907 12.5628C18.672 12.815 18.8103 13.0512 18.9014 13.2662C18.9497 13.3801 18.8754 13.5107 18.7655 13.5107C18.7093 13.5107 18.6554 13.4749 18.6295 13.4138C18.5454 13.2154 18.4139 12.9932 18.2382 12.752C18.0092 12.9279 17.7839 13.1133 17.565 13.3059C17.7324 13.5431 17.8612 13.7661 17.9475 13.97C17.9957 14.0837 17.9218 14.2145 17.8117 14.2145C17.7555 14.2145 17.7015 14.1787 17.6756 14.1175C17.599 13.9365 17.4823 13.7354 17.3291 13.5184C16.7687 14.0356 16.2353 14.6147 15.7426 15.2433C15.6873 15.3139 15.5921 15.3203 15.5297 15.2578C15.4674 15.1952 15.4617 15.0874 15.517 15.0169C16.019 14.3762 16.5626 13.7858 17.1338 13.2581C16.9046 12.9699 16.7015 12.7664 16.6992 12.7641C16.6367 12.7018 16.6307 12.594 16.6857 12.5232C16.7407 12.4525 16.836 12.4457 16.8985 12.508C16.9087 12.5181 17.1246 12.7344 17.3699 13.045C17.5873 12.8534 17.8109 12.6686 18.0382 12.493C17.83 12.2378 17.655 12.0623 17.653 12.0603C17.5906 11.998 17.5845 11.8902 17.6396 11.8194C17.6947 11.7487 17.7899 11.7419 17.8524 11.8042C17.8617 11.8135 18.0598 12.012 18.2922 12.3015C18.496 12.1519 18.7043 12.008 18.9148 11.8719C18.6982 11.6039 18.5134 11.4188 18.5112 11.4166C18.4487 11.3543 18.4427 11.2465 18.4978 11.1757C18.5528 11.105 18.6481 11.0982 18.7106 11.1605C18.7207 11.1706 18.9386 11.3889 19.1855 11.7019C19.4053 11.5675 19.6294 11.4397 19.8554 11.3202C19.6352 11.0468 19.4449 10.8556 19.4426 10.8534C19.3803 10.791 19.3743 10.6832 19.4294 10.6125C19.4845 10.5418 19.5797 10.5351 19.6422 10.5974C19.6529 10.608 19.8861 10.8421 20.1437 11.1727C20.633 10.9306 21.1421 10.7197 21.659 10.546C21.7387 10.5191 21.8227 10.5707 21.8464 10.661C21.8701 10.7514 21.8246 10.8464 21.7448 10.8732L21.7449 10.8732ZM25.1954 15.3653C24.4386 13.2406 23.2427 10.8182 21.6719 9.37558C22.1375 9.33564 22.6121 9.33158 23.0878 9.36319C24.1599 10.6359 25.0288 12.2828 25.6824 13.8782C25.5524 14.3915 25.3891 14.8899 25.1953 15.3653L25.1954 15.3653Z" fill="#F9F9FB"/>
</g>
<path d="M15.1984 10.0297L13.6899 11.068C13.665 11.0851 13.6402 11.0481 13.6626 11.0272L15.0197 9.76339L15.4286 9.45534C15.4297 9.4545 15.4309 9.45376 15.4321 9.45313L15.9535 9.18741C15.9769 9.17547 15.9978 9.20655 15.9803 9.22743L15.5925 9.69211C15.5916 9.69321 15.5906 9.69422 15.5895 9.69514L15.1984 10.0297Z" fill="white"/>
<path d="M11.3261 15.8407L8.72367 18.2643C8.70124 18.2851 8.72608 18.3222 8.75101 18.305L11.6437 16.314L12.34 15.7183C12.341 15.7174 12.342 15.7164 12.3429 15.7153L13.0939 14.8155C13.1114 14.7946 13.0905 14.7636 13.0671 14.7755L12.0576 15.29C12.0564 15.2906 12.0552 15.2914 12.0541 15.2922L11.3261 15.8407Z" fill="white"/>
<path d="M17.7788 21.6957L16.7372 22.6658C16.7147 22.6867 16.7396 22.7237 16.7645 22.7065L17.9223 21.9096L18.2361 21.6412C18.2372 21.6403 18.2382 21.6392 18.2391 21.6381L18.5349 21.2837C18.5524 21.2628 18.5315 21.2317 18.5081 21.2437L18.1104 21.4464C18.1092 21.447 18.108 21.4477 18.1069 21.4486L17.7788 21.6957Z" fill="white"/>
<path d="M25.3497 19.1258L22.7472 21.5494C22.7248 21.5703 22.7496 21.6073 22.7746 21.5901L25.6673 19.5992L26.3635 19.0035C26.3646 19.0026 26.3656 19.0015 26.3665 19.0004L27.1175 18.1007C27.1349 18.0798 27.1141 18.0487 27.0906 18.0607L26.0812 18.5752C26.0799 18.5758 26.0787 18.5765 26.0776 18.5774L25.3497 19.1258Z" fill="white"/>
</g>
<defs>
<filter id="filter0_d_516_408" x="0.0766716" y="0.361767" width="35.6855" height="30.9874" filterUnits="userSpaceOnUse" color-interpolation-filters="sRGB">
<feFlood flood-opacity="0" result="BackgroundImageFix"/>
<feColorMatrix in="SourceAlpha" type="matrix" values="0 0 0 0 0 0 0 0 0 0 0 0 0 0 0 0 0 0 127 0" result="hardAlpha"/>
<feOffset/>
<feGaussianBlur stdDeviation="4.31912"/>
<feComposite in2="hardAlpha" operator="out"/>
<feColorMatrix type="matrix" values="0 0 0 0 1 0 0 0 0 1 0 0 0 0 1 0 0 0 0.5 0"/>
<feBlend mode="normal" in2="BackgroundImageFix" result="effect1_dropShadow_516_408"/>
<feBlend mode="normal" in="SourceGraphic" in2="effect1_dropShadow_516_408" result="shape"/>
</filter>
<filter id="filter1_d_516_408" x="3.87019" y="0.361767" width="31.0875" height="30.0636" filterUnits="userSpaceOnUse" color-interpolation-filters="sRGB">
<feFlood flood-opacity="0" result="BackgroundImageFix"/>
<feColorMatrix in="SourceAlpha" type="matrix" values="0 0 0 0 0 0 0 0 0 0 0 0 0 0 0 0 0 0 127 0" result="hardAlpha"/>
<feOffset/>
<feGaussianBlur stdDeviation="4.31912"/>
<feComposite in2="hardAlpha" operator="out"/>
<feColorMatrix type="matrix" values="0 0 0 0 1 0 0 0 0 1 0 0 0 0 1 0 0 0 0.5 0"/>
<feBlend mode="normal" in2="BackgroundImageFix" result="effect1_dropShadow_516_408"/>
<feBlend mode="normal" in="SourceGraphic" in2="effect1_dropShadow_516_408" result="shape"/>
</filter>
</defs>
</svg>
