<?xml version="1.0" encoding="UTF-8"?>
<svg width="1200pt" height="1200pt" version="1.1" viewBox="0 0 1200 1200" xmlns="http://www.w3.org/2000/svg">
 <path d="m1001.4 164.75c-245.34-43.59-478.91 12.117-673.43 169.18-67.34 54.391-124.57 122.39-170.09 202.11l0.019532 0.011719c-51.258 89.836-85.152 189.57-104.25 289.99-18.715 98.137 46.188 194.19 146.88 210.72 103 16.926 207.57 17.289 307.44-0.16016l0.003906 0.023438c132.17-23.078 253.02-76.766 359.2-159.58 149.77-116.83 208.26-254.93 202.54-243.7 26.391-51.785 47.934-113.44 53.648-138.2l0.042969 0.011718c12.273-43.953 20.797-89.594 25.344-135.65 9.2148-92.992-54.242-178.21-147.34-194.75zm-594.81 859.39c-68.156-139.23-162.96-285.39-270.44-390.02 10.742-25.27 22.594-49.812 35.359-73.211 97.949 89.254 217.91 244.41 316.84 454.6-26.906 4.1758-54.316 7.0664-81.766 8.6289zm378.96-742c-37.965 11.273-75.395 24.809-111.49 40.281 11.945 15.363 21.238 29.84 27.621 43.141 3.8438 8.0117-2.0664 17.191-10.812 17.191-4.4727 0-8.7656-2.5117-10.828-6.8125-6.2773-13.086-15.879-27.672-28.578-43.441-18.129 8.3164-36.137 17.234-53.801 26.664 13.047 16.438 23.105 31.875 29.883 46 3.8438 8.0117-2.0625 17.195-10.812 17.195-4.4727 0-8.7617-2.5117-10.828-6.8125-6.4414-13.422-16.383-28.418-29.578-44.656-16.816 9.5-33.473 19.555-49.77 30.055 14.43 17.738 25.434 34.344 32.684 49.461 3.8438 8.0117-2.0664 17.191-10.812 17.191-4.4727 0-8.7656-2.5117-10.828-6.8125-6.6914-13.949-17.16-29.574-31.141-46.531-18.223 12.367-36.16 25.402-53.582 38.945 13.328 16.68 23.578 32.363 30.449 46.699 3.832 7.9961-2.0508 17.188-10.812 17.188-4.4727 0-8.7656-2.5117-10.828-6.8164-6.0977-12.727-15.387-26.871-27.578-42.125-44.602 36.363-87.055 77.086-126.27 121.29-4.3984 4.9609-11.98 5.4141-16.941 1.0156-4.957-4.3984-5.4141-11.984-1.0156-16.941 39.953-45.051 83.219-86.566 128.68-123.67-18.242-20.27-34.406-34.574-34.59-34.738-4.9688-4.3789-5.4492-11.961-1.0703-16.938 4.3789-4.9727 11.961-5.4531 16.934-1.0703 0.80859 0.71094 17.996 15.922 37.52 37.758 17.297-13.473 35.094-26.465 53.184-38.812-16.566-17.945-30.492-30.285-30.656-30.426-4.9688-4.3828-5.4492-11.965-1.0664-16.938 4.3828-4.9727 11.961-5.4492 16.934-1.0703 0.74219 0.65234 16.508 14.609 35.004 34.969 16.223-10.523 32.797-20.637 49.551-30.211-17.238-18.84-31.945-31.859-32.117-32.012-4.9727-4.3828-5.4531-11.965-1.0703-16.938 4.3789-4.9727 11.965-5.4492 16.938-1.0703 0.80469 0.70703 18.145 16.062 37.797 38.066 17.492-9.4492 35.328-18.438 53.32-26.84-17.527-19.223-32.676-32.668-32.855-32.824-4.9648-4.3867-5.4414-11.969-1.0547-16.938 4.3828-4.9688 11.961-5.4453 16.934-1.0625 0.85156 0.75 19.414 17.207 39.914 40.453 38.949-17.02 79.465-31.852 120.6-44.066 6.3477-1.8906 13.031 1.7344 14.918 8.0859 1.8867 6.3555-1.7344 13.035-8.0859 14.922zm274.62 315.87c-60.234-149.4-155.41-319.74-280.43-421.18 37.062-2.8086 74.832-3.0938 112.69-0.87109 85.328 89.492 154.48 205.3 206.5 317.48-10.344 36.094-23.344 71.141-38.766 104.57z" fill="#fff"/>
</svg>
