<svg width="33" height="32" viewBox="0 0 33 32" fill="none" xmlns="http://www.w3.org/2000/svg">
<g filter="url(#filter0_d_516_406)">
<path d="M13.0675 20.3383C12.9862 20.3383 12.9251 20.3418 12.8845 20.3487L12.1727 20.38C12.1524 20.38 11.9185 20.3904 11.4711 20.4113C11.3965 20.4113 11.2846 20.4183 11.1355 20.4322L9.02034 20.5679L9 20.5887L9.02034 20.6305C9.10171 20.6305 9.21354 20.6375 9.35592 20.6514L11.1355 20.7558C11.2846 20.7697 11.3965 20.7767 11.4711 20.7767C11.9185 20.7975 12.1524 20.8079 12.1727 20.8079C12.4981 20.8219 12.7353 20.8358 12.8845 20.8497L13.6065 20.8915C13.6946 20.8915 13.8133 20.8985 13.9624 20.9123L14.9589 20.9019L15.0403 20.8915H15.1114L16.7487 20.6305L16.7792 20.5992C16.7792 20.5784 16.7691 20.5679 16.7487 20.5679L16.6673 20.5366L15.1115 20.2965H15.0403L14.9589 20.286L13.9624 20.2756C13.8133 20.2895 13.6946 20.2965 13.6065 20.2965L13.0675 20.3383ZM11.0541 22.6555L11.0338 22.6764L11.0541 22.7182C11.1355 22.7182 11.2473 22.7252 11.3897 22.739L13.1693 22.8434C13.3184 22.8573 13.4302 22.8643 13.5048 22.8643C13.9523 22.8852 14.1861 22.8956 14.2065 22.8956C14.5319 22.9096 14.7691 22.9235 14.9183 22.9374L15.6402 22.9791C15.7284 22.9791 15.8471 22.9861 15.9962 23L16.9927 22.9896L17.0741 22.9791H17.1452L18.7824 22.7182L18.813 22.6869C18.813 22.666 18.8027 22.6555 18.7824 22.6555L18.7011 22.6243L17.1453 22.3842H17.0741L16.9927 22.3737L15.9962 22.3633C15.8471 22.3772 15.7284 22.3842 15.6403 22.3842L15.1014 22.4259C15.02 22.4259 14.959 22.4294 14.9183 22.4363L14.2065 22.4677C14.1862 22.4677 13.9523 22.4781 13.5049 22.499C13.4302 22.499 13.3184 22.506 13.1693 22.5199L11.0541 22.6555ZM19.9315 12.4677C19.9248 12.4656 19.9179 12.4622 19.9111 12.4573C18.038 11.8692 16.8516 10.881 16.3519 9.49296C16.3449 9.4783 16.3348 9.46441 16.3214 9.4512C16.0373 8.96609 15.5322 8.87218 14.8062 9.16936C13.3806 9.74691 12.3435 10.916 11.6946 12.6767C11.6961 12.6822 11.6961 12.6857 11.6946 12.6871C11.4238 13.6686 11.5696 14.2983 12.1319 14.5764C12.132 14.5833 12.132 14.5903 12.1319 14.5973C12.1328 14.8358 12.2141 15.0376 12.3759 15.2027C12.5446 15.3769 12.7446 15.4639 12.9759 15.4637C13.2027 15.4647 13.3959 15.3812 13.5555 15.2131C13.6003 15.242 13.6444 15.2699 13.6877 15.2967C13.6818 15.3152 13.675 15.3326 13.6674 15.3489V15.3593C13.6614 15.4158 13.658 15.475 13.6573 15.5367C13.6581 15.7753 13.7395 15.9771 13.9012 16.1422C14.0699 16.3163 14.27 16.4033 14.5013 16.4031C14.6462 16.4034 14.7785 16.3687 14.8978 16.2987C15.0801 16.5107 15.236 16.7368 15.3655 16.9773C15.3723 16.9808 15.3757 16.9842 15.3757 16.9877C16.5797 18.8167 17.8441 20.1634 19.1687 21.0273C19.162 21.0743 19.1586 21.123 19.1585 21.1735C19.1594 21.412 19.2408 21.6138 19.4026 21.7789C19.5713 21.9531 19.7712 22.0401 20.0025 22.0399C20.2369 22.0409 20.4335 21.9538 20.5923 21.7789L20.5821 21.7893C20.6025 21.7719 20.6195 21.7545 20.633 21.7372C20.7869 21.7813 20.9326 21.823 21.0702 21.8625C21.0746 22.0975 21.1559 22.2958 21.3143 22.4574C21.483 22.6316 21.683 22.7186 21.9143 22.7184C22.1486 22.7193 22.3452 22.6324 22.5041 22.4574C22.5646 22.3962 22.6155 22.3301 22.6566 22.2591C23.2087 22.3567 23.5782 22.3463 23.765 22.2278C23.9326 22.1326 24.0106 21.9865 23.9988 21.7893C23.9966 21.6601 23.9287 21.4965 23.7955 21.2988C22.9618 20.0185 22.2839 18.599 21.7618 17.0399C21.6213 16.6309 21.4924 16.2099 21.3754 15.7768C21.2772 15.3906 21.1857 15.001 21.1008 14.6078V14.5973C21.1022 14.5922 21.1022 14.5852 21.1008 14.5765V14.5347L21.0906 14.4617V14.3781H21.0805L21.0702 14.3886V14.399H21.0601C20.9914 14.068 20.9271 13.7304 20.8669 13.3865C20.7778 12.894 20.4659 12.5877 19.9314 12.4679M20.0432 13.8771H20.0737L20.1042 13.8876H20.1144L20.1551 13.9085L20.2161 13.9501L20.9177 14.6182L20.9279 14.6391C20.9279 14.66 20.9143 14.6705 20.8873 14.6705L20.5415 14.6287L20.511 14.6182H20.4805L20.0432 14.5243H20.0127L19.9415 14.5138L19.85 14.4825L19.8297 14.4617L19.7991 14.4408L19.7382 14.3781L19.7076 14.326L19.6975 14.3155L19.6365 14.1694H19.6263V14.1486L19.6162 14.1172L19.5958 14.0233C19.5958 14.0024 19.6059 13.985 19.6263 13.971L19.7076 13.9294L19.7382 13.9189L19.7483 13.9085H19.7585L19.8602 13.8876L19.8907 13.8771H19.9212L19.9822 13.8667L20.0432 13.8771ZM17.1961 15.9335L17.8468 17.0295L18.579 18.0524L18.6197 18.0942L18.8129 18.3343C18.8671 18.4038 18.9112 18.4526 18.9451 18.4804L19.0061 18.5639L20.6942 20.2445V20.2654C20.6942 20.2862 20.6839 20.2897 20.6636 20.2758L19.8196 19.9L19.7585 19.8583L19.6874 19.8269L19.4128 19.66C19.3451 19.6182 19.2976 19.5834 19.2704 19.5556L18.9553 19.3468L17.8875 18.3761L17.857 18.3343C17.8367 18.3204 17.7858 18.2612 17.7045 18.1569L17.6231 18.0733L17.1248 17.4053L16.5148 16.3614L16.5045 16.3302L16.4842 16.3093L16.3622 16.0692L15.7215 15.1193L15.6911 15.088L15.5386 14.9001L15.4673 14.8375L15.4369 14.7957L15.0199 14.4096L14.6335 14.1486L14.6029 14.1381L14.5725 14.1172L14.0132 13.8668L13.6064 13.7519L13.5963 13.7415C13.5963 13.7276 13.6031 13.7206 13.6166 13.7206L13.8606 13.6788H14.2776L14.5521 13.7206L14.7046 13.7624H14.7453L14.786 13.7833L14.9487 13.825L15.3656 14.0128L15.5386 14.1172C15.6605 14.1869 15.7758 14.2669 15.8843 14.3573L16.047 14.493L16.0876 14.5348L16.1283 14.5661L16.4537 14.8897L16.9622 15.5473L17.1554 15.85L17.1961 15.9336M20.0127 14.9836H20.1144L20.1856 14.994H20.2161L20.2465 15.0045H20.2669L20.2872 15.0149L20.3788 15.0776L20.4296 15.1298L20.4602 15.1507L20.877 15.4951L20.8974 15.5264L21.1923 15.7978L21.2025 15.8292L21.1618 15.85L20.7753 15.7874L20.7449 15.7769H20.7042L20.3381 15.683L20.2568 15.6726L20.1856 15.6517L20.1043 15.6412L20.033 15.6204L20.0026 15.5995L19.9924 15.5891L19.9721 15.5786L19.9518 15.5577L19.9212 15.5368L19.8398 15.4325L19.8297 15.422L19.8195 15.4012L19.7991 15.3803L19.7483 15.2759V15.2655H19.7382V15.2446L19.728 15.2237L19.6975 15.1193C19.6975 15.0984 19.7077 15.0811 19.728 15.0672L19.8195 15.0254L19.85 15.0149H19.8602L19.8704 15.0045H19.9212L19.9822 14.994L20.0127 14.9836ZM20.4195 16.1631H20.4907L20.5618 16.1736L20.633 16.1945L20.6432 16.2049L20.6635 16.2154L20.6941 16.2362C20.7279 16.2571 20.7483 16.271 20.755 16.2779L21.233 16.7268L21.2634 16.7477L21.2838 16.779L21.5787 17.0817L21.5889 17.1131C21.5686 17.134 21.5549 17.1409 21.5482 17.134L20.4602 16.8312L20.3889 16.7999L20.3585 16.779L20.3381 16.7686L20.3279 16.7581L20.2975 16.7372L20.2669 16.706L20.1856 16.5912L20.1653 16.5703L20.1449 16.5389L20.1246 16.4763L20.094 16.4241V16.4137L20.0839 16.4032V16.372L20.0534 16.2676C20.0466 16.2467 20.0568 16.2293 20.0839 16.2154L20.1856 16.184L20.206 16.1736H20.2364L20.2975 16.1632H20.3585L20.3889 16.1528H20.4093L20.4195 16.1631ZM14.1352 10.5997L14.2065 10.5371C14.3082 10.4397 14.4031 10.37 14.4912 10.3283L14.5725 10.297L14.6132 10.2761L14.725 10.2447L14.7454 10.2344H14.7657L14.8064 10.2239H14.8471L14.8878 10.2135H15.1725L15.203 10.2239H15.2335L15.2945 10.2447L15.447 10.2761L15.4572 10.2865H15.4776L15.5386 10.3179L15.5995 10.3596L15.6504 10.3805L15.6911 10.4118L15.7115 10.4222C15.725 10.4501 15.7216 10.4709 15.7012 10.4848L15.6606 10.5162L15.5386 10.6415L15.5183 10.6519V10.6623H15.508V10.6727L15.3453 10.7875L15.2945 10.8398H15.2844L15.1114 10.9546L15.0911 10.9755L15.0708 10.9859L15.0403 11.0067L15.0199 11.0276L14.9691 11.059L14.8572 11.1111L14.7963 11.132L14.7861 11.1425H14.7657L14.7047 11.1633C14.7047 11.1703 14.6946 11.1738 14.6742 11.1738L14.6132 11.1947L14.5522 11.2259L14.4912 11.2468L14.4301 11.2782L14.3691 11.3199L14.3387 11.3303L13.9319 11.6644L13.8403 11.7687L13.7895 11.8105L13.2913 12.4995L13.2506 12.5203C13.2235 12.5065 13.2133 12.489 13.2201 12.4681V12.4264L13.2811 12.0923L13.3014 12.0402L13.3117 11.9775L13.4133 11.6539L13.6268 11.2259L13.8912 10.8711L13.9523 10.8084L13.9827 10.7667L14.1352 10.5997Z" fill="#F9F9FB"/>
</g>
<defs>
<filter id="filter0_d_516_406" x="0.361767" y="0.361767" width="32.2765" height="31.2765" filterUnits="userSpaceOnUse" color-interpolation-filters="sRGB">
<feFlood flood-opacity="0" result="BackgroundImageFix"/>
<feColorMatrix in="SourceAlpha" type="matrix" values="0 0 0 0 0 0 0 0 0 0 0 0 0 0 0 0 0 0 127 0" result="hardAlpha"/>
<feOffset/>
<feGaussianBlur stdDeviation="4.31912"/>
<feComposite in2="hardAlpha" operator="out"/>
<feColorMatrix type="matrix" values="0 0 0 0 1 0 0 0 0 1 0 0 0 0 1 0 0 0 0.5 0"/>
<feBlend mode="normal" in2="BackgroundImageFix" result="effect1_dropShadow_516_406"/>
<feBlend mode="normal" in="SourceGraphic" in2="effect1_dropShadow_516_406" result="shape"/>
</filter>
</defs>
</svg>
