<svg width="28" height="16" viewBox="0 0 28 16" fill="none" xmlns="http://www.w3.org/2000/svg">
<path fill-rule="evenodd" clip-rule="evenodd" d="M0 0.34375H28V15.3438H26V13.9062H25.4689V15.3438H23V13.9062H22.4689V15.3438H20V13.9062H19.4689V15.3438H17V13.9062H16.4689V15.3438H14V13.9062H13.4689V15.3438H11V13.9062H10.4689V15.3438H7.99998V13.9062H7.46887V15.3438H4.99998V13.9062H4.46887V15.3438H2.53111L2.53111 13.9062H2L2 15.3438H0V0.34375ZM12.5362 6.98175V5.27375L9.24618 7.19175V9.09575L12.5362 11.0138V9.30575L10.5342 8.14375L12.5362 6.98175ZM18.6215 7.30375L17.0255 5.77775H15.4855V4.25175H18.4395V2.54375H13.6235V5.91775C13.6235 6.75775 14.2535 7.42975 15.0655 7.51375V7.52775H16.5915V10.6497H13.6235V12.3438H17.0115C17.9075 12.3438 18.6215 11.6298 18.6215 10.7478V7.30375Z" fill="#F9F9FB"/>
</svg>
