<?xml version="1.0" encoding="UTF-8"?>
<svg width="1200pt" height="1200pt" version="1.1" viewBox="0 0 1200 1200" xmlns="http://www.w3.org/2000/svg">
 <path d="m1027.8 79.125c-182.39 56.391-399.71 343.31-608.02 637.97-88.406-148.97-182.06-198.71-278.9-147.74-11.953 6.2812-19.828 18.328-20.812 31.875-0.98438 13.688 5.1562 26.906 16.266 35.016 70.219 51.281 143.06 142.18 229.69 286.08v-0.046874c15.469 26.109 43.594 42.047 73.875 41.859h1.4062c31.219-0.28125 59.812-17.344 74.953-44.625 84.281-152.81 176.86-300.84 277.31-443.48 82.312-117 174.1-227.11 274.4-329.16 13.5-13.219 15.984-34.031 6-50.062-9.3281-15.984-28.547-23.344-46.172-17.672z" fill="#fff"/>
</svg>
