<svg width="26" height="31" viewBox="0 0 26 31" fill="none" xmlns="http://www.w3.org/2000/svg">
<path fill-rule="evenodd" clip-rule="evenodd" d="M1.65433 0C0.899772 0 0.288086 0.611688 0.288086 1.36624V29.3741C0.288086 30.1287 0.899771 30.7404 1.65432 30.7404H24.1973C24.9518 30.7404 25.5635 30.1287 25.5635 29.3741V1.36624C25.5635 0.611686 24.9518 0 24.1973 0H1.65433ZM2.99089 3.38614H22.8608V27.3547H2.99089V3.38614ZM1.65436 2.04961H2.99089H22.8608H24.1973V3.38614V27.3547V28.6913H22.8608H2.99089H1.65436V27.3547V3.38614V2.04961Z" fill="#1F1F1F"/>
<mask id="path-2-outside-1_201_52" maskUnits="userSpaceOnUse" x="5.9707" y="6.35596" width="11" height="20" fill="black">
<rect fill="white" x="5.9707" y="6.35596" width="11" height="20"/>
<path d="M7.06073 18.6198V16.4546L12.1369 7.76978H15.9621V24.6102H12.4737V21.2421H9.8033L7.06073 18.6198ZM9.94765 17.9702V18.1868H12.4737V13.6399L9.94765 17.9702ZM12.2091 17.9221H10.2845L12.2091 14.6503V17.9221ZM11.6557 17.3929V16.6711L11.2468 17.3929H11.6557ZM11.6557 6.95182H16.78V25.4281H11.6557V22.0601H9.4665L6.24277 18.9807V16.2381L11.6557 6.95182ZM12.2091 24.8989H16.2267V7.50515H11.9685L6.79609 16.3824V18.7401L9.68302 21.5067H12.2091V24.8989Z"/>
</mask>
<path d="M7.06073 18.6198V16.4546L12.1369 7.76978H15.9621V24.6102H12.4737V21.2421H9.8033L7.06073 18.6198ZM9.94765 17.9702V18.1868H12.4737V13.6399L9.94765 17.9702ZM12.2091 17.9221H10.2845L12.2091 14.6503V17.9221ZM11.6557 17.3929V16.6711L11.2468 17.3929H11.6557ZM11.6557 6.95182H16.78V25.4281H11.6557V22.0601H9.4665L6.24277 18.9807V16.2381L11.6557 6.95182ZM12.2091 24.8989H16.2267V7.50515H11.9685L6.79609 16.3824V18.7401L9.68302 21.5067H12.2091V24.8989Z" fill="#FE3018"/>
<path d="M7.06073 18.6198H6.93073V18.6754L6.97089 18.7138L7.06073 18.6198ZM7.06073 16.4546L6.94849 16.389L6.93073 16.4194V16.4546H7.06073ZM12.1369 7.76978V7.63978H12.0623L12.0247 7.70418L12.1369 7.76978ZM15.9621 7.76978H16.0921V7.63978H15.9621V7.76978ZM15.9621 24.6102V24.7402H16.0921V24.6102H15.9621ZM12.4737 24.6102H12.3437V24.7402H12.4737V24.6102ZM12.4737 21.2421H12.6037V21.1121H12.4737V21.2421ZM9.8033 21.2421L9.71346 21.3361L9.75116 21.3721H9.8033V21.2421ZM9.94765 17.9702L9.83536 17.9047L9.81765 17.9351V17.9702H9.94765ZM9.94765 18.1868H9.81765V18.3168H9.94765V18.1868ZM12.4737 18.1868V18.3168H12.6037V18.1868H12.4737ZM12.4737 13.6399H12.6037V13.159L12.3614 13.5744L12.4737 13.6399ZM12.2091 17.9221V18.0521H12.3391V17.9221H12.2091ZM10.2845 17.9221L10.1724 17.8562L10.0572 18.0521H10.2845V17.9221ZM12.2091 14.6503H12.3391V14.1729L12.097 14.5844L12.2091 14.6503ZM11.6557 17.3929V17.5229H11.7857V17.3929H11.6557ZM11.6557 16.6711H11.7857V16.178L11.5426 16.607L11.6557 16.6711ZM11.2468 17.3929L11.1337 17.3288L11.0237 17.5229H11.2468V17.3929ZM11.6557 6.95182V6.82182H11.5811L11.5434 6.88635L11.6557 6.95182ZM16.78 6.95182H16.91V6.82182H16.78V6.95182ZM16.78 25.4281V25.5581H16.91V25.4281H16.78ZM11.6557 25.4281H11.5257V25.5581H11.6557V25.4281ZM11.6557 22.0601H11.7857V21.9301H11.6557V22.0601ZM9.4665 22.0601L9.3767 22.1541L9.41438 22.1901H9.4665V22.0601ZM6.24277 18.9807H6.11277V19.0363L6.15297 19.0747L6.24277 18.9807ZM6.24277 16.2381L6.13045 16.1726L6.11277 16.203V16.2381H6.24277ZM12.2091 24.8989H12.0791V25.0289H12.2091V24.8989ZM16.2267 24.8989V25.0289H16.3567V24.8989H16.2267ZM16.2267 7.50515H16.3567V7.37515H16.2267V7.50515ZM11.9685 7.50515V7.37515H11.8938L11.8562 7.4397L11.9685 7.50515ZM6.79609 16.3824L6.68377 16.317L6.66609 16.3473V16.3824H6.79609ZM6.79609 18.7401H6.66609V18.7956L6.70615 18.834L6.79609 18.7401ZM9.68302 21.5067L9.59307 21.6006L9.63078 21.6367H9.68302V21.5067ZM12.2091 21.5067H12.3391V21.3767H12.2091V21.5067ZM7.19073 18.6198V16.4546H6.93073V18.6198H7.19073ZM7.17296 16.5202L12.2491 7.83538L12.0247 7.70418L6.94849 16.389L7.17296 16.5202ZM12.1369 7.89978H15.9621V7.63978H12.1369V7.89978ZM15.8321 7.76978V24.6102H16.0921V7.76978H15.8321ZM15.9621 24.4802H12.4737V24.7402H15.9621V24.4802ZM12.6037 24.6102V21.2421H12.3437V24.6102H12.6037ZM12.4737 21.1121H9.8033V21.3721H12.4737V21.1121ZM9.89314 21.1481L7.15057 18.5258L6.97089 18.7138L9.71346 21.3361L9.89314 21.1481ZM9.81765 17.9702V18.1868H10.0777V17.9702H9.81765ZM9.94765 18.3168H12.4737V18.0568H9.94765V18.3168ZM12.6037 18.1868V13.6399H12.3437V18.1868H12.6037ZM12.3614 13.5744L9.83536 17.9047L10.0599 18.0357L12.586 13.7054L12.3614 13.5744ZM12.2091 17.7921H10.2845V18.0521H12.2091V17.7921ZM10.3965 17.988L12.3211 14.7162L12.097 14.5844L10.1724 17.8562L10.3965 17.988ZM12.0791 14.6503V17.9221H12.3391V14.6503H12.0791ZM11.7857 17.3929V16.6711H11.5257V17.3929H11.7857ZM11.5426 16.607L11.1337 17.3288L11.3599 17.457L11.7688 16.7352L11.5426 16.607ZM11.2468 17.5229H11.6557V17.2629H11.2468V17.5229ZM11.6557 7.08182H16.78V6.82182H11.6557V7.08182ZM16.65 6.95182V25.4281H16.91V6.95182H16.65ZM16.78 25.2981H11.6557V25.5581H16.78V25.2981ZM11.7857 25.4281V22.0601H11.5257V25.4281H11.7857ZM11.6557 21.9301H9.4665V22.1901H11.6557V21.9301ZM9.55629 21.966L6.33256 18.8867L6.15297 19.0747L9.3767 22.1541L9.55629 21.966ZM6.37277 18.9807V16.2381H6.11277V18.9807H6.37277ZM6.35508 16.3036L11.7681 7.01729L11.5434 6.88635L6.13045 16.1726L6.35508 16.3036ZM12.2091 25.0289H16.2267V24.7689H12.2091V25.0289ZM16.3567 24.8989V7.50515H16.0967V24.8989H16.3567ZM16.2267 7.37515H11.9685V7.63515H16.2267V7.37515ZM11.8562 7.4397L6.68377 16.317L6.90842 16.4479L12.0808 7.5706L11.8562 7.4397ZM6.66609 16.3824V18.7401H6.92609V16.3824H6.66609ZM6.70615 18.834L9.59307 21.6006L9.77296 21.4129L6.88604 18.6462L6.70615 18.834ZM9.68302 21.6367H12.2091V21.3767H9.68302V21.6367ZM12.0791 21.5067V24.8989H12.3391V21.5067H12.0791Z" fill="#F9F9FB" mask="url(#path-2-outside-1_201_52)"/>
</svg>
