<svg width="26" height="31" viewBox="0 0 26 31" fill="none" xmlns="http://www.w3.org/2000/svg">
<path fill-rule="evenodd" clip-rule="evenodd" d="M1.36624 0C0.611686 0 0 0.611688 0 1.36624V29.3741C0 30.1287 0.611685 30.7404 1.36624 30.7404H23.9092C24.6637 30.7404 25.2754 30.1287 25.2754 29.3741V1.36624C25.2754 0.611686 24.6637 0 23.9092 0H1.36624ZM2.70268 3.38614H22.5725V27.3547H2.70268V3.38614ZM1.36614 2.04961H2.70268H22.5725H23.9091V3.38614V27.3547V28.6913H22.5725H2.70268H1.36614V27.3547V3.38614V2.04961Z" fill="#1F1F1F"/>
<mask id="path-2-outside-1_201_34" maskUnits="userSpaceOnUse" x="8.51465" y="5.88086" width="8" height="20" fill="black">
<rect fill="white" x="8.51465" y="5.88086" width="8" height="20"/>
<path d="M11.1313 7.29469H11.6846L14.6197 10.2297V24.1351H11.1313V10.2297H9.78406V7.29469H11.1313ZM12.0214 6.47672L15.4136 9.89292V24.953H10.3133V11.0477H8.96609V6.47672H12.0214ZM10.8426 24.3997H14.8843V10.1094L11.8049 7.03005H9.51942V10.4944H10.8426V24.3997Z"/>
</mask>
<path d="M11.1313 7.29469H11.6846L14.6197 10.2297V24.1351H11.1313V10.2297H9.78406V7.29469H11.1313ZM12.0214 6.47672L15.4136 9.89292V24.953H10.3133V11.0477H8.96609V6.47672H12.0214ZM10.8426 24.3997H14.8843V10.1094L11.8049 7.03005H9.51942V10.4944H10.8426V24.3997Z" fill="#FE3018"/>
<path d="M11.6846 7.29469L11.7791 7.20018L11.74 7.16103H11.6846V7.29469ZM14.6197 10.2297H14.7533V10.1744L14.7142 10.1352L14.6197 10.2297ZM14.6197 24.1351V24.2687H14.7533V24.1351H14.6197ZM11.1313 24.1351H10.9976V24.2687H11.1313V24.1351ZM11.1313 10.2297H11.2649V10.0961H11.1313V10.2297ZM9.78406 10.2297H9.6504V10.3634H9.78406V10.2297ZM9.78406 7.29469V7.16103H9.6504V7.29469H9.78406ZM12.0214 6.47672L12.1163 6.38255L12.0771 6.34307H12.0214V6.47672ZM15.4136 9.89292H15.5472V9.83783L15.5084 9.79874L15.4136 9.89292ZM15.4136 24.953V25.0867H15.5472V24.953H15.4136ZM10.3133 24.953H10.1797V25.0867H10.3133V24.953ZM10.3133 11.0477H10.447V10.914H10.3133V11.0477ZM8.96609 11.0477H8.83244V11.1813H8.96609V11.0477ZM8.96609 6.47672V6.34307H8.83244V6.47672H8.96609ZM10.8426 24.3997H10.7089V24.5334H10.8426V24.3997ZM14.8843 24.3997V24.5334H15.0179V24.3997H14.8843ZM14.8843 10.1094H15.0179V10.0541L14.9788 10.0149L14.8843 10.1094ZM11.8049 7.03005L11.8994 6.93554L11.8603 6.8964H11.8049V7.03005ZM9.51942 7.03005V6.8964H9.38577V7.03005H9.51942ZM9.51942 10.4944H9.38577V10.628H9.51942V10.4944ZM10.8426 10.4944H10.9762V10.3607H10.8426V10.4944ZM11.1313 7.42834H11.6846V7.16103H11.1313V7.42834ZM11.5901 7.38919L14.5251 10.3242L14.7142 10.1352L11.7791 7.20018L11.5901 7.38919ZM14.486 10.2297V24.1351H14.7533V10.2297H14.486ZM14.6197 24.0014H11.1313V24.2687H14.6197V24.0014ZM11.2649 24.1351V10.2297H10.9976V24.1351H11.2649ZM11.1313 10.0961H9.78406V10.3634H11.1313V10.0961ZM9.91771 10.2297V7.29469H9.6504V10.2297H9.91771ZM9.78406 7.42834H11.1313V7.16103H9.78406V7.42834ZM11.9266 6.5709L15.3187 9.98709L15.5084 9.79874L12.1163 6.38255L11.9266 6.5709ZM15.2799 9.89292V24.953H15.5472V9.89292H15.2799ZM15.4136 24.8194H10.3133V25.0867H15.4136V24.8194ZM10.447 24.953V11.0477H10.1797V24.953H10.447ZM10.3133 10.914H8.96609V11.1813H10.3133V10.914ZM9.09975 11.0477V6.47672H8.83244V11.0477H9.09975ZM8.96609 6.61038H12.0214V6.34307H8.96609V6.61038ZM10.8426 24.5334H14.8843V24.2661H10.8426V24.5334ZM15.0179 24.3997V10.1094H14.7506V24.3997H15.0179ZM14.9788 10.0149L11.8994 6.93554L11.7104 7.12456L14.7898 10.2039L14.9788 10.0149ZM11.8049 6.8964H9.51942V7.16371H11.8049V6.8964ZM9.38577 7.03005V10.4944H9.65307V7.03005H9.38577ZM9.51942 10.628H10.8426V10.3607H9.51942V10.628ZM10.7089 10.4944V24.3997H10.9762V10.4944H10.7089Z" fill="#F9F9FB" mask="url(#path-2-outside-1_201_34)"/>
</svg>
