<svg width="39" height="47" viewBox="0 0 39 47" fill="none" xmlns="http://www.w3.org/2000/svg">
<path fill-rule="evenodd" clip-rule="evenodd" d="M2.08889 0C0.935228 0 0 0.935227 0 2.08889V44.9111C0 46.0648 0.935231 47 2.08889 47H36.5556C37.7092 47 38.6444 46.0648 38.6444 44.9111V2.08889C38.6444 0.935228 37.7092 0 36.5556 0H2.08889ZM4.13217 5.17742H34.5119V41.8238H4.13217V5.17742ZM2.08869 3.13395H4.13217H34.5119H36.5554V5.17742V41.8238V43.8673H34.5119H4.13217H2.08869V41.8238V5.17742V3.13395Z" fill="#101010"/>
<path d="M13.6 13.3251C14.5173 13.3251 15.3612 13.7845 15.9811 14.4492C16.6029 15.116 16.975 15.9635 16.975 16.7001V29.3001C16.975 31.1641 15.464 32.6751 13.6 32.6751C12.6827 32.6751 11.8388 32.2157 11.2189 31.551C10.5971 30.8842 10.225 30.0367 10.225 29.3001V16.7001C10.225 14.8361 11.736 13.3251 13.6 13.3251Z" fill="#FE3018" stroke="#F9F9FB" stroke-width="0.45"/>
<path d="M24.3998 13.3251C25.3171 13.3251 26.161 13.7845 26.7809 14.4492C27.4027 15.116 27.7748 15.9635 27.7748 16.7001V29.3001C27.7748 31.1641 26.2638 32.6751 24.3998 32.6751C23.4825 32.6751 22.6386 32.2157 22.0188 31.551C21.3969 30.8842 21.0248 30.0367 21.0248 29.3001V16.7001C21.0248 14.8361 22.5358 13.3251 24.3998 13.3251Z" fill="#FE3018" stroke="#F9F9FB" stroke-width="0.45"/>
</svg>
