<svg width="26" height="31" viewBox="0 0 26 31" fill="none" xmlns="http://www.w3.org/2000/svg">
<path fill-rule="evenodd" clip-rule="evenodd" d="M1.46194 0C0.707389 0 0.0957031 0.611688 0.0957031 1.36624V29.3741C0.0957031 30.1287 0.707389 30.7404 1.46194 30.7404H24.0049C24.7594 30.7404 25.3711 30.1287 25.3711 29.3741V1.36624C25.3711 0.611686 24.7594 0 24.0049 0H1.46194ZM2.79859 3.38614H22.6685V27.3547H2.79859V3.38614ZM1.46205 2.04961H2.79859H22.6685H24.005V3.38614V27.3547V28.6913H22.6685H2.79859H1.46205V27.3547V3.38614V2.04961Z" fill="#1F1F1F"/>
<mask id="path-2-outside-1_201_40" maskUnits="userSpaceOnUse" x="6.61035" y="5.88086" width="12" height="20" fill="black">
<rect fill="white" x="6.61035" y="5.88086" width="12" height="20"/>
<path d="M13.9436 15.8592H11.5379V21.2241H16.3975V24.1351H8.04949V15.4743L10.7921 12.852H13.246V10.2057H9.51701V7.29469H13.9436C14.7135 7.29469 15.3711 7.56734 15.9164 8.11265C16.4617 8.65796 16.7343 9.31553 16.7343 10.0854V13.0926C16.7343 13.8464 16.4617 14.496 15.9164 15.0413C15.3711 15.5866 14.7135 15.8592 13.9436 15.8592ZM13.9436 16.6772H12.3558V20.4061H17.2155V24.953H7.23153V15.1134L10.4793 12.0341H12.428V11.0236H8.69905V6.47672H13.9436C14.6012 6.47672 15.2026 6.63711 15.748 6.95788C16.3093 7.27865 16.7504 7.71971 17.0711 8.28105C17.3919 8.82636 17.5523 9.4278 17.5523 10.0854V13.0926C17.5523 13.7341 17.3919 14.3356 17.0711 14.8969C16.7504 15.4422 16.3093 15.8753 15.748 16.196C15.2026 16.5168 14.6012 16.6772 13.9436 16.6772ZM16.6621 20.9354H11.8025V16.1239H13.9436C14.7937 16.1239 15.5154 15.8271 16.1088 15.2337C16.7022 14.6403 16.999 13.9266 16.999 13.0926V10.0854C16.999 9.23534 16.7022 8.51361 16.1088 7.92019C15.5154 7.32676 14.7937 7.03005 13.9436 7.03005H9.22832V10.4944H12.9813V12.5874H10.6958L7.78486 15.354V24.3997H16.6621V20.9354Z"/>
</mask>
<path d="M13.9436 15.8592H11.5379V21.2241H16.3975V24.1351H8.04949V15.4743L10.7921 12.852H13.246V10.2057H9.51701V7.29469H13.9436C14.7135 7.29469 15.3711 7.56734 15.9164 8.11265C16.4617 8.65796 16.7343 9.31553 16.7343 10.0854V13.0926C16.7343 13.8464 16.4617 14.496 15.9164 15.0413C15.3711 15.5866 14.7135 15.8592 13.9436 15.8592ZM13.9436 16.6772H12.3558V20.4061H17.2155V24.953H7.23153V15.1134L10.4793 12.0341H12.428V11.0236H8.69905V6.47672H13.9436C14.6012 6.47672 15.2026 6.63711 15.748 6.95788C16.3093 7.27865 16.7504 7.71971 17.0711 8.28105C17.3919 8.82636 17.5523 9.4278 17.5523 10.0854V13.0926C17.5523 13.7341 17.3919 14.3356 17.0711 14.8969C16.7504 15.4422 16.3093 15.8753 15.748 16.196C15.2026 16.5168 14.6012 16.6772 13.9436 16.6772ZM16.6621 20.9354H11.8025V16.1239H13.9436C14.7937 16.1239 15.5154 15.8271 16.1088 15.2337C16.7022 14.6403 16.999 13.9266 16.999 13.0926V10.0854C16.999 9.23534 16.7022 8.51361 16.1088 7.92019C15.5154 7.32676 14.7937 7.03005 13.9436 7.03005H9.22832V10.4944H12.9813V12.5874H10.6958L7.78486 15.354V24.3997H16.6621V20.9354Z" fill="#FE3018"/>
<path d="M11.5379 15.8592V15.7292H11.4079V15.8592H11.5379ZM11.5379 21.2241H11.4079V21.3541H11.5379V21.2241ZM16.3975 21.2241H16.5275V21.0941H16.3975V21.2241ZM16.3975 24.1351V24.2651H16.5275V24.1351H16.3975ZM8.04949 24.1351H7.91949V24.2651H8.04949V24.1351ZM8.04949 15.4743L7.95965 15.3803L7.91949 15.4187V15.4743H8.04949ZM10.7921 12.852V12.722H10.7399L10.7022 12.7581L10.7921 12.852ZM13.246 12.852V12.982H13.376V12.852H13.246ZM13.246 10.2057H13.376V10.0757H13.246V10.2057ZM9.51701 10.2057H9.38701V10.3357H9.51701V10.2057ZM9.51701 7.29469V7.16469H9.38701V7.29469H9.51701ZM15.9164 8.11265L16.0083 8.02072L16.0083 8.02072L15.9164 8.11265ZM15.9164 15.0413L16.0083 15.1332L16.0083 15.1332L15.9164 15.0413ZM12.3558 16.6772V16.5472H12.2258V16.6772H12.3558ZM12.3558 20.4061H12.2258V20.5361H12.3558V20.4061ZM17.2155 20.4061H17.3455V20.2761H17.2155V20.4061ZM17.2155 24.953V25.083H17.3455V24.953H17.2155ZM7.23153 24.953H7.10153V25.083H7.23153V24.953ZM7.23153 15.1134L7.14209 15.0191L7.10153 15.0576V15.1134H7.23153ZM10.4793 12.0341V11.9041H10.4275L10.3899 11.9397L10.4793 12.0341ZM12.428 12.0341V12.1641H12.558V12.0341H12.428ZM12.428 11.0236H12.558V10.8936H12.428V11.0236ZM8.69905 11.0236H8.56905V11.1536H8.69905V11.0236ZM8.69905 6.47672V6.34672H8.56905V6.47672H8.69905ZM15.748 6.95788L15.682 7.06994L15.6835 7.07075L15.748 6.95788ZM17.0711 8.28105L16.9582 8.34555L16.9591 8.34696L17.0711 8.28105ZM17.0711 14.8969L17.1832 14.9628L17.184 14.9614L17.0711 14.8969ZM15.748 16.196L15.6835 16.0832L15.682 16.084L15.748 16.196ZM16.6621 20.9354H16.7921V20.8054H16.6621V20.9354ZM11.8025 20.9354H11.6725V21.0654H11.8025V20.9354ZM11.8025 16.1239V15.9939H11.6725V16.1239H11.8025ZM9.22832 7.03005V6.90005H9.09832V7.03005H9.22832ZM9.22832 10.4944H9.09832V10.6244H9.22832V10.4944ZM12.9813 10.4944H13.1113V10.3644H12.9813V10.4944ZM12.9813 12.5874V12.7174H13.1113V12.5874H12.9813ZM10.6958 12.5874V12.4574H10.6439L10.6063 12.4931L10.6958 12.5874ZM7.78486 15.354L7.6953 15.2598L7.65486 15.2982V15.354H7.78486ZM7.78486 24.3997H7.65486V24.5297H7.78486V24.3997ZM16.6621 24.3997V24.5297H16.7921V24.3997H16.6621ZM13.9436 15.7292H11.5379V15.9892H13.9436V15.7292ZM11.4079 15.8592V21.2241H11.6679V15.8592H11.4079ZM11.5379 21.3541H16.3975V21.0941H11.5379V21.3541ZM16.2675 21.2241V24.1351H16.5275V21.2241H16.2675ZM16.3975 24.0051H8.04949V24.2651H16.3975V24.0051ZM8.17949 24.1351V15.4743H7.91949V24.1351H8.17949ZM8.13933 15.5683L10.8819 12.946L10.7022 12.7581L7.95965 15.3803L8.13933 15.5683ZM10.7921 12.982H13.246V12.722H10.7921V12.982ZM13.376 12.852V10.2057H13.116V12.852H13.376ZM13.246 10.0757H9.51701V10.3357H13.246V10.0757ZM9.64701 10.2057V7.29469H9.38701V10.2057H9.64701ZM9.51701 7.42469H13.9436V7.16469H9.51701V7.42469ZM13.9436 7.42469C14.6789 7.42469 15.3035 7.6836 15.8244 8.20457L16.0083 8.02072C15.4386 7.45108 14.748 7.16469 13.9436 7.16469V7.42469ZM15.8244 8.20457C16.3454 8.72555 16.6043 9.35008 16.6043 10.0854H16.8643C16.8643 9.28099 16.5779 8.59036 16.0083 8.02072L15.8244 8.20457ZM16.6043 10.0854V13.0926H16.8643V10.0854H16.6043ZM16.6043 13.0926C16.6043 13.811 16.346 14.4278 15.8244 14.9493L16.0083 15.1332C16.5773 14.5641 16.8643 13.8818 16.8643 13.0926H16.6043ZM15.8244 14.9493C15.3035 15.4703 14.6789 15.7292 13.9436 15.7292V15.9892C14.748 15.9892 15.4386 15.7028 16.0083 15.1332L15.8244 14.9493ZM13.9436 16.5472H12.3558V16.8072H13.9436V16.5472ZM12.2258 16.6772V20.4061H12.4858V16.6772H12.2258ZM12.3558 20.5361H17.2155V20.2761H12.3558V20.5361ZM17.0855 20.4061V24.953H17.3455V20.4061H17.0855ZM17.2155 24.823H7.23153V25.083H17.2155V24.823ZM7.36153 24.953V15.1134H7.10153V24.953H7.36153ZM7.32098 15.2078L10.5688 12.1284L10.3899 11.9397L7.14209 15.0191L7.32098 15.2078ZM10.4793 12.1641H12.428V11.9041H10.4793V12.1641ZM12.558 12.0341V11.0236H12.298V12.0341H12.558ZM12.428 10.8936H8.69905V11.1536H12.428V10.8936ZM8.82905 11.0236V6.47672H8.56905V11.0236H8.82905ZM8.69905 6.60672H13.9436V6.34672H8.69905V6.60672ZM13.9436 6.60672C14.579 6.60672 15.1575 6.76139 15.682 7.06993L15.8139 6.84583C15.2478 6.51283 14.6234 6.34672 13.9436 6.34672V6.60672ZM15.6835 7.07075C16.2247 7.38 16.649 7.80436 16.9583 8.34555L17.184 8.21655C16.8517 7.63505 16.394 7.17729 15.8125 6.84501L15.6835 7.07075ZM16.9591 8.34696C17.2676 8.87149 17.4223 9.45003 17.4223 10.0854H17.6823C17.6823 9.40558 17.5162 8.78123 17.1832 8.21514L16.9591 8.34696ZM17.4223 10.0854V13.0926H17.6823V10.0854H17.4223ZM17.4223 13.0926C17.4223 13.7113 17.2679 14.2906 16.9583 14.8324L17.184 14.9614C17.5159 14.3806 17.6823 13.7569 17.6823 13.0926H17.4223ZM16.9591 14.831C16.6501 15.3563 16.2256 15.7734 15.6835 16.0832L15.8125 16.3089C16.393 15.9772 16.8507 15.5281 17.1832 14.9628L16.9591 14.831ZM15.682 16.084C15.1575 16.3925 14.579 16.5472 13.9436 16.5472V16.8072C14.6234 16.8072 15.2478 16.6411 15.8139 16.3081L15.682 16.084ZM16.6621 20.8054H11.8025V21.0654H16.6621V20.8054ZM11.9325 20.9354V16.1239H11.6725V20.9354H11.9325ZM11.8025 16.2539H13.9436V15.9939H11.8025V16.2539ZM13.9436 16.2539C14.8276 16.2539 15.5826 15.9438 16.2007 15.3256L16.0169 15.1418C15.4482 15.7105 14.7597 15.9939 13.9436 15.9939V16.2539ZM16.2007 15.3256C16.8184 14.708 17.129 13.9613 17.129 13.0926H16.869C16.869 13.8919 16.5861 14.5726 16.0169 15.1418L16.2007 15.3256ZM17.129 13.0926V10.0854H16.869V13.0926H17.129ZM17.129 10.0854C17.129 9.20136 16.8189 8.44642 16.2007 7.82826L16.0169 8.01211C16.5856 8.5808 16.869 9.26932 16.869 10.0854H17.129ZM16.2007 7.82826C15.5826 7.21011 14.8276 6.90005 13.9436 6.90005V7.16005C14.7597 7.16005 15.4482 7.44342 16.0169 8.01211L16.2007 7.82826ZM13.9436 6.90005H9.22832V7.16005H13.9436V6.90005ZM9.09832 7.03005V10.4944H9.35832V7.03005H9.09832ZM9.22832 10.6244H12.9813V10.3644H9.22832V10.6244ZM12.8513 10.4944V12.5874H13.1113V10.4944H12.8513ZM12.9813 12.4574H10.6958V12.7174H12.9813V12.4574ZM10.6063 12.4931L7.6953 15.2598L7.87442 15.4482L10.7854 12.6816L10.6063 12.4931ZM7.65486 15.354V24.3997H7.91486V15.354H7.65486ZM7.78486 24.5297H16.6621V24.2697H7.78486V24.5297ZM16.7921 24.3997V20.9354H16.5321V24.3997H16.7921Z" fill="#F9F9FB" mask="url(#path-2-outside-1_201_40)"/>
</svg>
