<svg width="26" height="31" viewBox="0 0 26 31" fill="none" xmlns="http://www.w3.org/2000/svg">
<path fill-rule="evenodd" clip-rule="evenodd" d="M1.55862 0C0.804069 0 0.192383 0.611688 0.192383 1.36624V29.3741C0.192383 30.1287 0.804068 30.7404 1.55862 30.7404H24.1016C24.8561 30.7404 25.4678 30.1287 25.4678 29.3741V1.36624C25.4678 0.611686 24.8561 0 24.1016 0H1.55862ZM2.89523 3.38614H22.7651V27.3547H2.89523V3.38614ZM1.55869 2.04961H2.89523H22.7651H24.1016V3.38614V27.3547V28.6913H22.7651H2.89523H1.55869V27.3547V3.38614V2.04961Z" fill="#1F1F1F"/>
<mask id="path-2-outside-1_201_46" maskUnits="userSpaceOnUse" x="7.70703" y="5.88086" width="10" height="20" fill="black">
<rect fill="white" x="7.70703" y="5.88086" width="10" height="20"/>
<path d="M13.4869 7.29469C13.8558 7.29469 14.2086 7.36686 14.5454 7.5112C14.8983 7.65555 15.195 7.85603 15.4356 8.11265C15.6922 8.35322 15.8927 8.64994 16.037 9.00278C16.1813 9.33959 16.2535 9.69244 16.2535 10.0613V12.7077C16.2535 13.4775 15.9728 14.1351 15.4115 14.6804L16.2535 15.4743V21.3925C16.2535 22.1463 15.9809 22.7959 15.4356 23.3412C14.9063 23.8704 14.2567 24.1351 13.4869 24.1351H8.67535V21.2241H12.7892V15.8592H9.75795V12.852H12.7892V10.2297H8.67535V7.29469H13.4869ZM17.0715 10.0613V12.7077C17.0715 13.3973 16.887 14.0308 16.5182 14.6082L17.0715 15.1134V21.3925C17.0715 22.3708 16.7186 23.2129 16.0129 23.9186C15.3233 24.6082 14.4813 24.953 13.4869 24.953H7.85739V20.4061H11.9953V16.6772H8.93998V12.0341H11.9953V11.0477H7.85739V6.47672H13.4869C14.4813 6.47672 15.3233 6.82957 16.0129 7.53526C16.7186 8.24096 17.0715 9.08297 17.0715 10.0613ZM16.5182 12.7077V10.0613C16.5182 9.22732 16.2214 8.51361 15.628 7.92019C15.0346 7.32676 14.3209 7.03005 13.4869 7.03005H8.41071V10.4944H12.5246V12.5874H9.49331V16.1239H12.5246V20.9354H8.41071V24.4238H13.4869C14.3209 24.4238 15.0346 24.1271 15.628 23.5336C16.2214 22.9402 16.5182 22.2265 16.5182 21.3925V15.354L15.7964 14.6804L15.9408 14.4879C16.3257 13.9587 16.5182 13.3652 16.5182 12.7077Z"/>
</mask>
<path d="M13.4869 7.29469C13.8558 7.29469 14.2086 7.36686 14.5454 7.5112C14.8983 7.65555 15.195 7.85603 15.4356 8.11265C15.6922 8.35322 15.8927 8.64994 16.037 9.00278C16.1813 9.33959 16.2535 9.69244 16.2535 10.0613V12.7077C16.2535 13.4775 15.9728 14.1351 15.4115 14.6804L16.2535 15.4743V21.3925C16.2535 22.1463 15.9809 22.7959 15.4356 23.3412C14.9063 23.8704 14.2567 24.1351 13.4869 24.1351H8.67535V21.2241H12.7892V15.8592H9.75795V12.852H12.7892V10.2297H8.67535V7.29469H13.4869ZM17.0715 10.0613V12.7077C17.0715 13.3973 16.887 14.0308 16.5182 14.6082L17.0715 15.1134V21.3925C17.0715 22.3708 16.7186 23.2129 16.0129 23.9186C15.3233 24.6082 14.4813 24.953 13.4869 24.953H7.85739V20.4061H11.9953V16.6772H8.93998V12.0341H11.9953V11.0477H7.85739V6.47672H13.4869C14.4813 6.47672 15.3233 6.82957 16.0129 7.53526C16.7186 8.24096 17.0715 9.08297 17.0715 10.0613ZM16.5182 12.7077V10.0613C16.5182 9.22732 16.2214 8.51361 15.628 7.92019C15.0346 7.32676 14.3209 7.03005 13.4869 7.03005H8.41071V10.4944H12.5246V12.5874H9.49331V16.1239H12.5246V20.9354H8.41071V24.4238H13.4869C14.3209 24.4238 15.0346 24.1271 15.628 23.5336C16.2214 22.9402 16.5182 22.2265 16.5182 21.3925V15.354L15.7964 14.6804L15.9408 14.4879C16.3257 13.9587 16.5182 13.3652 16.5182 12.7077Z" fill="#FE3018"/>
<path d="M14.5454 7.5112L14.4942 7.63071L14.4962 7.63153L14.5454 7.5112ZM15.4356 8.11265L15.3405 8.20175L15.3466 8.20749L15.4356 8.11265ZM16.037 9.00278L15.9167 9.05201L15.9175 9.05399L16.037 9.00278ZM15.4115 14.6804L15.3209 14.5872L15.2235 14.6818L15.3223 14.775L15.4115 14.6804ZM16.2535 15.4743H16.3835V15.4182L16.3427 15.3797L16.2535 15.4743ZM15.4356 23.3412L15.3436 23.2492L15.3436 23.2492L15.4356 23.3412ZM8.67535 24.1351H8.54535V24.2651H8.67535V24.1351ZM8.67535 21.2241V21.0941H8.54535V21.2241H8.67535ZM12.7892 21.2241V21.3541H12.9192V21.2241H12.7892ZM12.7892 15.8592H12.9192V15.7292H12.7892V15.8592ZM9.75795 15.8592H9.62795V15.9892H9.75795V15.8592ZM9.75795 12.852V12.722H9.62795V12.852H9.75795ZM12.7892 12.852V12.982H12.9192V12.852H12.7892ZM12.7892 10.2297H12.9192V10.0997H12.7892V10.2297ZM8.67535 10.2297H8.54535V10.3597H8.67535V10.2297ZM8.67535 7.29469V7.16469H8.54535V7.29469H8.67535ZM16.5182 14.6082L16.4086 14.5382L16.3497 14.6304L16.4305 14.7042L16.5182 14.6082ZM17.0715 15.1134H17.2015V15.0561L17.1591 15.0174L17.0715 15.1134ZM16.0129 23.9186L16.1049 24.0105L16.1049 24.0105L16.0129 23.9186ZM7.85739 24.953H7.72739V25.083H7.85739V24.953ZM7.85739 20.4061V20.2761H7.72739V20.4061H7.85739ZM11.9953 20.4061V20.5361H12.1253V20.4061H11.9953ZM11.9953 16.6772H12.1253V16.5472H11.9953V16.6772ZM8.93998 16.6772H8.80998V16.8072H8.93998V16.6772ZM8.93998 12.0341V11.9041H8.80998V12.0341H8.93998ZM11.9953 12.0341V12.1641H12.1253V12.0341H11.9953ZM11.9953 11.0477H12.1253V10.9177H11.9953V11.0477ZM7.85739 11.0477H7.72739V11.1777H7.85739V11.0477ZM7.85739 6.47672V6.34672H7.72739V6.47672H7.85739ZM16.0129 7.53526L15.92 7.62613L15.921 7.62719L16.0129 7.53526ZM8.41071 7.03005V6.90005H8.28071V7.03005H8.41071ZM8.41071 10.4944H8.28071V10.6244H8.41071V10.4944ZM12.5246 10.4944H12.6546V10.3644H12.5246V10.4944ZM12.5246 12.5874V12.7174H12.6546V12.5874H12.5246ZM9.49331 12.5874V12.4574H9.36331V12.5874H9.49331ZM9.49331 16.1239H9.36331V16.2539H9.49331V16.1239ZM12.5246 16.1239H12.6546V15.9939H12.5246V16.1239ZM12.5246 20.9354V21.0654H12.6546V20.9354H12.5246ZM8.41071 20.9354V20.8054H8.28071V20.9354H8.41071ZM8.41071 24.4238H8.28071V24.5538H8.41071V24.4238ZM16.5182 15.354H16.6482V15.2975L16.6069 15.259L16.5182 15.354ZM15.7964 14.6804L15.6924 14.6024L15.6224 14.6958L15.7077 14.7754L15.7964 14.6804ZM15.9408 14.4879L16.0448 14.5659L16.0459 14.5644L15.9408 14.4879ZM13.4869 7.42469C13.8383 7.42469 14.1737 7.49333 14.4942 7.63069L14.5966 7.39172C14.2435 7.24039 13.8733 7.16469 13.4869 7.16469V7.42469ZM14.4962 7.63153C14.8332 7.7694 15.114 7.95968 15.3407 8.20156L15.5304 8.02374C15.276 7.75238 14.9633 7.5417 14.5946 7.39088L14.4962 7.63153ZM15.3466 8.20749C15.5885 8.43425 15.7788 8.71497 15.9167 9.052L16.1573 8.95356C16.0065 8.5849 15.7958 8.2722 15.5245 8.01781L15.3466 8.20749ZM15.9175 9.05399C16.0549 9.37451 16.1235 9.70992 16.1235 10.0613H16.3835C16.3835 9.67495 16.3078 9.30467 16.1565 8.95157L15.9175 9.05399ZM16.1235 10.0613V12.7077H16.3835V10.0613H16.1235ZM16.1235 12.7077C16.1235 13.4417 15.8575 14.0659 15.3209 14.5872L15.5021 14.7736C16.0882 14.2043 16.3835 13.5133 16.3835 12.7077H16.1235ZM15.3223 14.775L16.1643 15.5689L16.3427 15.3797L15.5007 14.5858L15.3223 14.775ZM16.1235 15.4743V21.3925H16.3835V15.4743H16.1235ZM16.1235 21.3925C16.1235 22.1109 15.8652 22.7277 15.3436 23.2492L15.5275 23.4331C16.0965 22.864 16.3835 22.1817 16.3835 21.3925H16.1235ZM15.3436 23.2492C14.8395 23.7534 14.2234 24.0051 13.4869 24.0051V24.2651C14.2901 24.2651 14.9731 23.9875 15.5275 23.4331L15.3436 23.2492ZM13.4869 24.0051H8.67535V24.2651H13.4869V24.0051ZM8.80535 24.1351V21.2241H8.54535V24.1351H8.80535ZM8.67535 21.3541H12.7892V21.0941H8.67535V21.3541ZM12.9192 21.2241V15.8592H12.6592V21.2241H12.9192ZM12.7892 15.7292H9.75795V15.9892H12.7892V15.7292ZM9.88795 15.8592V12.852H9.62795V15.8592H9.88795ZM9.75795 12.982H12.7892V12.722H9.75795V12.982ZM12.9192 12.852V10.2297H12.6592V12.852H12.9192ZM12.7892 10.0997H8.67535V10.3597H12.7892V10.0997ZM8.80535 10.2297V7.29469H8.54535V10.2297H8.80535ZM8.67535 7.42469H13.4869V7.16469H8.67535V7.42469ZM16.9415 10.0613V12.7077H17.2015V10.0613H16.9415ZM16.9415 12.7077C16.9415 13.3727 16.764 13.9819 16.4086 14.5382L16.6277 14.6782C17.01 14.0798 17.2015 13.422 17.2015 12.7077H16.9415ZM16.4305 14.7042L16.9838 15.2094L17.1591 15.0174L16.6058 14.5122L16.4305 14.7042ZM16.9415 15.1134V21.3925H17.2015V15.1134H16.9415ZM16.9415 21.3925C16.9415 22.3356 16.6029 23.1448 15.921 23.8266L16.1049 24.0105C16.8344 23.281 17.2015 22.4061 17.2015 21.3925H16.9415ZM15.921 23.8266C15.2563 24.4914 14.4476 24.823 13.4869 24.823V25.083C14.515 25.083 15.3903 24.725 16.1049 24.0105L15.921 23.8266ZM13.4869 24.823H7.85739V25.083H13.4869V24.823ZM7.98739 24.953V20.4061H7.72739V24.953H7.98739ZM7.85739 20.5361H11.9953V20.2761H7.85739V20.5361ZM12.1253 20.4061V16.6772H11.8653V20.4061H12.1253ZM11.9953 16.5472H8.93998V16.8072H11.9953V16.5472ZM9.06998 16.6772V12.0341H8.80998V16.6772H9.06998ZM8.93998 12.1641H11.9953V11.9041H8.93998V12.1641ZM12.1253 12.0341V11.0477H11.8653V12.0341H12.1253ZM11.9953 10.9177H7.85739V11.1777H11.9953V10.9177ZM7.98739 11.0477V6.47672H7.72739V11.0477H7.98739ZM7.85739 6.60672H13.4869V6.34672H7.85739V6.60672ZM13.4869 6.60672C14.4466 6.60672 15.255 6.94568 15.92 7.62612L16.1059 7.4444C15.3916 6.71346 14.516 6.34672 13.4869 6.34672V6.60672ZM15.921 7.62719C16.6029 8.30905 16.9415 9.11822 16.9415 10.0613H17.2015C17.2015 9.04773 16.8344 8.17286 16.1049 7.44334L15.921 7.62719ZM16.6482 12.7077V10.0613H16.3882V12.7077H16.6482ZM16.6482 10.0613C16.6482 9.1926 16.3376 8.44589 15.7199 7.82826L15.5361 8.01211C16.1053 8.58132 16.3882 9.26204 16.3882 10.0613H16.6482ZM15.7199 7.82826C15.1023 7.21063 14.3556 6.90005 13.4869 6.90005V7.16005C14.2862 7.16005 14.9669 7.44289 15.5361 8.01211L15.7199 7.82826ZM13.4869 6.90005H8.41071V7.16005H13.4869V6.90005ZM8.28071 7.03005V10.4944H8.54071V7.03005H8.28071ZM8.41071 10.6244H12.5246V10.3644H8.41071V10.6244ZM12.3946 10.4944V12.5874H12.6546V10.4944H12.3946ZM12.5246 12.4574H9.49331V12.7174H12.5246V12.4574ZM9.36331 12.5874V16.1239H9.62331V12.5874H9.36331ZM9.49331 16.2539H12.5246V15.9939H9.49331V16.2539ZM12.3946 16.1239V20.9354H12.6546V16.1239H12.3946ZM12.5246 20.8054H8.41071V21.0654H12.5246V20.8054ZM8.28071 20.9354V24.4238H8.54071V20.9354H8.28071ZM8.41071 24.5538H13.4869V24.2938H8.41071V24.5538ZM13.4869 24.5538C14.3556 24.5538 15.1023 24.2432 15.7199 23.6256L15.5361 23.4417C14.9669 24.0109 14.2862 24.2938 13.4869 24.2938V24.5538ZM15.7199 23.6256C16.3376 23.0079 16.6482 22.2612 16.6482 21.3925H16.3882C16.3882 22.1918 16.1053 22.8725 15.5361 23.4417L15.7199 23.6256ZM16.6482 21.3925V15.354H16.3882V21.3925H16.6482ZM16.6069 15.259L15.8851 14.5854L15.7077 14.7754L16.4295 15.4491L16.6069 15.259ZM15.9004 14.7584L16.0448 14.5659L15.8368 14.4099L15.6924 14.6024L15.9004 14.7584ZM16.0459 14.5644C16.4471 14.0128 16.6482 13.3926 16.6482 12.7077H16.3882C16.3882 13.3379 16.2043 13.9045 15.8356 14.4115L16.0459 14.5644Z" fill="#F9F9FB" mask="url(#path-2-outside-1_201_46)"/>
</svg>
