<svg width="11" height="11" viewBox="0 0 11 11" fill="none" xmlns="http://www.w3.org/2000/svg">
<path d="M5.5 0C4.04146 0 2.64214 0.579615 1.61085 1.61085C0.579604 2.6421 0 4.04146 0 5.5C0 6.95866 0.579615 8.35786 1.61085 9.38915C2.6421 10.4204 4.04146 11 5.5 11C6.95866 11 8.35786 10.4204 9.38915 9.38915C10.4204 8.3579 11 6.95854 11 5.5C10.9984 4.04191 10.4188 2.64361 9.38757 1.61243C8.35632 0.581184 6.95809 0.00157949 5.5 0ZM8.08336 4.07846L5.26308 7.46308C5.18428 7.55351 5.07269 7.60851 4.95264 7.61538C4.84052 7.61538 4.73317 7.57043 4.65385 7.4911L2.96154 5.79879C2.80606 5.6322 2.81082 5.37255 2.97212 5.21125C3.13288 5.05048 3.39255 5.04572 3.55966 5.2012L4.93573 6.5661L7.45727 3.53687C7.61328 3.35601 7.88617 3.33592 8.0665 3.49192C8.24736 3.6474 8.26746 3.92029 8.11198 4.10115L8.08336 4.07846Z" fill="#F9F9FB"/>
</svg>
