<svg width="11" height="11" viewBox="0 0 11 11" fill="none" xmlns="http://www.w3.org/2000/svg">
<path fill-rule="evenodd" clip-rule="evenodd" d="M0.718203 2.27209C0.493333 2.29453 0.292807 2.12982 0.270369 1.90495C0.247931 1.68008 0.413125 1.47955 0.638473 1.45759L2.02876 1.31913C2.27798 1.28715 2.48423 1.4595 2.50093 1.69392L2.6074 3.06169C2.62363 3.28752 2.4551 3.48422 2.22879 3.50093C2.00297 3.51764 1.80531 3.34815 1.78956 3.12233L1.75566 2.69503C1.15982 3.48709 0.846148 4.42916 0.82037 5.37863C0.789336 6.53689 1.18512 7.70707 2.0154 8.62904C3.20514 9.94914 5.02564 10.4762 6.73768 10.0179C6.95634 9.95917 7.18121 10.0895 7.23993 10.3082C7.29865 10.5268 7.16832 10.7517 6.9487 10.81C4.94007 11.3475 2.80219 10.7264 1.4061 9.17717C0.430703 8.09437 -0.0342926 6.72029 0.00196674 5.35913C0.031567 4.25485 0.391073 3.15963 1.07335 2.23624L0.717183 2.27157L0.718203 2.27209ZM4.99355 7.85523L3.25473 6.85119L3.06042 8.63014C3.03177 8.90036 3.3378 9.06508 3.54787 8.91134L4.99356 7.85483L4.99355 7.85523ZM5.66339 2.46887L7.58596 3.57845L8.09442 2.70189C8.17845 2.55484 8.12832 2.36674 7.98127 2.28175L6.58957 1.47823C6.44251 1.39372 6.25489 1.44481 6.16943 1.59138L5.66287 2.46842L5.66339 2.46887ZM3.46909 6.26776L5.39267 7.37734L7.27907 4.11114L5.35651 3.00115L3.46929 6.26735L3.46909 6.26776ZM4.26449 0.982646C5.97561 0.523832 7.79693 1.05187 8.98585 2.3715C9.81658 3.29343 10.2118 4.46355 10.1809 5.62191C10.1551 6.57105 9.84286 7.51351 9.2456 8.30551L9.21265 7.87821C9.19547 7.65239 8.99924 7.4829 8.77341 7.49961C8.54711 7.51632 8.37763 7.71302 8.39481 7.93885L8.50128 9.30662C8.51846 9.54056 8.72424 9.71292 8.97345 9.68093L10.3637 9.54247C10.5886 9.52051 10.7528 9.31998 10.7318 9.09511C10.7094 8.87024 10.5089 8.70553 10.284 8.72797L9.92784 8.7633C10.6101 7.83995 10.9687 6.7452 10.9982 5.64041C11.0345 4.27925 10.5709 2.90517 9.59509 1.82237C8.19859 0.27361 6.06112 -0.347587 4.05209 0.190091C3.83342 0.248338 3.70356 0.47321 3.76229 0.691876C3.82101 0.910543 4.04588 1.0404 4.26454 0.982155L4.26449 0.982646Z" fill="#D8D100"/>
</svg>
