<svg width="11" height="11" viewBox="0 0 11 11" fill="none" xmlns="http://www.w3.org/2000/svg">
<path d="M5.5 0C2.46975 0 0 2.46975 0 5.5C0 8.53026 2.46975 11 5.5 11C8.53026 11 11 8.53026 11 5.5C11 2.46975 8.53026 0 5.5 0ZM5.5 10.0191C3.01274 10.0191 0.980892 7.98726 0.980892 5.5C0.980892 3.01274 3.01274 0.980892 5.5 0.980892C7.98726 0.980892 10.0191 3.01274 10.0191 5.5C10.0191 7.98726 7.98726 10.0191 5.5 10.0191Z" fill="#5392D3"/>
<path d="M6.23593 5.50004C6.23593 5.90636 5.9066 6.23568 5.50029 6.23568C5.09398 6.23568 4.76465 5.90636 4.76465 5.50004C4.76465 5.09373 5.09398 4.7644 5.50029 4.7644C5.9066 4.7644 6.23593 5.09373 6.23593 5.50004Z" fill="#5392D3"/>
<path d="M3.80093 5.50004C3.80093 5.90636 3.47154 6.23568 3.06523 6.23568C2.65892 6.23568 2.32959 5.90636 2.32959 5.50004C2.32959 5.09373 2.65892 4.7644 3.06523 4.7644C3.47154 4.7644 3.80093 5.09373 3.80093 5.50004Z" fill="#5392D3"/>
<path d="M8.67007 5.50004C8.67007 5.90636 8.34074 6.23568 7.93443 6.23568C7.52812 6.23568 7.19873 5.90636 7.19873 5.50004C7.19873 5.09373 7.52812 4.7644 7.93443 4.7644C8.34074 4.7644 8.67007 5.09373 8.67007 5.50004Z" fill="#5392D3"/>
</svg>
