<svg width="375" height="328" viewBox="0 0 375 328" fill="none" xmlns="http://www.w3.org/2000/svg">
<g opacity="0.4">
<path d="M277.685 47.6263C278.066 46.7904 278.007 45.6889 278.28 44.9474C280.618 44.3164 282.774 42.272 282.434 39.6147H282.435C282.47 39.3954 282.441 39.1703 282.351 38.9672L280.675 35.113H280.675C280.153 33.9102 279.289 32.8872 278.191 32.1717C277.092 31.4559 275.807 31.079 274.496 31.0876C274.495 28.7136 274.332 26.3426 274.007 23.9909C273.357 23.3072 272.824 22.5219 272.428 21.6663C272.157 21.0223 271.584 20.5549 270.899 20.4181C269.919 20.2273 268.911 20.5559 268.232 21.2869C267.126 22.2098 265.706 22.6691 264.269 22.5687C262.832 22.4683 261.49 21.816 260.523 20.7484C258.211 18.2244 259.154 14.1284 261.918 12.294C262.374 12.022 262.664 11.5413 262.694 11.0115C262.723 10.4819 262.488 9.97195 262.065 9.65125C260.97 8.82113 260.127 7.70311 259.63 6.42207C259.133 5.14083 259.002 3.74697 259.251 2.39563C257.402 1.56245 255.465 0.942435 253.476 0.547852C252.219 2.88777 249.986 4.54703 247.383 5.0751C246.607 5.35021 246.009 5.97812 245.772 6.76572C245.536 7.55359 245.688 8.40692 246.184 9.06384C246.868 10.3821 246.988 11.9216 246.516 13.3303C246.045 14.7387 245.022 15.8953 243.682 16.5357C242.341 17.1758 240.799 17.2449 239.407 16.7265C238.014 16.2084 236.892 15.1474 236.297 13.7867C236.013 13.0839 235.524 12.2341 234.743 12.1351C234.289 12.0332 233.813 12.1613 233.471 12.4774C232.315 13.4461 230.892 14.0402 229.39 14.18C227.888 14.3198 226.38 13.9991 225.065 13.2607C222.545 18.0446 221.284 24.0157 221.272 31.1242C220.42 31.2136 219.593 31.4671 218.837 31.8705C216.261 32.9508 215.219 36.6446 214.151 38.9673C213.391 41.7736 215.614 44.2895 218.223 44.9477C218.502 45.688 218.434 46.7907 218.817 47.6267L218.817 47.6264C219.765 49.7126 219.827 52.0935 218.99 54.2263L218.343 55.7982C217.968 56.7371 218.08 57.8006 218.642 58.6407C219.205 59.481 220.146 59.9895 221.157 59.9999H225.193C226.108 59.993 226.972 59.5776 227.548 58.8669C228.125 58.1562 228.353 57.2252 228.171 56.3285C227.585 53.1256 226.283 48.4649 226.318 45.2396C230.391 44.5839 234.338 43.3027 238.021 41.4412C238.168 41.4755 238.315 41.5064 238.462 41.5402L238.462 41.54C245.061 42.9703 251.895 42.9361 258.481 41.4404C262.163 43.3027 266.112 44.5842 270.185 45.2399C270.222 48.4495 268.939 53.1622 268.333 56.3301L268.332 56.3299C268.143 57.2273 268.369 58.1624 268.947 58.8745C269.524 59.5867 270.393 60.0004 271.31 60.0004H275.346C276.357 59.9903 277.298 59.4816 277.861 58.6412C278.423 57.8009 278.535 56.7369 278.159 55.7979L277.512 54.2268C276.676 52.094 276.738 49.713 277.686 47.6269L277.685 47.6263ZM278.068 42.4427C277.775 41.1311 277.416 39.8354 276.991 38.5607C281.306 38.6865 280.533 41.4274 278.068 42.4427ZM241.13 29.9374C242.94 30.4943 244.329 28.7252 244.201 27.001V27.0007C244.222 25.5409 244.827 24.1501 245.88 23.1386C246.933 22.127 248.347 21.5791 249.806 21.6166C251.266 21.6543 252.65 22.2745 253.65 23.3387C254.649 24.403 255.181 25.8231 255.127 27.2824L255.091 28.2122C255.077 29.2815 255.719 30.246 256.999 30.0231C258.282 29.751 259.613 29.8264 260.857 30.2416C262.1 30.6568 263.21 31.3966 264.071 32.3846C263.141 32.5925 262.187 32.8373 261.208 33.1309C260.149 32.4093 258.843 32.1446 257.587 32.3965C256.322 32.6711 255.001 32.329 254.028 31.4747C253.056 30.6203 252.546 29.3551 252.656 28.0652C252.868 27.1214 252.659 26.1318 252.084 25.3544C251.508 24.5767 250.623 24.0882 249.658 24.0153C248.745 24.0744 247.898 24.5095 247.318 25.2172C246.738 25.9245 246.478 26.8407 246.599 27.7474C246.527 29.2869 245.751 30.708 244.495 31.6014C243.303 32.4616 241.775 32.7107 240.371 32.2743C238.599 31.7827 236.7 32.0769 235.159 33.0818C234.156 32.8004 233.177 32.5436 232.223 32.3355C233.348 31.1625 234.773 30.3191 236.343 29.8965C237.912 29.4739 239.568 29.488 241.13 29.9375L241.13 29.9374ZM216.465 39.8813C216.601 39.382 217.232 38.7309 219.507 38.574V38.5737C219.082 39.8438 218.724 41.1353 218.434 42.4425C217.402 42.0337 216.204 41.1065 216.465 39.8813ZM225.656 57.332C225.543 57.4724 225.373 57.5536 225.193 57.5524H221.157C220.956 57.5582 220.766 57.4604 220.654 57.293C220.542 57.1259 220.524 56.913 220.606 56.7293L221.253 55.1579C221.783 53.8308 222.046 52.4117 222.025 50.9825C222.004 49.5535 221.7 48.1425 221.131 46.8315C220.046 44.242 221.287 41.0928 222.061 38.5864C222.722 38.6259 223.457 38.6916 224.279 38.7886V38.7889C223.651 42.8482 223.742 46.9864 224.549 51.0144L225.776 56.8336C225.814 57.0096 225.77 57.1932 225.656 57.3323L225.656 57.332ZM226.339 42.759C226.382 41.6083 226.55 40.2914 226.702 39.1409C228.979 39.5013 231.449 39.9904 234.041 40.5546L234.041 40.5544C231.562 41.5697 228.979 42.3089 226.339 42.759L226.339 42.759ZM250.79 40.0887C242.512 40.862 233.569 37.4785 226.011 36.5511C223.354 36.0582 220.637 35.9815 217.956 36.3236L218.066 36.0788L218.066 36.0791C218.389 35.306 218.938 34.649 219.641 34.1946C220.344 33.7405 221.169 33.5099 222.006 33.5341C226.529 33.6508 231.015 34.3793 235.343 35.6998C240.419 37.4322 245.787 38.1431 251.138 37.7921C255.497 37.2368 259.794 36.2742 263.973 34.9165C267.42 34.0769 270.948 33.6136 274.496 33.5341C275.373 33.513 276.234 33.7687 276.958 34.2649C277.681 34.7611 278.23 35.4724 278.526 36.2982C269.382 35.2418 260.327 39.4303 250.79 40.0887L250.79 40.0887ZM262.458 40.5528C265.012 39.9978 267.522 39.4926 269.8 39.1297C269.951 40.2856 270.121 41.6033 270.164 42.759C267.522 42.3089 264.938 41.5689 262.458 40.5525L262.458 40.5528ZM275.841 57.2876C275.732 57.4549 275.545 57.555 275.346 57.5522H271.31C271.13 57.5525 270.96 57.4712 270.847 57.3316C270.733 57.192 270.689 57.0089 270.727 56.8329C271.936 51.5476 273.209 45.547 272.396 40.147L272.224 38.7855C273.044 38.6867 273.779 38.6197 274.439 38.5787L275.46 41.9428V41.9431C276.014 43.8927 275.862 45.9759 275.03 47.8242C274.209 50.214 274.287 52.8212 275.249 55.1577L275.896 56.7289C275.975 56.9123 275.954 57.1232 275.841 57.2875L275.841 57.2876Z" fill="#90CAC2"/>
<path d="M231.074 11.2049C233.806 8.68898 237.123 9.29015 238.55 12.8079C240.865 16.8394 246.131 13.5379 243.725 9.58965H243.725C243.072 8.25846 243.055 6.70334 243.68 5.35839C244.305 4.0137 245.505 3.02356 246.943 2.66445C248.512 2.33891 249.901 1.43466 250.834 0.131708C249.876 0.0203954 248.911 -0.0203607 247.946 0.00944014C241.175 -0.0756389 234.629 2.43772 229.654 7.03252C228.376 8.27098 227.247 9.65493 226.29 11.1557C227.782 11.9479 229.566 11.9663 231.074 11.2049L231.074 11.2049Z" fill="#90CAC2"/>
<path d="M263.474 7.6438C264.509 8.41765 265.116 9.63629 265.112 10.929C265.107 12.2217 264.49 13.4357 263.449 14.2019C261.799 15.2978 260.966 17.5269 262.36 19.1329C263.003 19.785 263.888 20.1398 264.803 20.1118C265.718 20.0841 266.579 19.676 267.181 18.9859C267.977 18.3527 268.947 17.978 269.962 17.9125C270.977 17.8468 271.987 18.0934 272.858 18.6189C271.659 14.235 269.335 10.2407 266.116 7.03175C264.755 5.70721 263.234 4.55632 261.589 3.60596C261.533 5.17608 262.234 6.67792 263.473 7.64361L263.474 7.6438Z" fill="#90CAC2"/>
<path d="M328.044 22.9287C328.294 22.9287 328.498 22.7286 328.498 22.4834C328.498 22.2428 328.29 22.0381 328.044 22.0381C327.793 22.0381 327.589 22.2382 327.589 22.4834C327.589 22.7328 327.789 22.9287 328.044 22.9287ZM362.931 22.4834C362.931 22.7295 363.134 22.9287 363.385 22.9287C363.64 22.9287 363.84 22.7328 363.84 22.4834C363.84 22.2382 363.636 22.0381 363.385 22.0381C363.14 22.0381 362.931 22.2421 362.931 22.4834ZM335.243 27.4195L335.133 27.7975C337.692 29.7522 341.48 30.9922 345.716 30.9922C349.949 30.9922 353.735 29.7508 356.294 27.7943L356.185 27.4217C353.527 28.7791 349.815 29.5983 345.716 29.5983C341.619 29.5977 337.906 28.7776 335.243 27.4195L335.243 27.4195ZM335.845 15.5033C335.879 17.1194 337.562 18.2198 340.662 18.7292C341.453 16.7498 343.416 15.3418 345.714 15.3418C348.012 15.3418 349.976 16.7498 350.767 18.7292C353.867 18.2205 355.549 17.1224 355.587 15.5158C355.587 15.4473 355.578 15.3891 355.577 15.3212C353.052 13.6632 349.566 12.6365 345.716 12.6365C341.863 12.6365 338.379 13.6626 335.855 15.3192C335.854 15.3839 335.845 15.4386 335.845 15.5033L335.845 15.5033ZM347.725 25.5906C347.103 25.8345 346.424 25.9732 345.715 25.9732C345.004 25.9732 344.326 25.8345 343.704 25.5906C340.478 25.4399 337.272 24.7672 334.809 23.4059C335.256 24.3766 335.5 25.4011 335.5 26.4532C335.5 26.5112 335.492 26.5693 335.475 26.6253L335.423 26.8052C337.975 28.1366 341.634 28.9726 345.716 28.9726C349.792 28.9726 353.453 28.1366 356.005 26.8046L355.954 26.6254C355.937 26.57 355.929 26.5121 355.929 26.4533C355.929 25.3999 356.173 24.3747 356.621 23.4034C354.158 24.7666 350.952 25.4407 347.725 25.5906L347.725 25.5906ZM322.907 46.0307C322.045 45.8219 321.227 45.5606 320.475 45.2533C320.443 45.2401 320.412 45.224 320.384 45.2073C320.377 45.2047 320.37 45.1999 320.364 45.198L320.21 45.4239L317 50.0801C317.314 50.2622 317.645 50.4241 317.986 50.5747C320.084 51.5248 322.756 52.0895 325.678 52.0895C326.503 52.0895 327.31 52.0496 328.09 51.9595L329.431 46.5702C328.959 46.6021 328.479 46.6248 327.992 46.6248C326.206 46.6255 324.495 46.4248 322.907 46.0307L322.907 46.0307ZM325.259 39.9506C324.561 39.7853 323.879 39.5767 323.241 39.3319C323.19 39.3145 323.147 39.2946 323.098 39.2766L323.052 39.3425L319.708 44.2119C320.03 44.3731 320.362 44.5259 320.721 44.6665V44.6765C321.438 44.9699 322.227 45.2219 323.061 45.4246C324.567 45.7985 326.235 45.9999 327.992 45.9999C328.531 45.9999 329.068 45.9799 329.588 45.94L329.723 45.4246L330.464 42.4332C330.49 42.2179 330.517 42.0005 330.557 41.7585C330.623 41.3444 330.706 40.929 330.802 40.5211C330.632 40.5265 330.459 40.5343 330.297 40.5343C328.547 40.5332 326.852 40.3371 325.259 39.9505L325.259 39.9506ZM331.752 37.2344C331.492 37.1717 331.291 36.9638 331.265 36.6958C331.186 35.8965 331.062 35.1318 330.911 34.3824C329.749 34.2991 328.612 34.127 327.528 33.8583C326.952 33.7223 326.447 33.573 326.018 33.4137C325.956 33.3943 325.903 33.3731 325.842 33.3522L322.424 38.3117C322.755 38.473 323.105 38.6144 323.464 38.7457C324.074 38.9777 324.728 39.1798 325.41 39.3417C326.907 39.705 328.557 39.9077 330.296 39.9077C330.521 39.9077 330.74 39.9023 330.963 39.8903C331.107 39.3736 331.273 38.8736 331.46 38.407L331.752 37.2344ZM328.113 28.3277L325.267 32.4625C325.572 32.5945 325.877 32.7158 326.208 32.8165C326.675 32.9886 327.167 33.1299 327.679 33.2505C328.649 33.4899 329.694 33.6579 330.784 33.7457C330.768 33.6743 330.754 33.6003 330.737 33.5324L330.705 33.4024C330.153 31.2366 329.281 29.5365 328.113 28.3277ZM327.775 27.1598C327.92 27.2711 328.054 27.3818 328.188 27.5038V27.5137C329.508 28.7058 330.633 30.5344 331.324 33.251C331.365 33.4231 331.417 33.6043 331.447 33.7963C331.643 34.6551 331.799 35.5943 331.901 36.6351L332.19 35.6351L332.706 33.8265L332.871 33.2512H332.881L334.656 27.1601L334.862 26.4529C334.862 25.1234 334.451 23.8589 333.712 22.7115C332.767 22.0342 331.985 21.2228 331.415 20.2668C330.313 19.4142 328.993 18.6922 327.507 18.15V18.16L322.299 25.4234H322.361C324.144 25.4227 326.104 25.8372 327.775 27.16L327.775 27.1598ZM328.044 21.412C328.641 21.412 329.137 21.8972 329.137 22.4827C329.137 23.0787 328.641 23.5534 328.044 23.5534C327.435 23.5534 326.95 23.0788 326.95 22.4827C326.95 21.8974 327.435 21.412 328.044 21.412ZM371.22 45.4243L371.066 45.1984C371.059 45.2004 371.054 45.2038 371.048 45.2071C371.018 45.2245 370.986 45.2412 370.954 45.2537C370.203 45.561 369.384 45.8223 368.525 46.0311C366.934 46.4252 365.221 46.6257 363.436 46.6257C362.949 46.6257 362.468 46.6031 361.998 46.571L363.339 51.9604C364.119 52.0511 364.926 52.0904 365.751 52.0904C368.673 52.0904 371.344 51.525 373.444 50.5756C373.784 50.4243 374.115 50.2629 374.429 50.081L371.22 45.4243ZM368.368 45.4243C369.202 45.2216 369.991 44.9697 370.707 44.6763V44.6663C371.066 44.5257 371.399 44.3735 371.721 44.2116L368.377 39.3423L368.332 39.2763C368.285 39.2943 368.243 39.3117 368.196 39.3284C367.55 39.5764 366.867 39.785 366.172 39.9491C364.577 40.3375 362.881 40.5337 361.133 40.5337C360.97 40.5337 360.797 40.5256 360.628 40.5204C360.724 40.9284 360.807 41.3425 360.871 41.7563C360.911 41.999 360.939 42.2171 360.965 42.433L361.706 45.4243L361.841 45.9398C362.361 45.9797 362.898 45.9997 363.436 45.9997C365.194 45.9997 366.861 45.7976 368.368 45.4243ZM366.019 39.3432C366.7 39.1819 367.354 38.9792 367.964 38.7472C368.323 38.6159 368.672 38.4747 369.004 38.3132L365.516 33.2518L365.368 33.0346C365.348 33.0406 365.33 33.0487 365.31 33.0539C364.862 33.2192 364.371 33.3646 363.813 33.4972C362.778 33.754 361.695 33.92 360.59 34.0046C360.402 34.8473 360.257 35.7507 360.163 36.6967C360.136 36.964 359.936 37.1726 359.675 37.2353L359.967 38.408C360.155 38.874 360.321 39.3746 360.465 39.892C360.688 39.9046 360.907 39.9094 361.132 39.9094C362.872 39.9085 364.521 39.7064 366.019 39.3432ZM360.728 33.3954L360.692 33.534C360.676 33.6 360.659 33.6708 360.642 33.7474C361.734 33.6601 362.78 33.4919 363.751 33.2521C364.261 33.1308 364.755 32.9895 365.221 32.8181C365.552 32.7174 365.858 32.5961 366.163 32.4642L363.316 28.3302C362.149 29.5373 361.276 31.2365 360.728 33.3954ZM360.003 20.2753C359.436 21.2254 358.659 22.0327 357.72 22.7068C356.98 23.8561 356.568 25.1228 356.568 26.4535L356.774 27.1607L358.549 33.2519H358.559L358.723 33.8272L359.239 35.6358L359.529 36.6358C359.632 35.5952 359.786 34.6557 359.983 33.797C360.013 33.6049 360.064 33.4231 360.106 33.2516C360.797 30.5351 361.922 28.7063 363.241 27.5144V27.5044C363.376 27.3831 363.51 27.2718 363.654 27.1604C365.325 25.8377 367.285 25.423 369.069 25.423H369.131L363.923 18.1597V18.1497C362.431 18.6937 361.108 19.4183 360.003 20.2751L360.003 20.2753ZM364.478 22.4839C364.478 23.0798 363.994 23.5546 363.385 23.5546C362.787 23.5546 362.292 23.08 362.292 22.4839C362.292 21.8986 362.787 21.4131 363.385 21.4131C363.994 21.4125 364.478 21.898 364.478 22.4839ZM349.844 7.6249C351.03 7.84018 356.226 9.14619 356.226 15.5177C356.171 17.8665 353.589 18.8871 350.964 19.3337C351.075 19.7584 351.141 20.2005 351.141 20.659C351.141 22.371 350.307 23.8923 349.02 24.865C353.35 24.447 360.405 22.7877 360.405 16.4172C360.405 9.50603 354.058 8.80213 356.28 0.358756C356.332 0.160839 356.165 -0.0273125 355.958 0.00610432C354.702 0.206844 351.214 1.10355 352.419 4.80668C352.473 4.97205 352.377 5.1474 352.202 5.17604C351.46 5.29735 349.735 5.74938 349.611 7.33728C349.6 7.47486 349.704 7.6003 349.844 7.62547L349.844 7.6249ZM342.408 24.8644C341.121 23.8918 340.287 22.3705 340.287 20.6585C340.287 20.1997 340.352 19.7579 340.465 19.3332C337.837 18.8872 335.257 17.8666 335.206 15.5172C335.206 9.14436 340.396 7.83935 341.58 7.62435C341.719 7.59896 341.823 7.47439 341.814 7.33637C341.698 5.74825 339.966 5.29514 339.224 5.17447C339.049 5.14582 338.952 4.97047 339.006 4.80446C340.217 1.10177 336.731 0.204378 335.474 0.00387674C335.268 -0.0295434 335.101 0.158611 335.153 0.356528C337.376 8.7999 331.019 9.5038 331.019 16.4149C331.018 22.7861 338.074 24.445 342.408 24.8639L342.408 24.8644ZM350.502 20.6585C350.502 18.0684 348.358 15.9683 345.714 15.9683C343.069 15.9683 340.925 18.0684 340.925 20.6585C340.925 23.2485 343.069 25.3486 345.714 25.3486C348.359 25.348 350.502 23.2485 350.502 20.6585ZM342.755 20.6585C342.755 19.061 344.083 17.7611 345.714 17.7611C347.346 17.7611 348.673 19.0604 348.673 20.6585C348.673 22.2565 347.346 23.5558 345.714 23.5558C344.083 23.5558 342.755 22.2559 342.755 20.6585ZM348.034 20.6585C348.034 19.403 346.995 18.3872 345.714 18.3872C344.433 18.3872 343.394 19.4032 343.394 20.6585C343.394 21.9133 344.433 22.9298 345.714 22.9298C346.995 22.9298 348.034 21.9133 348.034 20.6585ZM357.229 36.0602C357.201 36.0602 357.173 36.0615 357.146 36.065C357.156 36.065 357.047 37.4396 357.017 37.5956C356.947 37.9376 356.81 38.4695 356.369 38.4695C356.361 38.4695 356.353 38.4689 356.345 38.4682C355.903 38.4495 355.467 38.0735 355.127 37.8343C354.563 37.437 354.003 37.0322 353.384 36.7182C352.705 36.3736 351.962 36.1442 351.193 36.1442C351.173 36.1442 351.153 36.1442 351.132 36.1455C350.686 36.1522 350.243 36.2369 349.822 36.3823C349.581 36.4662 349.348 36.5682 349.122 36.6876C349.098 36.7008 349.051 36.7304 348.996 36.7655C349.017 36.7748 349.034 36.7935 349.056 36.7935C350.556 36.8161 351.726 37.6481 351.971 38.8642C352.175 39.8775 351.687 41.2562 349.706 42.0876C349.665 42.1049 349.622 42.113 349.58 42.113C349.456 42.113 349.339 42.0422 349.286 41.9244C349.217 41.7657 349.293 41.5804 349.454 41.5131C351.084 40.8304 351.499 39.7599 351.343 38.9858C351.189 38.2217 350.42 37.4398 349.049 37.4185C348.823 37.4185 348.602 37.3204 348.447 37.1492C348.426 37.1266 348.413 37.0993 348.401 37.0719C348.399 37.0713 348.394 37.0713 348.392 37.07C348.26 36.9406 348.164 36.7779 348.018 36.662C347.869 36.5446 347.691 36.4547 347.516 36.3846C346.945 36.1553 346.322 36.1034 345.713 36.0654C345.633 36.0606 345.55 36.0587 345.466 36.0587C344.722 36.0587 343.842 36.2534 343.297 36.7247C343.225 36.7868 343.133 36.9413 343.048 37.0088C343.036 37.0587 343.017 37.1075 342.979 37.1494C342.824 37.3208 342.602 37.4187 342.372 37.4187C341.005 37.4393 340.237 38.2214 340.083 38.986C339.927 39.7601 340.342 40.8293 341.973 41.5133C342.135 41.5813 342.21 41.7659 342.14 41.9246C342.089 42.0426 341.971 42.1132 341.847 42.1132C341.805 42.1132 341.762 42.1051 341.721 42.0878C339.74 41.2564 339.253 39.8777 339.457 38.8644C339.701 37.6485 340.872 36.8165 342.367 36.7937C342.393 36.7937 342.412 36.7737 342.435 36.7637C342.379 36.7325 342.325 36.6978 342.268 36.6685C341.997 36.5285 341.714 36.4105 341.421 36.3219C341.032 36.2045 340.633 36.1479 340.234 36.1479C339.804 36.1479 339.374 36.2145 338.957 36.3425C338.248 36.5613 337.602 36.9365 336.993 37.3493C336.515 37.6726 336.061 38.0539 335.546 38.3174C335.389 38.3994 335.219 38.4593 335.061 38.4593C334.901 38.4593 334.751 38.3959 334.636 38.2247C334.487 38.0033 334.431 37.718 334.388 37.4606C334.365 37.3213 334.279 36.0645 334.282 36.0645C334.254 36.0613 334.228 36.0597 334.2 36.0597C333.135 36.0597 331.72 38.5044 331.187 41.8542C330.807 44.185 331.086 44.9076 332.192 45.7716C332.572 46.0669 333.097 46.2863 333.745 46.5496C336.036 47.4997 335.082 54.3468 342.43 58.5207C342.275 58.1334 342.192 57.7121 342.192 57.2762C342.192 56.6462 342.373 56.0381 342.712 55.5201C342.808 55.3741 343.006 55.3322 343.153 55.4255C343.302 55.5182 343.345 55.7128 343.249 55.8569C343.166 55.9843 343.098 56.121 343.039 56.2604C342.905 56.5783 342.831 56.9196 342.831 57.2751C342.831 57.8359 342.998 58.3585 343.299 58.7945C343.377 58.9071 343.463 59.0139 343.559 59.1137C344.117 59.6612 344.877 60 345.714 60C346.552 60 347.313 59.6606 347.86 59.1239C347.861 59.1239 347.861 59.1239 347.863 59.1226C347.961 59.0219 348.049 58.9125 348.129 58.7966C348.43 58.3619 348.597 57.8378 348.597 57.2773C348.597 56.922 348.523 56.58 348.389 56.2625C348.329 56.1225 348.262 55.9865 348.179 55.8591C348.083 55.7137 348.126 55.5197 348.275 55.4276C348.422 55.3337 348.622 55.3771 348.716 55.5223C349.056 56.0396 349.236 56.6477 349.236 57.2783C349.236 57.7163 349.153 58.139 348.997 58.5277C356.345 54.3449 355.392 47.5004 357.683 46.5515C358.33 46.2883 358.856 46.0689 359.236 45.7735C360.342 44.9095 360.622 44.1869 360.242 41.8561C359.708 38.5043 358.293 36.0594 357.229 36.0594L357.229 36.0602ZM341.624 40.6622C341.557 40.3222 341.78 39.9836 342.126 39.9183C342.183 39.907 342.227 39.8964 342.272 39.8964L342.395 39.9077C342.908 39.9189 343.467 40.323 343.646 40.6631C343.859 41.0132 343.971 41.287 344.138 41.5271C344.396 41.899 344.812 42.1525 345.247 42.2783C345.405 42.3237 345.569 42.3497 345.733 42.3484C345.967 42.3465 346.197 42.2877 346.412 42.1991C346.613 42.1158 346.844 42.009 347.001 41.8571C347.044 41.815 347.091 41.777 347.131 41.7317C347.19 41.6677 347.243 41.5997 347.287 41.5257C347.456 41.2857 347.567 41.0116 347.78 40.6618C347.959 40.3217 348.517 39.9178 349.031 39.9063L349.155 39.8951C349.512 39.8951 349.803 40.1685 349.815 40.5189C349.826 40.869 349.536 41.165 349.178 41.1756C349.133 41.1756 349.076 41.1643 349.032 41.1643C348.864 41.1209 348.787 41.0984 348.563 41.285C348.35 41.4603 348.126 41.767 347.826 42.0077C347.453 42.3037 346.992 42.5231 346.508 42.5498C346.282 42.563 346.054 42.5465 345.828 42.545C345.431 42.5417 345.034 42.5743 344.64 42.5103C344.271 42.4343 343.903 42.2577 343.601 42.007C343.3 41.7663 343.076 41.4597 342.864 41.2843C342.641 41.0984 342.562 41.1203 342.394 41.1637C342.037 41.2323 341.691 41.0129 341.624 40.6622L341.624 40.6622ZM357.126 45.001C355.938 46.0484 354.798 48.0963 354.197 49.2823C354.17 49.819 354.067 50.3316 353.866 50.7756C353.726 51.1408 353.361 51.3856 352.954 51.3856C352.884 51.3856 352.821 51.3589 352.754 51.345C352.687 51.3383 352.619 51.3309 352.556 51.3044C351.892 51.0216 351.153 50.7858 350.353 50.5965C350.34 50.5939 350.33 50.5904 350.317 50.5872C350.105 50.5379 349.883 50.4945 349.662 50.4505C348.432 50.2146 347.096 50.0859 345.714 50.0859C344.414 50.0859 343.145 50.1966 341.941 50.4144C340.803 50.6232 339.77 50.9225 338.872 51.3038C338.8 51.3344 338.723 51.3459 338.646 51.3491C338.588 51.3591 338.533 51.3845 338.474 51.3845C338.068 51.3845 337.702 51.1399 337.578 50.8131C337.358 50.3366 337.251 49.817 337.227 49.2745C336.626 48.0898 335.488 46.0458 334.299 44.9984C334.048 44.7751 333.957 44.4331 334.065 44.1278C334.167 43.8398 334.434 43.6384 334.747 43.6071C334.909 43.5865 335.078 43.5752 335.249 43.5752C336.498 43.5752 338.407 44.1152 340.469 46.6186C342.037 46.9919 343.841 47.192 345.714 47.192C347.565 47.192 349.375 46.9912 350.953 46.6247C353.017 44.1147 354.927 43.5748 356.179 43.5748C356.35 43.5748 356.518 43.5861 356.68 43.6067C356.994 43.6379 357.26 43.84 357.362 44.1273C357.472 44.4344 357.38 44.7764 357.126 45.001ZM345.714 47.8196C344.041 47.8196 342.466 47.6616 341.061 47.3862C341.493 47.9889 341.924 48.6762 342.351 49.4476C342.409 49.5277 342.442 49.621 342.456 49.717C343.488 49.5629 344.569 49.4615 345.714 49.4615C346.855 49.4615 347.948 49.5488 348.974 49.7015C348.989 49.6128 349.021 49.5262 349.074 49.4509C349.074 49.4502 349.074 49.4489 349.076 49.4483C349.494 48.6889 349.926 48.0017 350.362 47.3949C348.956 47.6657 347.382 47.8196 345.714 47.8196ZM340.115 47.1857C338.106 44.6597 336.29 44.2018 335.249 44.2018C335.086 44.2018 334.941 44.2137 334.818 44.2298C334.651 44.241 334.606 44.4264 334.729 44.5364C335.959 45.6197 337.121 47.6445 337.847 49.0898C338.328 50.0412 338.618 50.7304 338.618 50.7304C339.545 50.3372 340.629 50.0197 341.825 49.8005C341.814 49.7886 341.802 49.7665 341.791 49.7458C341.222 48.717 340.663 47.8749 340.115 47.1857ZM356.61 44.2304C356.486 44.2144 356.342 44.2024 356.179 44.2024C355.139 44.2024 353.322 44.6603 351.313 47.1864C350.766 47.875 350.207 48.7176 349.636 49.7472C349.625 49.7678 349.615 49.7899 349.603 49.8019C350.799 50.0206 351.883 50.3386 352.81 50.7318C352.81 50.7318 353.101 50.0425 353.582 49.0911C354.307 47.6458 355.469 45.6211 356.699 44.5377C356.821 44.4271 356.777 44.2411 356.61 44.2304Z" fill="#90CAC2"/>
<path fill-rule="evenodd" clip-rule="evenodd" d="M22.5839 54.363C16.0478 51.0697 11.591 44.7206 10.7159 37.4534H7.42252C8.34327 46.1992 13.7611 53.8324 21.7166 57.5816V57.3547C21.6259 56.2845 21.9381 55.217 22.592 54.363L22.5839 54.363ZM32.4291 12.0439C35.2768 12.0439 38.0097 13.1755 40.0243 15.1905C42.0366 17.2054 43.1681 19.9356 43.1681 22.7856C43.1681 25.6332 42.0366 28.3661 40.0243 30.3784C38.0093 32.3934 35.2764 33.525 32.4291 33.525C29.5819 33.525 26.8486 32.3934 24.834 30.3784C22.8217 28.3661 21.6901 25.6332 21.6901 22.7856C21.6901 19.9353 22.8217 17.205 24.834 15.1905C26.849 13.1755 29.5819 12.0439 32.4291 12.0439ZM32.4291 15.7322V15.7349C29.0691 15.7429 26.1839 18.1261 25.5355 21.4248C24.8896 24.7208 26.6644 28.0168 29.7709 29.2927C32.8801 30.571 36.4562 29.4741 38.3168 26.6772C40.177 23.8776 39.8007 20.1547 37.4174 17.7845C36.091 16.4688 34.2976 15.7295 32.4294 15.7349L32.4291 15.7322ZM36.3042 18.9081V18.9108C34.4627 17.0639 31.5751 16.773 29.4049 18.2142C27.2325 19.658 26.3811 22.4336 27.3739 24.8437C28.364 27.2563 30.9208 28.6334 33.4773 28.1317C36.0367 27.63 37.8862 25.3935 37.8942 22.786C37.8942 21.3315 37.3177 19.9384 36.2876 18.9109L36.3042 18.9081ZM41.5778 57.1683V57.171C41.6179 57.8969 41.3617 58.6069 40.8706 59.1406C40.3769 59.6744 39.6883 59.9839 38.9597 60H25.8989C24.4257 59.8746 23.2968 58.6443 23.2968 57.1684C23.2968 55.6925 24.4257 54.4622 25.8989 54.3368H38.9597C39.6883 54.3528 40.3796 54.6624 40.8733 55.1988C41.3643 55.7326 41.6205 56.4452 41.5778 57.1711V57.1683ZM28.6502 0C27.0783 0 25.8025 1.27568 25.8025 2.85028V12.4153C27.7801 11.1476 30.0807 10.4751 32.4292 10.4751C34.7777 10.4751 37.0783 11.1476 39.0558 12.4153V2.85028C39.0558 1.27568 37.7802 0 36.2082 0H28.6502ZM2.31438 29.3038C1.95676 29.3038 1.61248 29.4479 1.36692 29.7068C1.11872 29.9657 0.985282 30.3127 1.00129 30.6703V34.5988C1.00396 35.322 1.59108 35.9065 2.31432 35.9118H62.5458C62.898 35.9091 63.237 35.765 63.4825 35.5142C63.728 35.2633 63.8642 34.9244 63.8588 34.5721V30.6702C63.8748 30.3126 63.7414 29.9657 63.4932 29.7068C63.2477 29.4479 62.9034 29.3038 62.5457 29.3038H42.8582C40.6084 32.8961 36.6694 35.0793 32.4312 35.0793C28.1929 35.0793 24.2536 32.8962 22.0041 29.3038L2.31438 29.3038ZM54.1428 37.4546C53.2674 44.7218 48.8105 51.0712 42.2747 54.3643C42.9259 55.2183 43.2382 56.2859 43.1501 57.3561V57.5829C51.1005 53.8306 56.5178 46.2005 57.4362 37.4547L54.1428 37.4546ZM40.6282 3.14395V13.5898C42.5711 15.3219 43.9135 17.6251 44.4632 20.1686C45.013 22.7147 44.7435 25.3675 43.6893 27.7455H53.2543V25.4023C53.257 23.8117 54.5461 22.5227 56.1367 22.52H59.027C57.5325 16.7286 54.1911 11.5856 49.5098 7.8655L47.3026 17.7642C47.2092 18.1859 46.7956 18.4528 46.3739 18.3593C45.9522 18.2659 45.688 17.8496 45.7788 17.4306L48.1433 6.83276C45.8428 5.22611 43.3074 3.98248 40.6279 3.14446L40.6282 3.14395ZM21.1701 27.7398C20.1185 25.3593 19.849 22.7091 20.3988 20.1658C20.9486 17.6251 22.291 15.3219 24.2312 13.5898V3.14395C21.5517 3.98197 19.0163 5.2256 16.7158 6.83225L19.067 17.4301C19.1578 17.8491 18.8935 18.2655 18.4719 18.3588C18.0502 18.4522 17.6339 18.1854 17.5432 17.7637L15.3494 7.86499C10.6683 11.5827 7.33239 16.7286 5.84582 22.5195H8.73618C10.3268 22.5221 11.6158 23.8112 11.6185 25.4018V27.7584L21.1701 27.7398ZM60.4631 27.7398H54.8133V25.402C54.8159 24.6787 55.4004 24.0942 56.1237 24.0916H59.1501C59.8653 24.1049 60.4392 24.6867 60.4418 25.402V27.7586L60.4631 27.7398ZM10.049 27.7398H4.41778V25.402C4.42045 24.6787 5.00757 24.0942 5.73081 24.0916H8.75724C9.47781 24.0942 10.065 24.6787 10.0677 25.402L10.049 27.7398Z" fill="#90CAC2"/>
<path d="M44.7886 136.679L63.8604 145.871L62.0858 147.646L46.7092 140.282L44.7886 136.679Z" fill="#90CAC2"/>
<path d="M13.3744 140.023L27.0655 142.538C33.234 143.668 39.1247 145.975 44.4214 149.339C43.5148 148.888 42.5967 148.46 41.6669 148.055H41.6631C38.4303 146.662 35.0625 145.593 31.6178 144.864L12.225 140.756C11.0715 139.946 10.0454 138.974 9.17354 137.863C8.51387 137.072 7.9082 136.235 7.36043 135.359L12.9348 139.818C13.0621 139.923 13.2164 139.992 13.3746 140.023L13.3744 140.023Z" fill="#90CAC2"/>
<path d="M52.523 145.285L53.7305 149.012V153.456L48.2988 143.26L52.523 145.285Z" fill="#90CAC2"/>
<path d="M55.7329 154V148.854C55.7329 148.75 55.7175 148.646 55.6828 148.545L55.0115 146.478L60.5859 149.143L55.7329 154Z" fill="#90CAC2"/>
<path d="M24.5855 111.201L63.9998 122.246V123.554L29.6773 113.736L29.6464 113.728L28.1149 113.289C27.7754 113.192 27.4128 113.281 27.1543 113.52C26.8997 113.759 26.7878 114.118 26.8611 114.461L29.1333 125.093H29.1295C29.195 125.394 29.3956 125.649 29.6734 125.784L64 142.33V143.719L27.8801 126.309L24.5855 111.201Z" fill="#90CAC2"/>
<path d="M8.58754 103.803L12.4491 121.124L8.76498 119.423L6.03753 107.433V107.402C5.99124 107.117 5.82535 106.866 5.57846 106.712L5.5476 106.692L0.559582 103.838L9.5482 99.6367C9.94168 99.4515 10.3429 99.2702 10.7441 99.0889L12.5225 99.9067L8.94249 102.808H8.93477C8.64158 103.047 8.50656 103.433 8.58757 103.803L8.58754 103.803Z" fill="#90CAC2"/>
<path d="M4.60129 110.156L6.91979 120.348C6.98923 120.653 7.19369 120.907 7.47531 121.039L13.4432 123.789V123.793C13.7904 123.951 14.1955 123.901 14.4925 123.662C14.7896 123.423 14.9246 123.037 14.8397 122.663L10.6734 103.976L15.0172 100.454C15.2872 100.234 15.4261 99.8946 15.3837 99.5512C15.3412 99.2079 15.1213 98.9109 14.8089 98.7681L13.2079 98.0313C14.3151 97.5761 15.4338 97.144 16.5487 96.7467C21.0044 95.138 24.5844 94 30.1123 94C30.5752 94 31.0498 94.0116 31.5242 94.0347H31.5744C40.312 94.0347 47.6266 96.577 53.362 101.604L48.5977 101.38H48.59C48.1425 101.357 47.7336 101.638 47.5946 102.063C47.4519 102.491 47.6139 102.958 47.9843 103.208C50.1021 104.709 52.1082 106.356 53.9869 108.146C57.7328 111.611 60.9347 115.619 63.4883 120.032L23.5218 108.824C23.1823 108.732 22.8197 108.821 22.5651 109.06C22.3104 109.303 22.1986 109.658 22.2719 110.001L26.0254 127.206C26.091 127.511 26.2916 127.766 26.5694 127.897L41.7336 135.203L50.147 150.993C43.558 145.677 35.7497 142.093 27.4244 140.565L13.9843 138.096L5.21214 131.079C4.8418 130.138 4.51775 129.181 4.24382 128.205C3.16752 124.39 1.69767 117.16 3.94677 111.605C4.17437 111.049 4.39427 110.567 4.59873 110.154L4.60129 110.156ZM22.3086 129.819L32.9407 135.999C33.176 136.126 33.4731 136.042 33.6081 135.806C33.747 135.575 33.6698 135.274 33.4422 135.131L22.9994 129.067L18.2466 107.537C18.2196 107.409 18.1386 107.294 18.0268 107.224C17.9149 107.151 17.7799 107.128 17.6526 107.159C17.3825 107.216 17.2128 107.483 17.2706 107.753L22.0696 129.499C22.1005 129.634 22.1853 129.75 22.3088 129.819L22.3086 129.819ZM18.5974 129.028L20.5378 129.209L19.1915 123.218L17.2511 123.037L18.5974 129.028Z" fill="#90CAC2"/>
<path d="M55.3355 106.657C53.9853 105.388 52.7508 104.334 51.7401 103.521L55.5361 103.698L55.5592 103.725L55.756 103.937L55.8871 104.08L56.0761 104.288L56.2073 104.435C56.269 104.504 56.3269 104.574 56.3886 104.643C56.4311 104.693 56.4735 104.743 56.5159 104.794L56.6895 105.002C56.732 105.052 56.7744 105.102 56.8168 105.152L56.9866 105.361L57.11 105.511C57.164 105.581 57.2219 105.65 57.2721 105.719L57.3916 105.874C57.4457 105.943 57.4997 106.013 57.5498 106.078L57.6694 106.232L57.8237 106.441L57.9394 106.595L58.0899 106.8L58.2018 106.954L58.3484 107.158L58.4564 107.313C58.5027 107.378 58.5528 107.448 58.5991 107.517L58.7033 107.671L58.8421 107.876C58.8769 107.926 58.9116 107.976 58.9425 108.026C58.9887 108.096 59.0312 108.161 59.0775 108.231C59.1122 108.281 59.143 108.331 59.1778 108.381L59.3089 108.586C59.3398 108.636 59.3707 108.686 59.4092 108.732L59.5366 108.941L59.6253 109.083L59.7526 109.292L59.8375 109.434C59.8799 109.504 59.9223 109.573 59.9609 109.643L60.0265 109.774L60.1461 109.982C60.1731 110.028 60.1962 110.071 60.2232 110.117L60.3428 110.325L60.4122 110.453C60.4508 110.522 60.4894 110.592 60.528 110.665L60.5936 110.788C60.6321 110.858 60.6707 110.931 60.7093 111.001L60.771 111.116L60.8829 111.332L60.9369 111.44C60.9755 111.514 61.0141 111.587 61.0488 111.66L61.0989 111.761C61.1375 111.834 61.1761 111.911 61.2108 111.984L61.2532 112.069C61.2918 112.146 61.3304 112.224 61.3651 112.301L61.396 112.366L61.5117 112.609L61.5348 112.656C61.5773 112.744 61.6159 112.829 61.6544 112.914L61.6621 112.929C61.8898 113.423 62.0904 113.886 62.2717 114.322L62.399 114.635L62.4028 114.627C60.2965 111.757 57.9318 109.091 55.3355 106.657Z" fill="#90CAC2"/>
<path d="M29.1648 115.673L64 125.638V140.107L30.9893 124.191L29.1648 115.673ZM33.1923 121.799C34.0063 121.799 34.7431 121.309 35.0556 120.553C35.3681 119.801 35.1945 118.933 34.6197 118.354C34.041 117.779 33.173 117.606 32.4169 117.918C31.6646 118.231 31.1708 118.967 31.1708 119.781C31.1747 120.896 32.0775 121.799 33.1923 121.799Z" fill="#90CAC2"/>
<path d="M32.1736 119.781C32.1736 121.139 34.2104 121.139 34.2104 119.781C34.2104 118.423 32.1736 118.423 32.1736 119.781Z" fill="#90CAC2"/>
<path fill-rule="evenodd" clip-rule="evenodd" d="M125.788 153.975C125.137 153.975 121.514 154.069 121.182 153.891C120.486 153.518 114.425 150.039 115.21 142.401C115.21 138.547 115.083 136.052 114.964 133.639C114.849 131.362 114.732 129.012 114.718 125.523H128.705V132.91H122.674L123.196 134.222C123.674 134.946 126.488 137.046 126.488 137.781V153.273C126.488 153.662 126.174 153.976 125.785 153.976L125.788 153.975ZM118.705 130.874C115.603 130.874 115.603 126.158 118.705 126.158C121.807 126.158 121.807 130.874 118.705 130.874ZM118.705 127.563C117.454 127.563 117.451 129.466 118.705 129.466C119.958 129.466 119.958 127.563 118.705 127.563ZM124.738 130.874C121.634 130.874 121.636 126.158 124.738 126.158C127.84 126.158 127.84 130.874 124.738 130.874ZM124.738 127.563C123.487 127.563 123.485 129.466 124.738 129.466C125.992 129.466 125.992 127.563 124.738 127.563Z" fill="#90CAC2"/>
<path fill-rule="evenodd" clip-rule="evenodd" d="M148.724 153.976H144.45C144.061 153.976 143.747 153.659 143.747 153.273V137.781C143.747 137.048 146.559 134.949 147.039 134.222L147.562 132.91H141.531V125.523H155.52C155.506 129.01 155.389 131.36 155.274 133.637C155.155 136.05 155.028 138.543 155.028 142.399C155.811 150.037 149.752 153.516 149.056 153.888C148.956 153.945 148.841 153.973 148.726 153.973L148.724 153.976ZM145.49 130.874C142.386 130.874 142.386 126.158 145.49 126.158C148.592 126.158 148.592 130.874 145.49 130.874ZM145.49 127.564C144.239 127.564 144.237 129.466 145.49 129.466C146.744 129.466 146.742 127.564 145.49 127.564ZM151.524 130.874C148.422 130.874 148.422 126.158 151.524 126.158C154.628 126.158 154.628 130.874 151.524 130.874ZM151.524 127.564C150.273 127.564 150.27 129.466 151.524 129.466C152.777 129.466 152.775 127.564 151.524 127.564Z" fill="#90CAC2"/>
<path fill-rule="evenodd" clip-rule="evenodd" d="M114.732 124.12C115.037 115.824 120.719 108.512 128.708 105.92V124.12H114.732ZM119.343 122.011C118.891 122.011 118.554 121.59 118.659 121.147C119.73 116.611 122.759 112.717 126.969 110.459C127.785 110.02 128.448 111.26 127.632 111.698C123.776 113.764 121.002 117.326 120.024 121.471C119.947 121.794 119.659 122.012 119.34 122.012L119.343 122.011Z" fill="#90CAC2"/>
<path fill-rule="evenodd" clip-rule="evenodd" d="M141.529 105.92C149.525 108.516 155.214 115.856 155.516 124.12H141.529V105.92ZM150.894 122.011C150.575 122.011 150.287 121.793 150.21 121.47C149.233 117.328 146.459 113.764 142.602 111.697C141.787 111.259 142.452 110.02 143.265 110.458C147.478 112.714 150.507 116.611 151.575 121.146C151.681 121.589 151.343 122.011 150.891 122.011L150.894 122.011Z" fill="#90CAC2"/>
<path fill-rule="evenodd" clip-rule="evenodd" d="M135.044 144.569C134.786 144.569 134.547 144.426 134.425 144.199C133.914 143.248 130.114 136.435 130.114 136.013V103.582C130.114 103.193 130.428 102.879 130.817 102.879H139.423C139.812 102.879 140.126 103.193 140.126 103.582V136.013C140.126 136.442 136.187 143.252 135.658 144.208C135.536 144.431 135.299 144.569 135.044 144.569L135.044 144.569ZM135.121 111.979C132.019 111.979 132.019 107.265 135.121 107.265C138.223 107.265 138.223 111.979 135.121 111.979ZM135.121 108.671C133.868 108.671 133.868 110.573 135.121 110.573C136.372 110.573 136.372 108.671 135.121 108.671ZM135.121 118.012C132.019 118.012 132.019 113.298 135.121 113.298C138.223 113.298 138.223 118.012 135.121 118.012ZM135.121 114.702C133.868 114.702 133.868 116.604 135.121 116.604C136.372 116.604 136.372 114.702 135.121 114.702ZM135.121 124.064C132.019 124.064 132.019 119.35 135.121 119.35C138.223 119.35 138.223 124.064 135.121 124.064ZM135.121 120.756C133.868 120.756 133.868 122.658 135.121 122.658C136.372 122.658 136.372 120.756 135.121 120.756ZM135.121 130.118C132.019 130.118 132.019 125.404 135.121 125.404C138.223 125.404 138.223 130.118 135.121 130.118ZM135.121 126.807C133.868 126.807 133.868 128.71 135.121 128.71C136.375 128.71 136.375 126.807 135.121 126.807ZM135.121 137.81C134.899 137.81 134.69 137.704 134.556 137.526L132.549 134.818C132.363 134.57 132.363 134.23 132.549 133.981C135.512 129.987 134.73 129.977 137.696 133.981C137.881 134.23 137.881 134.57 137.696 134.818L135.688 137.526C135.557 137.704 135.346 137.81 135.123 137.81H135.121ZM133.987 134.399L135.121 135.926L136.255 134.396L135.121 132.866L133.987 134.396V134.399Z" fill="#90CAC2"/>
<path fill-rule="evenodd" clip-rule="evenodd" d="M113.91 119.909C110.372 116.822 105.945 109.615 111.98 94.4395C112.268 93.7178 113.35 93.9381 113.336 94.7136C113.334 94.8096 113.245 103.785 120.042 109.467C117.064 112.274 114.899 115.892 113.913 119.907L113.91 119.909Z" fill="#90CAC2"/>
<path fill-rule="evenodd" clip-rule="evenodd" d="M150.197 109.472C157.013 103.781 156.905 94.814 156.903 94.716C156.887 93.9405 157.971 93.7179 158.259 94.4419C164.288 109.605 159.871 116.812 156.336 119.902C155.345 115.891 153.175 112.276 150.198 109.469L150.197 109.472Z" fill="#90CAC2"/>
<path d="M266.441 108.327L260.784 105.528C258.955 104.749 256.868 104.389 255.112 104.029C248.735 102.721 240.58 103.287 236.055 108.18C236.114 108.129 236.003 108.239 236.055 108.18C232 111.949 230.567 118.091 229.737 124.394C229.553 125.805 228.686 126.753 228.51 127.385C227.584 130.83 228.084 133.218 229.751 138.067C230.258 139.551 230.787 141.057 231.066 142.6C231.346 144.142 231.522 145.266 230.589 146.53C230.905 144.429 230.324 142.93 229.296 140.587C228.436 138.64 227.195 137.259 226.217 135.378C223.455 130.081 221.699 123.792 222.287 117.849C222.787 112.816 224.263 107.754 227.415 103.794C230.677 99.6947 235.511 97.0793 240.536 95.5806C252.122 92.1277 265.273 94.4197 275 101.598C274.603 101.311 271.29 103.919 270.922 104.184C269.174 105.44 267.94 106.769 266.456 108.327" fill="#90CAC2"/>
<path d="M249.594 133.328C249.345 133.291 248.933 133.233 248.698 133.137C248.698 133.137 248.125 132.872 247.625 131.734C246.707 129.647 246.729 125.614 249.822 125.842C250.637 125.9 251.387 126.165 251.754 126.9C252.173 127.73 252.019 128.648 251.651 129.456C251.6 129.574 251.159 130.61 251.115 130.602C253.076 130.242 255.053 130.095 257.014 129.743C259.593 129.273 262.216 128.788 264.53 127.502C266.455 126.437 268.152 125.754 270.106 124.732L268.842 131.756L268.975 132.402C268.607 132.461 268.24 132.52 267.872 132.579C266.932 132.725 265.992 132.865 265.044 132.997C263.766 133.174 262.48 133.335 261.194 133.482C259.813 133.637 258.425 133.769 257.036 133.857C255.787 133.938 254.531 133.989 253.274 133.945C252.789 133.931 252.305 133.887 251.827 133.835" fill="#90CAC2"/>
<path d="M267.955 123.3C267.955 123.3 264.208 127.076 254.304 128.619C254.304 128.619 254.988 124.563 250.859 123.748C246.48 122.888 243.203 127.612 246.458 133.607C246.458 133.607 244.717 132.77 243.806 143.011C243.806 143.011 245.092 144.451 235.085 143.54C235.085 143.54 240.544 139.448 239.486 137.626C239.486 137.626 239.574 137.082 238.898 136.384C238.222 135.686 233.535 129.941 235.614 124.85C237.693 119.766 239.589 112.03 250.418 111.721C261.247 111.413 266.353 120.339 267.954 123.292L267.955 123.3Z" fill="#90CAC2"/>
<path d="M262.878 143.151C262.937 143.232 262.915 143.416 262.915 143.511C262.922 143.673 262.929 143.834 262.937 143.996C262.951 144.305 262.959 144.613 262.966 144.922C262.981 145.928 262.959 146.942 262.885 147.949C262.797 149.154 262.635 150.358 262.371 151.534C262.224 152.166 262.048 152.79 261.827 153.393C261.827 153.393 259.697 154.987 256.501 153.011C253.305 151.034 252.152 147.28 252.152 147.28L253.004 139.39L258.477 139.47C258.477 139.47 258.639 139.706 258.661 139.728C258.837 139.963 259.028 140.19 259.227 140.411C259.924 141.175 260.733 141.843 261.607 142.402C261.982 142.644 262.371 142.857 262.768 143.063C262.805 143.085 262.849 143.107 262.871 143.144L262.878 143.151Z" fill="#90CAC2"/>
<path d="M257.985 135.965L258 137.618L253.202 137.552L253.29 135.972L257.985 135.965Z" fill="#90CAC2"/>
<path d="M258 137.619C258 137.619 258 138.515 258.492 139.485C258.984 140.455 252.953 139.654 252.953 139.654L253.202 137.553" fill="#90CAC2"/>
<path d="M266.926 111.2L264.597 114.212C264.597 114.212 259.08 109.282 252.196 108.797C250.418 108.672 248.288 108.79 246.407 109.363C241.161 110.957 236.643 113.183 233.425 126.201L231.713 125.584C231.713 125.584 231.684 109.385 244.592 106.74C249.691 105.697 257.17 105.528 266.926 111.192L266.926 111.2Z" fill="#90CAC2"/>
<path d="M339.181 103.501C338.986 103.218 338.923 102.867 339.009 102.534C339.096 102.196 339.326 101.915 339.64 101.762L342.646 100.3C342.839 100.205 343.059 100.167 343.269 100.185L346.54 100.475C346.876 100.504 347.173 100.668 347.378 100.936C347.563 101.177 347.64 101.469 347.612 101.768C347.585 101.768 347.558 101.766 347.53 101.766C344.564 101.766 341.742 102.387 339.181 103.501L339.181 103.501Z" fill="#90CAC2"/>
<path d="M366.188 124.03L364.78 124.636L367.26 130.407C365.938 130.864 364.396 131.286 362.664 131.586L360.565 126.16L359.136 126.714L361.108 131.815C359.669 131.987 358.119 132.066 356.47 132.007L354.629 127.321L353.203 127.882L354.779 131.896C352.739 131.711 350.567 131.307 348.286 130.614C348.288 130.536 348.298 130.459 348.298 130.381C348.298 128.867 347.795 127.472 346.957 126.34C350.936 126.098 360.974 124.998 368.603 120.006L372.112 128.173C371.494 128.552 370.326 129.205 368.697 129.867L366.188 124.03Z" fill="#90CAC2"/>
<path d="M348.057 132.146C350.432 132.853 352.688 133.266 354.803 133.456L353.213 137.097L354.618 137.711L356.428 133.566C356.849 133.582 357.264 133.591 357.673 133.591C358.828 133.591 359.931 133.526 360.98 133.414L358.762 139L360.186 139.565L362.723 133.178C364.323 132.915 365.764 132.546 367.042 132.137L364.159 140.459L365.607 140.961L368.893 131.48C369.964 131.057 370.869 130.627 371.583 130.25L366.907 142.721C364.115 142.682 350.831 142.175 344.986 136.215C346.477 135.316 347.594 133.866 348.057 132.147L348.057 132.146Z" fill="#90CAC2"/>
<path d="M321.671 112.471C322.539 112.471 323.264 112.293 323.836 112.067C326.05 111.189 327.739 108.967 328.591 105.808C329.801 101.326 330.756 99.8567 330.765 99.8423L329.497 98.9812C329.453 99.0457 328.408 100.606 327.111 105.409C326.436 107.913 325.138 109.744 323.532 110.512C325.017 109.268 325.845 107.083 325.988 103.992C326.143 100.622 327.663 97.6526 330.158 95.8448C330.239 95.7864 330.321 95.7292 330.404 95.6726C333.918 93.2931 338.003 93.8871 340.808 94.8041C342.562 95.3771 344.57 96.4077 344.941 97.5816C345.06 97.9557 344.995 98.3507 344.757 98.7782L343.407 98.6585C343.101 98.6322 342.797 98.663 342.503 98.7369C341.248 97.6351 336.959 94.5972 330.789 97.9494L331.521 99.296C336.2 96.7542 339.499 98.3707 340.939 99.4269L339.234 100.256C338.448 100.059 336.363 99.7159 334.256 100.887C332.09 102.091 330.593 104.492 329.807 108.021L331.302 108.354C331.99 105.27 333.234 103.209 335.001 102.227C335.995 101.673 336.987 101.56 337.742 101.588C337.651 101.766 337.578 101.954 337.527 102.152C337.35 102.838 337.462 103.551 337.807 104.161C333.344 106.502 329.823 110.399 327.969 115.129C322.605 116.196 320.095 113.78 319 111.95C320 112.328 320.893 112.471 321.671 112.471L321.671 112.471Z" fill="#90CAC2"/>
<path d="M341.483 131.876C340.657 131.876 339.986 131.205 339.986 130.38C339.986 129.555 340.657 128.883 341.483 128.883C342.308 128.883 342.979 129.555 342.979 130.38C342.979 131.205 342.308 131.876 341.483 131.876Z" fill="#90CAC2"/>
<path d="M341.483 135.661C338.571 135.661 336.202 133.292 336.202 130.38C336.202 127.469 338.571 125.1 341.483 125.1C344.395 125.1 346.764 127.469 346.764 130.38C346.763 133.292 344.395 135.661 341.483 135.661ZM341.483 127.351C339.813 127.351 338.453 128.71 338.453 130.38C338.453 132.051 339.813 133.41 341.483 133.41C343.154 133.41 344.512 132.051 344.512 130.38C344.512 128.71 343.154 127.351 341.483 127.351Z" fill="#90CAC2"/>
<path d="M328.052 122.778C328.052 112.038 336.789 103.299 347.531 103.299C356.932 103.299 365.074 110.182 366.697 119.382C358.32 124.301 347.236 124.819 345.475 124.87C344.352 124.054 342.975 123.567 341.484 123.567C337.727 123.567 334.67 126.624 334.67 130.381C334.67 134.138 337.727 137.195 341.484 137.195C342.192 137.195 342.875 137.086 343.517 136.885C346.748 140.478 352.187 142.324 357.071 143.268L357.564 153.07C357.576 153.298 357.498 153.516 357.345 153.685C357.194 153.851 356.988 153.948 356.763 153.958C353.151 154.127 344.168 154.008 338.717 149.295C334.654 145.783 331.153 144.929 328.931 144.832C328.507 144.813 328.308 144.515 328.242 144.388C328.099 144.111 328.114 143.79 328.282 143.529L332.865 136.433C333.05 136.147 333.024 135.773 332.801 135.516C329.739 131.978 328.053 127.454 328.053 122.778L328.052 122.778ZM330.913 122.041H332.446C332.446 121.37 332.494 120.695 332.59 120.035L331.072 119.817C330.967 120.549 330.913 121.297 330.913 122.041ZM332.987 118.187C334.228 113.872 337.498 110.404 341.737 108.911L341.228 107.465C336.523 109.123 332.891 112.973 331.514 117.763L332.987 118.187Z" fill="#90CAC2"/>
<path d="M52.7015 230.807C53.0245 231.001 53.2184 231.259 53.283 231.582C53.8644 233.972 45.5951 238.043 34.8708 240.691C24.0819 243.34 14.9082 243.599 14.3267 241.208C14.2622 240.885 14.3267 240.562 14.5206 240.239L23.6944 194.629C15.4897 194.564 12.3241 191.463 12.3241 191.463C15.2958 190.494 18.0738 191.14 20.1412 192.109C15.4898 189.525 15.3604 186.166 15.3604 186.166C19.8181 186.23 21.4978 188.362 22.5961 191.592C21.7561 188.814 21.1749 185.326 22.5315 183C22.5315 183 23.436 185.261 24.0175 188.75C24.5344 186.812 25.5035 184.809 27.4416 183.194C27.4416 183.194 28.0231 185.907 26.085 190.494C27.5062 188.685 29.5737 186.876 32.61 186.359C32.61 186.359 31.3179 190.494 24.3407 194.306M22.338 205.418L21.3044 211.426C21.3044 211.426 27.5064 209.552 22.338 205.418ZM18.8493 221.956L17.8157 227.964C17.7512 227.9 24.0177 226.026 18.8493 221.956ZM39.5226 215.044L35.7755 210.198C33.0622 216.271 39.5226 215.044 39.5226 215.044ZM48.9548 227.448L45.2077 222.602C42.4944 228.675 48.9548 227.448 48.9548 227.448ZM24.0177 214.785C22.338 215.173 21.3044 216.917 21.7565 218.532C22.1441 220.212 23.8886 221.246 25.5037 220.793C27.1188 220.341 28.2169 218.661 27.7648 217.046C27.3127 215.431 25.6976 214.333 24.0177 214.785ZM35.3234 218.984C33.6437 219.372 32.6101 221.116 33.0622 222.732C33.4498 224.411 35.1943 225.445 36.8094 224.993C38.4245 224.541 39.5226 222.861 39.0705 221.246C38.6829 219.63 37.0033 218.597 35.3234 218.984ZM24.9867 228.352C23.3071 228.74 22.2735 230.484 22.7256 232.099C23.1132 233.779 24.8576 234.812 26.4727 234.36C28.0878 233.908 29.186 232.228 28.7339 230.613C28.3463 228.933 26.6667 227.9 24.9867 228.352ZM38.0367 230.096C36.3571 230.484 35.3235 232.228 35.7756 233.843C36.1632 235.523 37.9076 236.557 39.5228 236.104C41.1379 235.652 42.236 233.972 41.7839 232.357C41.3961 230.742 39.7165 229.709 38.0367 230.096ZM16.3298 233.649L15.2962 239.658C15.296 239.658 21.4982 237.784 16.3298 233.649ZM29.8966 202.123L26.1495 197.277C23.5008 203.35 29.8966 202.123 29.8966 202.123ZM28.6046 204.901C26.9249 205.288 25.8913 207.033 26.3434 208.648C26.731 210.327 28.4755 211.361 30.0906 210.909C31.7057 210.457 32.8038 208.777 32.3517 207.162C31.8993 205.547 30.2843 204.448 28.6046 204.901ZM53.6709 233.649C45.014 241.789 26.8602 242.694 27.7001 242.758C46.5645 244.761 53.6709 233.649 53.6709 233.649ZM28.2815 197.342L47.9212 222.602C47.9212 222.602 36.7447 202.962 28.2815 197.342ZM13.681 236.815L18.7202 213.622C12.9705 223.765 13.681 236.815 13.681 236.815ZM25.5036 194.499C25.0514 194.693 32.0286 193.401 32.8038 187.393C32.8038 187.457 30.3488 192.044 25.5036 194.499ZM28.4753 187.457C28.4753 187.457 29.8965 186.359 31.8346 186.165C31.8348 186.165 29.2507 185.455 28.4753 187.457ZM17.0404 190.688C14.5853 188.749 11.9366 191.075 12.0012 191.011C14.9083 189.977 17.0404 190.688 17.0404 190.688ZM12.9057 192.238C12.9057 192.238 13.8747 194.758 18.1385 194.305C18.1385 194.305 14.1977 193.659 12.9057 192.238ZM26.9247 184.873C26.9247 184.873 24.2115 186.941 24.4051 191.204C24.4053 191.204 26.4726 189.589 26.9247 184.873ZM21.1104 193.336C18.3971 191.075 13.9393 191.592 13.9393 191.592C17.0404 194.047 21.1104 193.336 21.1104 193.336ZM21.7564 191.011C19.6892 186.359 16.0713 186.747 16.0713 186.747C17.2342 190.882 21.7564 191.011 21.7564 191.011Z" fill="#90CAC2"/>
<path d="M161.213 216.91C159.382 216.91 157.845 218.441 157.845 220.263C157.845 222.085 159.382 223.616 161.213 223.616C163.044 223.616 164.581 222.158 164.581 220.263C164.581 218.441 163.117 216.91 161.213 216.91Z" fill="#90CAC2"/>
<path d="M143.053 228.281C131.776 226.969 120.426 226.969 109.149 228.281C107.318 228.573 106 229.958 106 231.707V236.081C112.664 235.206 119.4 234.768 126.137 234.768C132.801 234.768 139.611 235.206 146.275 236.081V231.707C146.275 229.958 144.883 228.5 143.053 228.281Z" fill="#90CAC2"/>
<path d="M159.968 215.599C155.721 206.123 146.421 200 135.803 200C121.158 200 109.222 211.881 109.222 226.459V226.678C120.353 225.366 131.703 225.366 142.906 226.678L142.907 226.022C142.833 221.503 138.513 217.567 133.021 217.202C132.582 217.129 132.216 216.765 132.289 216.328C132.289 215.963 132.655 215.599 133.094 215.599V215.598C137.341 215.89 140.929 218.077 142.907 221.065C143.053 218.15 143.419 215.744 145.03 214.214C146.202 212.975 147.959 212.391 150.302 212.391C153.671 212.391 156.819 213.63 159.309 215.817C159.529 215.599 159.748 215.599 159.968 215.599L159.968 215.599Z" fill="#90CAC2"/>
<path d="M261.583 200.456C248.766 197.247 233.379 198.347 229.174 214.041C227.925 219.584 227.794 225.286 227.794 225.286C227.794 225.286 226.252 220.096 226.643 215.307C223.978 216.88 222.215 218.962 221.429 221.673C219.11 229.657 226.05 237 245.763 237C261.857 237 275.988 233.913 275.988 227.677C275.988 219.382 276.956 204.306 261.583 200.457V200.456ZM261.779 233.833C261.509 233.833 261.29 233.617 261.29 233.348C261.29 233.078 261.509 232.862 261.779 232.862C262.049 232.862 262.268 233.078 262.268 233.348C262.267 233.616 262.049 233.833 261.779 233.833ZM264.528 233.272C264.258 233.272 264.038 233.056 264.038 232.786C264.038 232.518 264.257 232.301 264.528 232.301C264.798 232.301 265.016 232.518 265.016 232.786C265.015 233.056 264.798 233.272 264.528 233.272ZM266.861 232.638C266.59 232.638 266.371 232.42 266.371 232.152C266.371 231.882 266.59 231.665 266.861 231.665C267.129 231.665 267.351 231.881 267.351 232.152C267.351 232.42 267.129 232.638 266.861 232.638ZM269.357 228.389C269.357 228.389 264.452 231.098 255.978 231.319C255.978 231.319 255.172 219.99 262.551 218.382C270.368 216.679 269.357 228.389 269.357 228.389V228.389Z" fill="#90CAC2"/>
<path d="M355.138 209.844C355.077 209.54 355.261 209.235 355.446 208.991C355.261 208.808 355.261 208.626 355.261 208.504C355.323 208.199 355.508 208.016 355.754 207.894C355.692 207.65 355.815 207.468 355.877 207.407C356.184 206.98 356.984 207.041 357.476 207.163C357.476 207.102 357.537 206.98 357.599 206.919C357.722 206.736 357.968 206.553 358.214 206.492C358.645 206.431 358.952 206.614 359.198 206.797C359.321 206.614 359.506 206.492 359.752 206.431C360.182 206.37 360.49 206.614 360.613 206.736C360.736 206.797 360.797 206.858 360.797 206.919C360.797 206.858 360.859 206.858 360.92 206.797C361.043 206.736 361.228 206.614 361.474 206.614C361.843 206.614 362.089 206.736 362.274 206.98C362.397 206.858 362.581 206.797 362.827 206.797C363.258 206.675 363.504 206.797 363.688 206.919C363.75 206.98 363.811 207.041 363.873 207.041C363.934 207.102 363.996 207.102 363.996 207.102C364.119 207.041 364.242 207.041 364.488 207.041C364.919 207.041 365.165 207.223 365.288 207.467C365.841 207.467 366.456 207.589 366.579 208.016C366.641 208.198 366.579 208.32 366.457 208.442C366.764 208.686 366.949 208.93 366.949 209.234C366.949 209.356 366.887 209.478 366.764 209.661C366.826 209.783 366.887 209.905 366.887 210.088C366.949 210.453 366.703 210.636 366.641 210.697C366.641 210.758 366.703 210.88 366.703 211.002C366.826 211.246 366.949 211.55 366.887 211.916C366.887 212.038 366.826 212.099 366.764 212.16C366.764 212.16 366.826 212.16 366.826 212.221C366.949 212.403 367.256 212.891 366.949 213.317C367.195 213.622 367.379 214.049 367.318 214.414C367.256 214.536 367.195 214.658 367.133 214.78C367.195 214.963 367.318 215.206 367.256 215.389C367.195 215.694 367.01 215.816 366.887 215.938C366.887 215.938 366.887 215.999 366.949 215.999C367.072 216.181 367.256 216.425 367.256 216.608C367.318 216.974 367.195 217.218 367.133 217.339C367.195 217.461 367.256 217.644 367.256 217.827C367.256 218.01 367.133 218.193 367.01 218.315C367.072 218.497 367.133 218.619 367.072 218.802C367.072 218.863 367.01 218.985 366.887 219.107C366.949 219.168 366.887 219.29 366.826 219.351C366.764 219.472 366.641 219.533 366.457 219.533C366.334 219.533 366.149 219.533 365.964 219.594C365.841 219.655 365.657 219.655 365.411 219.716H365.349C365.288 219.899 365.165 220.021 364.919 220.082C364.857 220.143 364.734 220.143 364.673 220.082L364.611 220.143C364.365 220.265 364.119 220.265 363.873 220.143C363.811 220.204 363.811 220.204 363.75 220.265C363.442 220.447 363.073 220.326 362.766 220.143C362.704 220.204 362.643 220.326 362.52 220.326C362.151 220.569 361.72 220.387 361.413 220.326C361.29 220.265 361.228 220.265 361.228 220.265L361.166 220.326C361.044 220.387 360.92 220.508 360.613 220.63C360.305 220.691 360.121 220.569 359.998 220.508C359.936 220.508 359.936 220.447 359.936 220.447H359.875C359.813 220.508 359.813 220.508 359.752 220.508C359.567 220.63 359.26 220.752 358.952 220.752C358.829 220.752 358.706 220.752 358.583 220.63C358.521 220.63 358.521 220.569 358.46 220.509C358.276 220.57 358.153 220.57 358.029 220.57H357.537C357.476 220.509 357.414 220.509 357.353 220.509H357.168C356.984 220.509 356.799 220.509 356.615 220.326C356.553 220.265 356.492 220.143 356.492 220.082C356.369 220.021 356.307 220.021 356.246 219.96C356 219.656 356.061 219.29 356.246 218.863C356.123 218.863 356 218.802 355.877 218.68C355.692 218.315 355.877 217.949 356.061 217.644C356.061 217.583 356.123 217.462 356.184 217.401V217.34C356 217.279 355.753 217.157 355.692 216.73C355.63 216.426 355.753 216.182 355.876 216.06C355.938 215.999 355.938 215.999 355.938 215.938C355.938 215.877 355.876 215.816 355.815 215.755L355.753 215.694C355.507 215.45 355.507 215.268 355.63 214.902C355.63 214.841 355.692 214.719 355.753 214.658C355.569 214.536 355.323 214.414 355.323 213.988C355.323 213.744 355.446 213.5 355.63 213.196C355.446 213.135 355.261 212.952 355.261 212.647C355.2 212.343 355.384 212.099 355.569 211.855C355.384 211.794 355.138 211.611 355.077 211.185C355.077 210.819 355.261 210.575 355.446 210.331C355.323 210.209 355.2 210.027 355.138 209.844L355.138 209.844ZM329.488 201.861C329.181 201.861 328.75 201.861 328.258 201.983C328.074 202.044 328.012 202.166 327.951 202.227C327.889 202.288 327.889 202.288 327.828 202.227C327.766 202.166 327.643 202.044 327.459 202.044H327.336C327.09 202.044 326.782 201.983 326.536 202.227C326.474 202.288 326.413 202.41 326.413 202.531C326.351 202.531 326.229 202.531 326.167 202.47C325.859 202.47 325.367 202.409 325.06 202.775C324.691 202.531 324.383 202.47 324.076 202.592C323.583 202.836 323.461 203.506 323.399 204.116C323.03 204.116 322.784 204.237 322.599 204.42C322.353 204.664 322.415 205.03 322.538 205.395C322.538 205.639 322.599 205.883 322.538 206.066C322.538 206.127 322.415 206.248 322.292 206.309C322.107 206.553 321.799 206.858 321.861 207.284C321.923 207.528 322.046 207.711 322.23 207.833C322.292 207.894 322.353 207.955 322.353 208.016C321.861 208.381 321.369 209.174 321.615 209.783C321.677 210.088 321.861 210.149 321.984 210.21L322.107 210.332C322.046 210.393 321.984 210.514 321.923 210.575C321.738 210.697 321.554 210.941 321.554 211.124C321.369 211.733 321.677 211.977 321.861 212.16C321.984 212.282 321.984 212.282 321.923 212.525C321.861 212.708 321.738 212.891 321.554 213.135C321.307 213.439 321.061 213.805 321 214.293V214.536H321.246C321.554 214.658 321.615 214.719 321.615 214.719C321.615 214.78 321.492 215.024 321.431 215.207L321.369 215.39C321.123 215.877 320.938 216.365 321.185 216.67C321.246 216.791 321.307 216.852 321.492 216.913C321.43 217.096 321.369 217.279 321.307 217.462C321.123 217.827 320.938 218.315 321.061 218.802V219.046H321.307C321.307 219.046 321.369 219.046 321.43 219.107V219.351C321.43 219.717 321.43 220.082 321.677 220.326C321.923 220.509 322.23 220.631 322.784 220.631C322.968 220.631 323.03 220.631 323.153 220.57H323.276C323.276 220.57 323.276 220.631 323.399 220.752C323.46 220.874 323.522 221.057 323.522 221.179C323.583 221.484 323.583 221.788 323.891 222.032C324.198 222.276 324.567 222.215 324.813 222.215C324.936 222.215 324.998 222.154 325.121 222.154C325.182 222.215 325.244 222.215 325.305 222.215C325.305 222.337 325.367 222.459 325.428 222.642C325.551 222.824 325.551 222.885 325.613 222.946C325.674 223.19 325.797 223.251 326.043 223.19H326.289C326.412 223.19 326.474 223.312 326.597 223.434L326.781 223.617C326.781 224.043 326.72 224.531 326.72 224.957C326.658 225.323 326.658 225.689 326.658 225.932V228.126C326.658 230.747 326.658 233.794 327.458 235.927C328.135 237.694 330.041 238.425 332.01 238.669C328.627 235.5 329.303 226.054 329.488 223.861C329.119 223.739 328.688 223.495 328.319 223.251C328.196 223.434 328.073 223.434 327.95 223.495C327.766 223.495 327.581 223.434 327.335 223.312H327.273C327.212 223.251 327.15 223.191 327.027 223.069C326.904 222.886 326.658 222.642 326.351 222.642H326.043C326.043 222.581 325.982 222.52 325.982 222.398C325.859 222.215 325.859 222.154 325.859 222.094C325.797 221.667 325.551 221.667 325.182 221.606C324.997 221.606 324.874 221.606 324.751 221.667C324.505 221.667 324.382 221.667 324.259 221.606C324.136 221.484 324.136 221.362 324.075 221.118C324.075 220.935 324.013 220.692 323.89 220.448C323.583 220.082 323.459 220.021 323.09 220.021C323.029 220.021 322.906 220.082 322.783 220.082C322.352 220.082 322.168 219.96 322.106 219.899C321.983 219.838 321.983 219.595 321.983 219.351V218.863V218.559L321.676 218.62L321.614 218.559H321.553C321.553 218.254 321.676 217.949 321.799 217.645C321.922 217.34 322.106 216.974 322.045 216.609V216.304L321.737 216.365H321.614C321.614 216.304 321.676 216.121 321.861 215.634L321.983 215.451C322.106 215.085 322.291 214.781 322.106 214.476C322.045 214.293 321.86 214.171 321.614 214.11C321.676 213.867 321.86 213.684 321.983 213.44C322.168 213.257 322.352 213.013 322.475 212.648C322.66 212.099 322.353 211.856 322.168 211.734C322.045 211.612 321.983 211.551 322.045 211.246C322.107 211.185 322.23 211.063 322.291 210.942C322.476 210.759 322.599 210.637 322.66 210.454C322.66 210.027 322.414 209.845 322.291 209.784C322.168 209.723 322.168 209.662 322.107 209.601C321.984 209.235 322.476 208.565 322.845 208.382L323.029 208.321L322.968 208.138C322.968 207.834 322.783 207.59 322.599 207.468C322.537 207.346 322.414 207.285 322.414 207.224C322.414 207.041 322.476 206.919 322.722 206.736C322.845 206.615 323.029 206.432 323.091 206.249C323.214 205.944 323.152 205.578 323.091 205.274C323.029 205.091 322.968 204.847 323.029 204.786C323.029 204.725 323.152 204.664 323.644 204.725H323.89V204.42C323.952 203.384 324.198 203.141 324.321 203.141C324.444 203.08 324.69 203.202 324.998 203.445L325.367 203.75L325.49 203.262C325.551 203.019 325.613 203.019 326.105 203.079C326.289 203.079 326.535 203.14 326.72 203.079L327.027 203.019L326.966 202.775V202.592H327.273H327.396C327.396 202.592 327.458 202.653 327.519 202.653C327.581 202.714 327.765 202.836 328.011 202.836C328.257 202.775 328.38 202.653 328.442 202.531C328.872 202.409 329.18 202.409 329.488 202.409H329.98C330.041 202.409 330.041 202.47 330.103 202.47L330.226 202.348C330.287 202.348 330.287 202.348 330.349 202.287C330.779 202.105 331.271 202.531 331.763 202.897C331.825 202.775 331.886 202.653 332.01 202.592C332.502 202.348 333.178 202.775 333.732 203.202C333.793 203.019 333.916 202.836 334.101 202.775C334.285 202.653 334.654 202.531 335.147 202.775C335.393 202.897 335.577 203.141 335.762 203.323C335.823 203.384 335.885 203.445 335.946 203.506C336.069 203.202 336.315 202.897 336.992 203.019C337.299 203.14 337.669 203.323 337.853 203.628C338.222 203.323 338.653 203.019 339.145 203.08C339.637 203.141 339.76 203.384 339.76 203.628C340.99 203.323 341.913 203.201 342.282 203.689C342.405 203.75 342.467 203.933 342.467 204.116C342.651 204.055 342.897 204.055 343.082 203.994C343.82 203.811 344.496 203.689 345.481 204.116C345.604 204.177 345.665 204.238 345.665 204.359C346.403 204.116 347.757 203.811 348.187 204.298C348.31 204.42 348.372 204.542 348.372 204.725C349.663 204.664 351.017 204.725 351.447 205.335C351.509 205.456 351.57 205.578 351.57 205.761C352.185 205.883 353.169 206.188 353.292 206.797C353.354 206.98 353.292 207.224 353.108 207.407C353.477 207.65 353.661 208.016 353.723 208.382C353.846 208.991 353.661 209.174 353.354 209.418C353.354 209.418 353.354 209.479 353.292 209.479C353.6 209.783 353.723 210.088 353.661 210.393C353.6 210.758 353.354 210.941 352.923 211.246C353.108 211.429 353.292 211.672 353.354 211.977C353.477 212.647 353.046 212.891 352.8 213.013C352.8 213.074 352.739 213.074 352.677 213.074C352.739 213.196 352.8 213.257 352.862 213.379C353.108 213.866 353.416 214.476 353.108 214.841C352.985 214.963 352.924 215.024 352.801 215.085L352.862 215.146C353.108 215.573 353.416 216.06 353.231 216.487C353.108 216.731 352.924 216.852 352.739 216.913C352.924 217.34 353.046 217.706 352.924 217.949C352.801 218.315 352.493 218.437 352.247 218.498C352.493 218.802 352.616 219.29 352.431 219.595C352.37 219.716 352.247 219.899 352.062 219.96C352.124 220.204 352.247 220.509 352.185 220.874C352.185 220.996 352.062 221.118 351.939 221.179C352.062 221.423 352.062 221.545 352.001 221.667C351.816 222.032 351.57 222.093 351.447 222.093H351.386C351.447 222.642 351.263 223.251 350.832 223.556C350.832 223.556 350.771 223.556 350.709 223.617C350.279 227.578 349.479 237.816 350.709 239.949C351.447 241.289 352.431 242.447 356.061 242.691C357.906 242.325 359.259 241.655 359.382 241.594V241.533C359.321 237.877 359.259 232.331 360.92 228.37C362.95 223.312 367.994 223.068 369.47 223.068C371.069 205.335 369.285 199.728 360.858 196.194C353.231 192.903 346.526 194 342.097 195.097C335.27 196.803 330.964 200.46 329.734 201.678V201.861H329.488L329.488 201.861ZM350.033 240.314C348.618 237.877 349.664 226.907 349.91 224.043C349.603 224.348 349.111 224.287 348.68 224.226H348.495C348.372 224.47 348.188 224.592 348.065 224.653C347.942 224.714 347.757 224.774 347.573 224.714C347.511 225.506 347.327 227.334 347.142 229.284C347.265 229.467 347.327 229.65 347.265 229.894C347.142 230.503 347.019 231.112 346.957 231.722C346.896 232.819 346.835 233.733 346.835 234.281C346.835 234.403 346.773 234.464 346.712 234.525C346.589 237.938 347.204 240.01 347.45 240.436C349.172 242.447 351.448 243.057 353.478 242.996C351.694 242.508 350.771 241.533 350.033 240.315L350.033 240.314ZM346.281 224.287C346.219 224.409 346.158 224.47 346.096 224.531C345.481 224.896 344.313 224.592 343.575 224.226C343.513 224.47 343.39 224.653 343.267 224.714C343.021 224.836 342.775 224.897 342.529 224.897C341.852 224.897 341.114 224.653 340.376 224.287C340.315 224.531 340.192 224.653 340.069 224.714C339.454 225.14 338.346 224.714 337.116 224.104C337.116 224.165 336.993 224.226 336.932 224.287C336.439 224.714 335.455 224.348 334.225 223.861C334.164 223.861 334.041 223.8 333.979 223.8C333.979 223.921 333.918 224.043 333.856 224.104C333.795 224.165 333.733 224.226 333.61 224.226C333.118 224.287 331.949 223.982 331.396 223.495C331.273 223.739 331.088 223.921 330.903 223.982C330.78 224.043 330.596 224.043 330.411 224.043H330.227C329.981 226.603 329.304 237.206 333.548 238.791C335.332 238.852 336.808 238.608 336.87 238.608C336.931 238.608 336.993 238.547 337.054 238.608C340.376 238.73 341.053 236.597 341.606 233.55C341.668 233.246 341.729 232.88 341.791 232.575C342.529 229.345 345.112 228.736 346.466 228.858C346.589 226.969 346.773 225.201 346.835 224.592C346.65 224.47 346.466 224.409 346.281 224.288L346.281 224.287ZM369.348 223.799C367.933 223.799 363.443 224.043 361.598 228.614C359.998 232.453 360.06 237.877 360.121 241.472C360.859 241.533 361.905 241.411 362.336 241.046C362.705 240.619 362.951 237.938 362.889 235.317C362.828 228.431 365.35 227.395 367.995 226.847C368.487 226.725 368.979 226.603 369.163 226.42C370.024 225.323 369.532 224.348 369.471 224.226C369.409 224.104 369.348 223.921 369.348 223.8L369.348 223.799Z" fill="#90CAC2"/>
<path d="M154.187 28.1012C154.032 28.1321 153.869 28.1631 153.715 28.1941C153.622 28.2094 153.529 28.2328 153.436 28.2482H153.421C153.313 28.2714 153.196 28.2945 153.088 28.3177C152.818 28.3796 152.539 28.4416 152.268 28.5111C152.183 28.5342 152.09 28.5574 152.005 28.5806C151.835 28.6269 151.657 28.6735 151.487 28.7198C151.387 28.743 151.286 28.774 151.178 28.8049C151.046 28.8437 150.922 28.8744 150.791 28.9132C150.458 29.0061 150.118 29.1144 149.785 29.2149C149.77 29.2149 149.762 29.2149 149.747 29.2302C149.514 29.2997 149.29 29.3773 149.058 29.4546C148.927 29.4934 148.803 29.5397 148.671 29.5785C148.339 29.6945 147.998 29.8106 147.666 29.9265C147.55 29.9652 147.433 30.0116 147.325 30.0503C147.101 30.1354 146.869 30.2206 146.645 30.3057C146.42 30.3908 146.196 30.4759 145.979 30.561C145.91 30.5842 145.848 30.6151 145.778 30.6383C145.562 30.7234 145.345 30.8085 145.136 30.8936C145.043 30.9324 144.95 30.9709 144.858 31.0019C144.819 31.0172 144.788 31.0329 144.749 31.0482C144.726 31.056 144.695 31.0714 144.672 31.0792C144.525 31.1411 144.37 31.2031 144.223 31.2648C143.922 31.3887 143.628 31.5123 143.341 31.6362C143.194 31.6981 143.055 31.7601 142.916 31.8217C142.777 31.8837 142.637 31.9456 142.498 31.9998C142.367 32.0617 142.235 32.1158 142.111 32.1778C141.841 32.3017 141.578 32.4175 141.322 32.5414C141.183 32.6033 141.044 32.6653 140.913 32.7348C140.789 32.7967 140.673 32.8509 140.549 32.905C140.541 32.905 140.526 32.9128 140.518 32.9203C140.448 32.9513 140.379 32.9898 140.309 33.0208C140.294 33.0208 140.278 33.0362 140.263 33.044C140.093 33.1213 139.938 33.1986 139.783 33.2761C139.698 33.3149 139.613 33.3612 139.528 33.4C139.466 33.431 139.396 33.462 139.335 33.4929H139.319C139.25 33.5239 139.188 33.5549 139.126 33.5859C139.064 33.6168 139.002 33.6478 138.94 33.6788C138.84 33.7251 138.739 33.7792 138.646 33.8258C138.6 33.849 138.553 33.8722 138.515 33.8953C138.476 33.9185 138.43 33.9341 138.391 33.9573C138.368 33.9726 138.337 33.9804 138.306 33.996C138.283 34.0114 138.252 34.0192 138.229 34.0348C138.174 34.058 138.128 34.089 138.082 34.1121C138.058 34.1275 138.027 34.1431 138.004 34.1509C137.965 34.1663 137.935 34.1819 137.904 34.1972C137.618 34.3443 137.417 34.4525 137.316 34.5067H137.277H137.254H137.177H137.115H137.091C136.79 34.522 136.496 34.5377 136.202 34.5455C135.985 34.5533 135.769 34.5608 135.552 34.5686C135.173 34.584 134.802 34.5918 134.438 34.5996C134.245 34.5996 134.052 34.5996 133.858 34.6074H133.317H132.737H132.644H132.319H131.646C131.421 34.6074 131.205 34.6074 130.988 34.592C130.841 34.592 130.702 34.592 130.555 34.5842C130.416 34.5842 130.269 34.5764 130.13 34.5689H129.983C129.751 34.5689 129.526 34.5535 129.302 34.5457H129.24C129.147 34.5457 129.055 34.5379 128.962 34.5304C128.869 34.5304 128.784 34.5226 128.691 34.515C128.575 34.515 128.459 34.4996 128.351 34.4996C128.273 34.4996 128.196 34.4918 128.118 34.4843C127.987 34.4765 127.855 34.4689 127.724 34.4611C127.592 34.4533 127.461 34.4458 127.337 34.4379C127.113 34.4226 126.896 34.407 126.68 34.3916C126.587 34.3916 126.486 34.3763 126.393 34.3685C126.223 34.3531 126.053 34.3375 125.89 34.3221H125.829C125.751 34.3221 125.666 34.3068 125.589 34.299C125.519 34.299 125.45 34.2836 125.38 34.2758C125.28 34.268 125.187 34.2604 125.086 34.2448C125.024 34.2448 124.962 34.2295 124.901 34.2295C124.87 34.2295 124.831 34.2295 124.8 34.2216C124.754 34.2216 124.707 34.2138 124.669 34.2063C124.529 34.1909 124.39 34.1753 124.251 34.16C123.617 34.0905 123.037 34.0054 122.518 33.9278C121.683 33.8039 120.94 33.6725 120.306 33.541C120.267 33.5332 120.221 33.5257 120.182 33.5179C120.136 33.5101 120.089 33.5025 120.051 33.4947C120.004 33.4869 119.958 33.4793 119.904 33.4637H119.88C119.834 33.4559 119.795 33.4484 119.749 33.4406C119.68 33.4252 119.602 33.4096 119.54 33.3942C119.509 33.3864 119.471 33.3789 119.44 33.3711H119.424C119.308 33.3479 119.2 33.3247 119.092 33.2938C119.038 33.2784 118.984 33.2706 118.929 33.255C118.875 33.2396 118.813 33.2318 118.759 33.2162C118.612 33.1852 118.481 33.1467 118.357 33.1157C118.349 33.1157 118.334 33.1157 118.326 33.1079C118.295 33.1079 118.272 33.0926 118.249 33.0848C118.172 33.0616 118.094 33.046 118.032 33.0228C117.947 32.9997 117.87 32.9765 117.808 32.9609C117.793 32.9609 117.785 32.9609 117.769 32.9531C117.653 32.9221 117.568 32.8911 117.498 32.8758C117.483 32.8758 117.467 32.868 117.452 32.8604C117.413 32.8451 117.39 32.8372 117.383 32.8372C117.05 32.7134 116.833 32.551 116.756 32.3576C116.671 32.172 116.741 32.0018 116.741 32.0018L117.336 30.0526L117.7 28.846L117.963 27.9719L118.017 27.7864L119.131 24.1121L122.643 12.5323C125.573 10.2943 128.962 11.0215 130.509 11.5398C127.059 11.857 124.607 12.2745 124.576 12.2745C124.383 12.3055 124.259 12.491 124.29 12.6766C124.321 12.8468 124.468 12.9705 124.638 12.9705H124.7C124.731 12.9705 127.538 12.4908 131.367 12.166C131.429 12.166 131.491 12.1582 131.553 12.1506C138.685 11.5705 150.984 11.4159 153.444 16.8847L154.186 28.1009L154.187 28.1012Z" fill="#90CAC2"/>
<path d="M137.246 34.5057H137.269H137.308H137.246ZM132.644 35.318H132.775H133.301H132.644ZM129.302 34.5445C129.526 34.5523 129.751 34.5677 129.983 34.5677C129.751 34.5599 129.526 34.5523 129.302 34.5445ZM120.298 33.5312C120.932 33.6627 121.675 33.7941 122.51 33.918C123.029 33.9953 123.609 34.0726 124.243 34.1502C124.382 34.1655 124.522 34.1811 124.661 34.1965C124.707 34.1965 124.754 34.2043 124.792 34.2119C124.823 34.2119 124.862 34.2119 124.893 34.2197C124.955 34.2197 125.017 34.235 125.078 34.235C125.171 34.2428 125.272 34.2582 125.372 34.266C123.276 34.0573 121.582 33.7863 120.29 33.5313L120.298 33.5312ZM117.32 30.035L116.725 31.9842V31.961L117.32 30.035ZM154.929 28.6504C154.751 28.6892 154.651 28.7123 154.651 28.7199H154.62L154.929 28.6736V28.6504ZM137.246 34.4982H137.269H137.308H137.246ZM132.644 35.3106H132.775H133.301H132.644ZM129.302 34.537C129.527 34.5448 129.751 34.5602 129.983 34.5602C129.751 34.5524 129.527 34.5448 129.302 34.537ZM120.298 33.5238C120.933 33.6552 121.675 33.7866 122.511 33.9105C123.029 33.9878 123.609 34.0651 124.243 34.1427C124.383 34.1581 124.522 34.1737 124.661 34.189C124.707 34.189 124.754 34.1968 124.792 34.2044C124.823 34.2044 124.862 34.2044 124.893 34.2122C124.955 34.2122 125.017 34.2275 125.079 34.2275C125.171 34.2354 125.272 34.2507 125.372 34.2585C123.276 34.0498 121.582 33.7788 120.29 33.5238L120.298 33.5238ZM117.32 30.0275L116.725 31.9767V31.9535L117.32 30.0275Z" fill="#90CAC2"/>
<path d="M173.198 37.9254C173.198 38.0105 173.198 38.1034 173.191 38.1883C173.175 38.5209 173.168 38.8689 173.121 39.1861C172.974 40.2459 172.742 41.8393 171.203 42.9765C169.23 44.4385 165.626 44.7711 160.474 43.9665C160.451 43.9665 157.929 43.6417 154.935 42.9455C151.423 42.1331 148.701 41.1355 146.991 40.0601C153.38 38.9693 160.195 42.4116 160.265 42.4426C160.319 42.4658 160.373 42.4814 160.427 42.4814C160.551 42.4814 160.675 42.4119 160.737 42.288C160.822 42.1178 160.76 41.9091 160.582 41.8161C160.28 41.6615 153.195 38.0877 146.457 39.4414C146.419 39.4414 146.38 39.4568 146.341 39.4646C146.272 39.4799 146.194 39.4955 146.125 39.5109C145.761 39.596 145.405 39.6889 145.057 39.7972C144.137 40.091 143.386 40.3 142.683 40.4546C131.613 42.9764 123.576 44.7322 120.328 45.3433C121.31 44.7478 122.261 44.1752 123.19 43.6182C123.422 43.479 123.661 43.3398 123.886 43.2005C125.038 42.5043 126.152 41.839 127.22 41.2047C127.483 41.0423 127.753 40.8875 128.016 40.7329C128.279 40.5783 128.535 40.4234 128.79 40.2688C128.921 40.1915 129.045 40.1142 129.169 40.0444C129.548 39.8201 129.919 39.5957 130.29 39.3792C130.461 39.2787 130.631 39.178 130.793 39.0775C131.01 38.9461 131.226 38.8222 131.435 38.6986C131.497 38.6598 131.567 38.6213 131.629 38.5825C131.66 38.5671 131.691 38.5515 131.714 38.5284L132.062 38.3272C132.131 38.2884 132.201 38.2421 132.27 38.2033C134.947 36.6331 136.502 35.7435 137.167 35.372C137.19 35.3642 137.206 35.3489 137.221 35.3411C137.353 35.2716 137.438 35.2172 137.492 35.1865C137.492 35.1865 137.5 35.1865 137.507 35.1787H137.515L137.546 35.1555L137.6 35.1245L137.67 35.0857L137.732 35.055L137.77 35.0397C138.528 34.6451 141.097 33.3224 144.322 31.9687C144.539 31.8758 144.763 31.7831 144.987 31.6902C145.436 31.5046 145.892 31.3266 146.356 31.141C146.589 31.0481 146.82 30.963 147.06 30.8703C147.3 30.7852 147.532 30.6923 147.772 30.6074C148.012 30.5223 148.252 30.4372 148.491 30.3521C150.541 29.6405 152.645 29.0448 154.595 28.7278H154.626C154.626 28.7278 154.726 28.6968 154.904 28.6583C155.67 28.4881 157.913 28.0318 160.558 27.9236C160.922 27.9082 161.278 27.9004 161.618 27.9004C166.337 27.9004 168.944 29.1921 170.32 30.3139C172.37 31.9848 173.33 34.5452 173.175 37.9177L173.198 37.9254Z" fill="#90CAC2"/>
<path d="M146.467 39.4409L146.126 39.5185C146.196 39.5031 146.273 39.4875 146.343 39.4722C146.381 39.4644 146.42 39.4568 146.459 39.449L146.467 39.4409ZM146.467 39.4409L146.126 39.5185C146.196 39.5031 146.273 39.4875 146.343 39.4722C146.381 39.4644 146.42 39.4568 146.459 39.449L146.467 39.4409ZM145.136 30.8857C145.345 30.8006 145.562 30.7155 145.778 30.6304C145.562 30.7155 145.345 30.8006 145.136 30.8857ZM118.658 45.9077H118.573H118.55H118.658ZM146.467 39.4332L146.126 39.5108C146.196 39.4954 146.273 39.4798 146.343 39.4644C146.381 39.4566 146.42 39.4491 146.459 39.4413L146.467 39.4332ZM146.467 39.4332L146.126 39.5108C146.196 39.4954 146.273 39.4798 146.343 39.4644C146.381 39.4566 146.42 39.4491 146.459 39.4413L146.467 39.4332ZM146.467 39.4332L146.296 39.472C146.296 39.472 146.327 39.472 146.343 39.4642C146.381 39.4564 146.42 39.4488 146.459 39.441L146.467 39.4332Z" fill="#90CAC2"/>
<path d="M131.011 38.1492C130.756 38.3038 130.493 38.4508 130.23 38.6132C130.176 38.6442 130.122 38.6752 130.068 38.7062C129.031 39.3173 127.933 39.9669 126.795 40.6553C126.556 40.8024 126.308 40.9492 126.061 41.0962C125.79 41.2586 125.512 41.421 125.233 41.5913C124.993 41.7383 124.746 41.8851 124.498 42.0322C124.467 42.0553 124.429 42.0709 124.398 42.0941C124.305 42.156 124.204 42.2102 124.104 42.2721C122.379 43.3085 120.561 44.4071 118.643 45.5674C118.403 45.5674 117.962 45.6294 116.949 45.784C114.466 46.1554 109.84 46.8514 105.547 46.6117C100.403 46.3254 97.3862 44.7939 96.5895 42.04C95.5065 38.3037 95.9242 34.3201 97.7729 30.8238C99.498 27.5672 102.26 25.0996 105.361 24.0476C107.109 23.4521 108.912 23.2432 110.606 23.2432C114.203 23.2432 117.305 24.2023 118.256 24.5274L116.686 29.7099C116.686 29.7099 116.686 29.7252 116.678 29.7252C116.678 29.7252 116.678 29.733 116.67 29.7406C116.662 29.756 116.647 29.7716 116.639 29.7869C116.624 29.8179 116.6 29.8489 116.577 29.8798C116.515 29.9728 116.446 30.081 116.368 30.2203C116.345 30.2512 116.33 30.2898 116.307 30.3207C116.183 30.5451 116.036 30.808 115.897 31.1096C115.881 31.1484 115.866 31.1791 115.85 31.2179C115.835 31.2489 115.827 31.272 115.811 31.303C115.773 31.3803 115.742 31.4654 115.711 31.5427C115.703 31.5659 115.696 31.589 115.688 31.6047C115.634 31.7361 115.587 31.8675 115.541 31.9992C115.525 32.0456 115.51 32.0997 115.487 32.1538V32.1692C115.471 32.2155 115.456 32.2697 115.44 32.3162C115.425 32.3704 115.409 32.4245 115.394 32.4787C115.363 32.5869 115.34 32.6952 115.309 32.8113C115.278 32.9583 115.255 33.1051 115.232 33.2522C115.232 33.2753 115.232 33.291 115.224 33.3141C115.185 33.6158 115.177 33.9174 115.216 34.2116C115.216 34.2579 115.231 34.2967 115.231 34.343C115.247 34.4281 115.262 34.5132 115.285 34.5983C115.309 34.6834 115.332 34.7685 115.363 34.8458C115.664 35.6657 116.345 36.2149 117.389 36.4934C117.575 36.5397 117.776 36.5939 117.993 36.6404C118.047 36.6558 118.093 36.6636 118.147 36.6792C118.89 36.8416 119.756 36.9887 120.692 37.1279C120.777 37.1433 120.863 37.1511 120.948 37.1667C121.311 37.2208 121.675 37.2672 122.046 37.3137C122.208 37.3369 122.371 37.3525 122.533 37.3757C122.618 37.3835 122.711 37.3989 122.796 37.4067C123.368 37.4762 123.949 37.5381 124.529 37.6C124.815 37.631 125.094 37.662 125.372 37.6852C125.465 37.693 125.55 37.7005 125.635 37.7083C125.681 37.7083 125.728 37.7161 125.766 37.7237C125.843 37.7237 125.921 37.739 125.998 37.7468C126.184 37.7622 126.37 37.7856 126.555 37.801C126.679 37.8088 126.803 37.8241 126.927 37.832C126.981 37.832 127.027 37.8398 127.081 37.8473C127.159 37.8473 127.236 37.8627 127.313 37.8705C127.437 37.8783 127.561 37.8936 127.685 37.9014C127.747 37.9014 127.801 37.9093 127.855 37.9168C128.079 37.9322 128.296 37.9556 128.505 37.9709C128.574 37.9709 128.636 37.9788 128.706 37.9863H128.729C128.791 37.9863 128.845 37.9941 128.907 38.0017C129.108 38.017 129.309 38.0326 129.495 38.048C129.588 38.048 129.673 38.0634 129.758 38.0712C129.82 38.0712 129.882 38.079 129.943 38.0865C130.005 38.0865 130.067 38.0943 130.121 38.1019H130.207C130.245 38.1019 130.284 38.1019 130.315 38.1097H130.377C130.423 38.1097 130.47 38.1097 130.516 38.1175C130.655 38.1253 130.787 38.1329 130.911 38.1407H130.98H131.011L131.011 38.1492Z" fill="#90CAC2"/>
<path d="M118.65 45.9158H118.565H118.542H118.65ZM116.074 32.5956C115.912 33.1604 115.827 33.7481 115.92 34.2666C115.827 33.7406 115.92 33.1451 116.074 32.6034V32.5956ZM118.65 45.9158H118.565H118.542H118.65ZM118.65 45.9158H118.565H118.542H118.65ZM117.312 30.0507L117.676 28.8516L117.312 30.0582V30.0507ZM116.074 32.6034C115.912 33.1682 115.827 33.7559 115.92 34.2744C115.827 33.7484 115.92 33.1529 116.074 32.6112L116.074 32.6034ZM118.65 45.9236H118.565H118.542H118.65ZM118.65 45.9236H118.565H118.542H118.65ZM118.65 45.9236H118.565H118.542H118.65ZM116.074 32.6034C115.912 33.1682 115.827 33.756 115.92 34.2745C115.827 33.7484 115.92 33.153 116.074 32.6113L116.074 32.6034ZM118.65 45.9237H118.565H118.542H118.65Z" fill="#90CAC2"/>
<path d="M135.962 35.2641C135.962 35.2641 135.939 35.2794 135.931 35.2872C135.784 35.3723 135.622 35.4652 135.452 35.5657L135.289 35.6586C135.243 35.6818 135.204 35.705 135.158 35.7359C135.088 35.7747 135.019 35.8132 134.949 35.8598C134.647 36.03 134.315 36.2234 133.951 36.44C133.882 36.4787 133.812 36.5173 133.742 36.5638C133.626 36.6333 133.503 36.7031 133.379 36.7726C133.278 36.8345 133.178 36.8887 133.069 36.9506C133.015 36.9816 132.969 37.0126 132.915 37.0435L132.752 37.1364C132.536 37.2603 132.319 37.3918 132.087 37.5232L131.886 37.5078C131.886 37.5078 131.793 37.5078 131.638 37.4925C130.053 37.392 121.219 36.7884 117.568 35.8215C116.748 35.605 116.237 35.2026 116.013 34.6071C115.99 34.5451 115.967 34.4832 115.951 34.4137C115.936 34.3674 115.928 34.3132 115.92 34.2667C115.827 33.7485 115.905 33.1605 116.075 32.5957V32.6111C116.237 32.9978 116.585 33.2917 117.119 33.4929H117.127C117.127 33.4929 117.189 33.5161 117.289 33.547C117.328 33.5624 117.374 33.5702 117.436 33.5934C117.475 33.6087 117.521 33.6165 117.568 33.6321C117.583 33.6321 117.606 33.6399 117.622 33.6475C117.653 33.6553 117.684 33.6629 117.715 33.6707C117.777 33.686 117.839 33.7094 117.908 33.7248C117.923 33.7248 117.939 33.7326 117.954 33.7402C117.978 33.7402 118.009 33.7555 118.032 33.7633C118.109 33.7865 118.194 33.8097 118.287 33.8253H118.295C118.318 33.8253 118.341 33.8406 118.372 33.8406C118.449 33.8638 118.535 33.8794 118.627 33.9026C118.674 33.9104 118.72 33.9257 118.767 33.9335H118.798C119.022 33.9799 119.262 34.034 119.525 34.0959C119.571 34.1038 119.625 34.1191 119.672 34.1269C119.687 34.1269 119.703 34.1269 119.718 34.1347C119.757 34.1347 119.788 34.1501 119.826 34.1579C119.919 34.1733 120.02 34.1967 120.12 34.2198H120.159C120.383 34.2662 120.623 34.3049 120.879 34.3513C120.925 34.3513 120.964 34.3666 121.01 34.3744C121.049 34.3744 121.087 34.3898 121.134 34.3976C121.265 34.4208 121.405 34.4439 121.544 34.4671C121.575 34.4671 121.606 34.4749 121.637 34.4825C121.699 34.4978 121.761 34.5056 121.822 34.5134C122.147 34.5676 122.495 34.6217 122.851 34.668C123.145 34.7068 123.447 34.7531 123.764 34.7919C123.81 34.7919 123.864 34.8073 123.911 34.8151C123.957 34.8151 124.004 34.8305 124.058 34.8305C124.158 34.8458 124.259 34.8536 124.36 34.8692C124.398 34.8692 124.437 34.877 124.476 34.8846C124.507 34.8846 124.538 34.8846 124.569 34.8924C124.607 34.8924 124.638 34.9002 124.677 34.9078C124.708 34.9078 124.739 34.9078 124.77 34.9156C124.832 34.9156 124.894 34.9309 124.955 34.9387C125.017 34.9387 125.079 34.9541 125.149 34.9619C125.311 34.9773 125.474 34.9929 125.636 35.0082C125.682 35.0082 125.721 35.016 125.767 35.0236C125.806 35.0236 125.845 35.0236 125.884 35.0314C126.023 35.0467 126.17 35.0546 126.317 35.0702C126.355 35.0702 126.402 35.0702 126.441 35.078C126.479 35.078 126.51 35.078 126.549 35.0858H126.557C126.603 35.0858 126.65 35.0858 126.688 35.0936H126.742H126.773H126.789C126.843 35.0936 126.889 35.1014 126.943 35.1089C127.075 35.1167 127.214 35.1321 127.345 35.1399C127.423 35.1399 127.508 35.1553 127.585 35.1553C127.624 35.1553 127.662 35.1553 127.709 35.1631C127.856 35.1709 127.995 35.1784 128.142 35.1862H128.219C128.32 35.1862 128.42 35.2016 128.521 35.2016C128.629 35.2016 128.745 35.217 128.854 35.217C128.962 35.217 129.07 35.2248 129.178 35.2323H129.225C129.356 35.2323 129.495 35.2477 129.627 35.2477C129.766 35.2477 129.913 35.2555 130.052 35.263C130.137 35.263 130.223 35.263 130.315 35.2708C130.408 35.2708 130.501 35.2708 130.594 35.2787C130.702 35.2787 130.818 35.2787 130.934 35.2865H131.104H131.507H131.916H132.272H132.35H132.628H133.285H133.835H133.935H134.098C134.245 35.2865 134.384 35.2865 134.531 35.2787H134.716C134.848 35.2787 134.987 35.2787 135.126 35.2708C135.397 35.263 135.675 35.2555 135.954 35.2477L135.962 35.2641Z" fill="#90CAC2"/>
<path d="M16.0385 302C15.9377 301.187 15.9101 300.369 15.9588 299.577H12.9345C12.4193 299.577 12 300.121 12 300.789C12 301.457 12.4193 302 12.9345 302H16.0385Z" fill="#90CAC2"/>
<path d="M35.4229 306.038C34.1156 305.111 33.1019 304.135 32.5969 303.615C32.09 304.137 31.0781 305.113 29.769 306.038H35.4229Z" fill="#90CAC2"/>
<path d="M46.997 304.898C48.5098 302.594 48.7837 299.364 47.6496 297.22C46.7893 295.593 45.247 294.733 43.1881 294.733L22.0044 294.731C19.9456 294.731 18.4033 295.592 17.5428 297.218C16.4087 299.364 16.6825 302.592 18.1954 304.898C18.9454 306.04 20.6476 307.91 23.635 307.625C23.6442 307.623 23.6534 307.629 23.6625 307.627C23.6717 307.627 23.6791 307.621 23.6901 307.621C23.7287 307.623 23.7692 307.623 23.8078 307.623C25.2342 307.623 26.6735 307.049 27.9493 306.293C27.953 306.291 27.9548 306.289 27.9566 306.287C30.3831 304.847 32.2158 302.756 32.2433 302.722C32.2506 302.713 32.2598 302.711 32.269 302.703C32.2763 302.696 32.28 302.687 32.2874 302.679C32.3039 302.664 32.3241 302.661 32.3407 302.648C32.3683 302.629 32.3922 302.612 32.4216 302.601C32.4491 302.59 32.4785 302.584 32.508 302.577C32.5374 302.571 32.5649 302.566 32.5962 302.566C32.6256 302.566 32.655 302.571 32.6844 302.577C32.7138 302.582 32.7414 302.588 32.7708 302.601C32.8002 302.612 32.826 302.631 32.8517 302.649C32.8683 302.661 32.8885 302.666 32.905 302.681C32.9124 302.688 32.916 302.698 32.9234 302.705C32.9307 302.713 32.9418 302.716 32.9491 302.724C32.9914 302.774 37.2377 307.623 41.3847 307.623C41.4233 307.623 41.4619 307.623 41.5024 307.621C41.5116 307.621 41.5171 307.625 41.5263 307.627C41.5373 307.627 41.5465 307.623 41.5575 307.623C44.5501 307.912 46.2469 306.04 46.9971 304.898L46.997 304.898ZM24.898 305.584C24.5102 305.693 24.0285 305.787 23.501 305.787C22.1609 305.787 20.5194 305.192 19.3465 302.797C19.3447 302.791 19.3447 302.788 19.3428 302.782C19.3392 302.774 19.3336 302.771 19.3318 302.763C18.5395 300.765 18.5193 299.302 19.2656 298.289C20.2472 296.959 22.5303 296.49 26.2452 296.849L28.5999 297.075C29.837 297.194 30.6017 297.866 30.6955 298.919C30.9032 301.245 27.8683 304.732 24.8979 305.584L24.898 305.584ZM40.2951 305.584C37.3245 304.732 34.2897 301.243 34.4975 298.917C34.5913 297.864 35.356 297.192 36.5931 297.073L38.9479 296.847C42.6629 296.488 44.9458 296.959 45.9258 298.287C46.674 299.299 46.6519 300.763 45.8597 302.762C45.856 302.769 45.8523 302.775 45.8486 302.78C45.8468 302.786 45.8468 302.789 45.8449 302.795C44.6722 305.191 43.0306 305.785 41.6924 305.785C41.1649 305.787 40.6833 305.695 40.2954 305.584L40.2951 305.584Z" fill="#90CAC2"/>
<path d="M16.5576 296.903C17.5619 295.018 19.4112 293.98 21.7651 293.98H42.6176C44.9717 293.98 46.821 295.018 47.825 296.903C48.129 297.474 48.3425 298.105 48.4746 298.769H50.7691C50.5248 288.768 42.4565 281 32.1914 281C21.9282 281 13.8596 288.769 13.6152 298.769H15.9097C16.04 298.106 16.2535 297.474 16.5575 296.903H16.5576Z" fill="#90CAC2"/>
<path d="M16.0104 303.106C16.0104 303.056 16.0244 303.011 16.0383 302.966C16.0244 302.913 16.0069 302.861 15.993 302.808H13.6152V320.736C13.6152 322.528 15.1545 323.44 16.0086 323.808V303.105L16.0104 303.106Z" fill="#90CAC2"/>
<path d="M48.3462 302.875V323.808C49.2127 323.444 50.7693 322.541 50.7693 320.731V302.808H48.3638C48.3585 302.829 48.3533 302.852 48.3462 302.875L48.3462 302.875Z" fill="#90CAC2"/>
<path d="M47.3127 305.592C45.9963 307.534 44.0813 308.576 41.8722 308.576C41.6655 308.576 41.4553 308.564 41.2416 308.546C41.1988 308.548 41.156 308.548 41.1133 308.548C39.592 308.548 38.0956 307.997 36.7756 307.261H28.4172C27.0972 307.995 25.599 308.548 24.0795 308.548C24.0367 308.548 23.994 308.548 23.9512 308.546C23.7392 308.566 23.529 308.576 23.3206 308.576C21.1099 308.576 19.1984 307.534 17.88 305.592C17.7999 305.475 17.7268 305.353 17.6538 305.231V322.191C26.6997 316.248 38.4944 316.248 47.5384 322.192V305.233C47.4654 305.355 47.3923 305.475 47.3122 305.592H47.3127Z" fill="#90CAC2"/>
<path d="M53.0239 299.577H49.237C49.2862 300.372 49.259 301.189 49.1538 302H53.024C53.562 302 54 301.457 54 300.789C54 300.121 53.562 299.577 53.024 299.577H53.0239Z" fill="#90CAC2"/>
<path d="M129.664 313.768C123.227 311.881 121.46 310.346 120.063 309.463C119.65 309.202 119.819 308.696 119.909 308.312C118.768 309.053 116.68 310.327 112.903 312.483C107.845 315.368 106.91 316.461 107.006 317.375C107.142 318.418 108.406 318.526 109.203 318.864C110.699 319.505 113.024 321.063 114.295 322.267C124.606 333.594 140.896 324.55 148.965 316.658C140.973 316.497 133.449 314.778 129.66 313.761L129.664 313.768Z" fill="#90CAC2"/>
<path d="M131.429 293.834C132.588 289.491 136.687 287.994 139.935 286.977C139.923 286.816 139.896 286.529 139.896 286.375C131.273 287.231 125.912 288.397 123.684 297.803C122.956 301.141 121.975 305.048 121.255 308.24C121.197 308.496 121.301 308.758 121.519 308.904C121.627 308.974 123.715 310.401 127.272 311.679C127.86 308.974 130.025 299.112 131.436 293.829L131.429 293.834Z" fill="#90CAC2"/>
<path d="M147.655 298.004C148.274 292.812 147.701 291.584 145.22 288.495L140.587 288.2C140.536 288.2 140.483 288.181 140.44 288.162C137.327 289.128 133.673 290.418 132.675 294.159C131.245 299.505 129.033 309.604 128.492 312.091C132.919 313.383 137.849 314.547 145.369 315.211C145.717 312.724 147.051 303.066 147.65 298.008L147.655 298.004Z" fill="#90CAC2"/>
<path d="M162.812 298.675C161.64 290.797 153.087 287.828 148.1 286.761C148.035 287.095 147.829 287.809 147.745 288.135C147.655 288.5 147.273 288.665 146.925 288.603C149.079 291.462 149.528 293.143 148.936 298.157C148.344 303.172 147.029 312.681 146.662 315.298C147.679 315.355 148.723 315.401 149.755 315.401C157.611 315.401 162.939 312.607 163.172 312.484C163.803 312.139 164.185 308.755 162.805 298.683L162.812 298.675Z" fill="#90CAC2"/>
<path d="M158.811 277.749C157.818 277.147 156.479 276.744 155.041 276.624C153.154 276.459 148.295 276.612 145.716 277.353C145.786 276.509 144.517 276.394 144.433 277.245C142.024 276.068 137.26 275.084 135.373 274.924C133.111 274.725 129.778 275.231 129.43 277.552C129.372 279.9 132.562 280.967 134.824 281.166C136.711 281.327 141.571 281.178 144.154 280.437L143.837 284.032C142.052 284.039 141.046 285.126 141.196 286.898C141.223 287.212 141.474 287.467 141.795 287.486C141.911 287.486 146.003 287.785 146.133 287.793C146.43 287.793 146.687 287.589 146.759 287.301C147.172 285.977 146.805 284.43 145.128 284.147L145.444 280.552C148.429 281.888 152.933 282.855 155.47 282.919C159.595 283.042 162.411 280.08 158.822 277.766L158.811 277.749Z" fill="#90CAC2"/>
<path d="M222.973 317.142C226.241 321.384 239.776 323.824 245.202 323.999C250.278 324.115 269.59 315.805 269.59 315.805C269.59 315.805 274.316 314.003 274.9 311.272C275.483 308.542 273.325 307.32 273.325 307.32C273.325 298.373 271.983 290.76 265.449 285.299C264.223 284.253 262.94 283.381 261.54 282.743C261.424 282.859 261.308 282.859 261.133 282.918C261.016 282.977 249.756 286.23 249.523 302.965C249.523 303.546 249.056 303.777 248.532 303.777C248.008 303.777 247.541 303.487 247.598 302.906C247.83 288.96 255.182 283.671 258.742 281.756C254.89 280.71 250.69 280.769 246.722 281.815C243.746 283.442 239.197 287.8 239.254 299.828C239.254 300.409 238.846 300.874 238.263 300.874C237.739 300.874 237.271 300.468 237.271 299.887C237.212 291.983 239.138 287.219 241.355 284.082C238.263 285.71 235.521 288.034 233.655 290.765C232.255 292.798 231.089 295.007 230.27 297.331C229.863 298.434 229.455 303.432 228.928 303.954C225.423 307.089 219.707 312.843 222.973 317.142ZM262.122 306.508C262.122 305.927 262.473 305.405 262.997 305.23L265.506 304.242C266.322 303.893 266.964 304.592 266.964 305.52V309.182C266.964 309.763 266.732 310.285 266.265 310.459L263.931 311.447C263.115 311.796 262.121 311.097 262.121 310.169L262.122 306.508ZM229.974 311.39C230.15 310.809 230.733 310.578 231.257 310.75C244.209 316.27 251.618 313.19 251.677 313.133C252.201 312.902 252.727 313.192 252.96 313.714C253.135 314.236 252.901 314.877 252.436 315.108C252.26 315.167 249.927 316.154 245.667 316.154C241.991 316.154 236.916 315.399 230.558 312.727C230.033 312.552 229.742 311.912 229.974 311.39Z" fill="#90CAC2"/>
<path d="M370.899 274.754C370.811 274.491 370.548 274.227 370.284 274.227L361.055 272.118C358.067 271.503 355.166 273.348 354.463 276.336C354.111 277.918 354.463 279.588 355.518 280.906C356.572 282.312 357.627 284.421 356.748 286.882C354.639 285.3 351.914 284.333 349.013 284.333C349.013 283.366 348.222 282.576 347.256 282.576H343.74C342.773 282.576 341.982 283.366 341.982 284.333C339.081 284.333 336.357 285.3 334.247 286.882C333.368 284.333 334.423 282.224 335.478 280.906C336.444 279.588 336.796 277.918 336.444 276.336C335.829 273.436 332.929 271.503 329.852 272.118L320.711 274.139C320.36 274.227 320.184 274.491 320.096 274.754C319.92 275.018 320.008 275.37 320.184 275.545C321.151 276.688 322.557 277.391 324.051 277.391H328.534C329.061 277.391 329.588 277.83 329.676 278.357V278.621C329.676 278.885 329.588 279.148 329.413 279.412L328.358 280.73C326.6 283.015 325.633 285.827 325.721 288.727C325.721 290.397 326.073 291.979 326.776 293.473C327.303 294.703 328.006 295.758 328.797 296.724V302.348C328.006 302.612 327.391 303.227 327.215 303.93C326.952 304.633 327.04 305.424 327.479 306.127C327.831 306.654 328.27 307.006 328.885 307.27V319.485C328.885 319.749 328.973 320.012 329.237 320.188C331.698 322.033 334.686 323 337.675 323H342.07C342.421 323 342.773 322.736 342.948 322.385C343.036 322.033 342.948 321.594 342.597 321.418L341.015 320.276C337.06 317.464 334.511 312.982 334.247 308.149C336.444 308.413 338.642 308.588 340.751 308.764C341.454 308.764 342.069 309.379 342.069 310.17C342.069 312.455 343.212 314.564 345.058 315.794C345.233 315.882 345.409 315.97 345.585 315.97C345.761 315.97 345.937 315.882 346.112 315.794C348.046 314.564 349.101 312.455 349.101 310.17C349.101 309.467 349.716 308.852 350.419 308.764C352.617 308.676 354.814 308.413 356.923 308.149C356.659 312.982 354.11 317.464 350.155 320.276L348.573 321.418C348.222 321.682 348.134 322.033 348.222 322.385C348.31 322.736 348.661 323 349.101 323H353.495C356.484 323 359.472 322.033 361.933 320.188C362.197 320.012 362.285 319.749 362.285 319.485V307.358C363.252 307.007 363.955 306.216 364.043 305.161C364.131 304.37 363.867 303.579 363.252 302.964C362.988 302.701 362.636 302.525 362.285 302.437V296.813C363.164 295.846 363.779 294.704 364.306 293.561C364.922 292.067 365.273 290.486 365.361 288.816C365.449 285.916 364.482 283.104 362.724 280.819L361.67 279.501C361.494 279.325 361.406 278.973 361.406 278.71V278.446C361.494 277.919 362.021 277.479 362.549 277.479H367.031C368.525 277.479 369.932 276.776 370.899 275.634C370.986 275.37 371.074 275.019 370.899 274.755L370.899 274.754ZM343.74 284.333H347.256V293.824C347.256 295.669 346.641 297.427 345.498 298.833C344.355 297.427 343.74 295.669 343.74 293.824V284.333ZM328.446 292.857C327.918 291.539 327.567 290.22 327.567 288.727C327.567 286.178 328.358 283.805 329.852 281.784L330.907 280.466C331.346 279.939 331.522 279.323 331.522 278.62C331.522 278.357 331.522 278.181 331.434 278.005C331.171 276.687 329.94 275.72 328.534 275.632H324.051C323.7 275.632 323.26 275.545 322.908 275.457L330.204 273.875C332.313 273.436 334.247 274.754 334.687 276.775C334.95 277.829 334.687 278.972 333.983 279.851C332.841 281.345 331.171 284.332 332.665 287.935C332.665 288.023 332.753 288.023 332.753 288.111C330.995 289.781 329.764 291.978 329.149 294.351C328.886 293.823 328.622 293.384 328.446 292.857H328.446ZM350.244 307.005C348.574 307.093 347.255 308.499 347.255 310.169C347.255 311.663 346.64 313.069 345.497 314.035C344.355 313.069 343.74 311.663 343.74 310.169C343.74 308.499 342.421 307.093 340.751 307.005C336.972 306.829 333.192 306.39 329.501 305.687C329.237 305.687 329.061 305.511 328.973 305.247C328.797 305.072 328.797 304.808 328.885 304.544C328.973 304.193 329.325 304.017 329.764 304.017H329.94C340.312 305.863 350.859 305.863 361.231 304.017C361.494 303.929 361.758 304.017 362.022 304.193C362.11 304.281 362.285 304.544 362.285 304.896C362.285 305.247 361.934 305.599 361.494 305.687C357.803 306.39 354.023 306.829 350.244 307.005ZM366.944 275.633H362.462C361.055 275.633 359.913 276.599 359.649 278.005C359.561 278.181 359.561 278.445 359.561 278.621C359.561 279.324 359.737 279.939 360.176 280.466L361.231 281.784C362.725 283.718 363.604 286.178 363.516 288.727C363.516 290.133 363.165 291.539 362.637 292.857C362.374 293.384 362.11 293.912 361.846 294.351C361.231 291.89 360 289.781 358.243 288.111C358.243 288.024 358.331 288.024 358.331 287.936C359.737 284.333 358.067 281.345 357.012 279.851C356.309 278.972 356.045 277.83 356.309 276.775C356.66 275.018 358.243 273.787 360 273.787C360.264 273.787 360.528 273.787 360.792 273.875L368.087 275.457C367.648 275.633 367.296 275.633 366.944 275.633H366.944Z" fill="#90CAC2"/>
</g>
</svg>
