<svg width="394" height="459" viewBox="0 0 394 459" fill="none" xmlns="http://www.w3.org/2000/svg">
<g opacity="0.5">
<rect opacity="0.05" y="42" width="394" height="417" rx="20" fill="#F9F9FB"/>
<rect opacity="0.25" x="368" y="61" width="9" height="88" rx="4.5" fill="#F9F9FB"/>
<rect opacity="0.5" x="368" y="61" width="9" height="30" rx="4.5" fill="#F9F9FB"/>
<path d="M78.5794 77.6262C78.2395 77.1315 78.1287 76.5174 78.2784 75.935C78.4316 75.3437 78.8336 74.8516 79.3826 74.5845L84.643 72.0255C84.9821 71.8597 85.3672 71.7917 85.7342 71.8243L91.4587 72.3313C92.0461 72.3831 92.5668 72.67 92.9251 73.1376C93.2485 73.5596 93.3841 74.0716 93.3342 74.5935C93.2862 74.5935 93.2391 74.5899 93.1911 74.5899C88.0003 74.5903 83.0613 75.6773 78.5798 77.6263L78.5794 77.6262Z" fill="#AEAEAE"/>
<path d="M125.842 113.553L123.377 114.613L127.717 124.712C125.404 125.511 122.705 126.251 119.674 126.776L116.001 117.28L113.499 118.248L116.952 127.175C114.432 127.476 111.72 127.614 108.834 127.512L105.613 119.312L103.116 120.293L105.876 127.318C102.305 126.994 98.5036 126.287 94.5115 125.074C94.5163 124.937 94.5324 124.804 94.5324 124.666C94.5324 122.017 93.6537 119.575 92.1869 117.594C99.1495 117.17 116.716 115.247 130.067 106.51L136.208 120.803C135.126 121.465 133.082 122.608 130.232 123.768L125.842 113.553Z" fill="#AEAEAE"/>
<path d="M94.1111 127.755C98.2684 128.993 102.216 129.716 105.918 130.048L103.135 136.42L105.594 137.494L108.762 130.24C109.498 130.269 110.225 130.285 110.939 130.285C112.962 130.285 114.891 130.17 116.727 129.975L112.846 139.749L115.339 140.74L119.777 129.562C122.578 129.101 125.1 128.456 127.337 127.74L122.29 142.303L124.825 143.182L130.574 126.59C132.449 125.849 134.032 125.098 135.283 124.438L127.099 146.261C122.213 146.193 98.9667 145.307 88.7372 134.876C91.3464 133.303 93.3017 130.766 94.1112 127.756L94.1111 127.755Z" fill="#AEAEAE"/>
<path d="M47.9367 93.3248C49.4561 93.3248 50.7238 93.0136 51.7246 92.6175C55.6002 91.0811 58.5552 87.1916 60.0472 81.6648C62.164 73.8207 63.8352 71.2492 63.8509 71.2241L61.6319 69.7172C61.5545 69.83 59.7261 72.561 57.456 80.9656C56.2748 85.3474 54.0036 88.5519 51.1932 89.8961C53.7925 87.7195 55.2413 83.895 55.4913 78.4857C55.7636 72.5887 58.4227 67.3921 62.7895 64.2285C62.931 64.1263 63.0736 64.0261 63.219 63.9271C69.3686 59.763 76.5176 60.8024 81.4266 62.4072C84.4967 63.41 88.0096 65.2136 88.6599 67.2679C88.8674 67.9226 88.7534 68.6138 88.3369 69.3619L85.9741 69.1524C85.4393 69.1065 84.9069 69.1603 84.3921 69.2896C82.1963 67.3614 74.6903 62.0452 63.894 67.9115L65.175 70.2681C73.362 65.8199 79.1364 68.6487 81.6553 70.4971L78.6721 71.9483C77.2968 71.6033 73.6471 71.0029 69.9601 73.0528C66.1693 75.1602 63.55 79.3604 62.1746 85.5366L64.7917 86.1193C65.9953 80.7234 68.1722 77.1161 71.2635 75.397C73.0035 74.4284 74.7407 74.2303 76.0618 74.2783C75.9019 74.5899 75.7734 74.92 75.6842 75.2661C75.3757 76.4658 75.5714 77.715 76.1742 78.7822C68.3643 82.8791 62.2036 89.6987 58.9574 97.9756C49.5715 99.8433 45.179 95.6144 43.2627 92.4135C45.0126 93.0744 46.5749 93.3239 47.936 93.3239L47.9367 93.3248Z" fill="#AEAEAE"/>
<path d="M82.6084 127.285C81.1636 127.285 79.9886 126.11 79.9886 124.666C79.9886 123.222 81.1636 122.047 82.6084 122.047C84.0517 122.047 85.2266 123.222 85.2266 124.666C85.2266 126.11 84.0516 127.285 82.6084 127.285Z" fill="#AEAEAE"/>
<path d="M82.608 133.906C77.5115 133.906 73.3659 129.761 73.3659 124.665C73.3659 119.569 77.5115 115.424 82.608 115.424C87.7033 115.424 91.8489 119.569 91.8489 124.665C91.8485 129.761 87.7029 133.906 82.608 133.906ZM82.608 119.364C79.6845 119.364 77.306 121.742 77.306 124.665C77.306 127.589 79.6845 129.967 82.608 129.967C85.5314 129.967 87.9088 127.589 87.9088 124.665C87.9088 121.741 85.5314 119.364 82.608 119.364Z" fill="#AEAEAE"/>
<path d="M59.1034 111.361C59.1034 92.5658 74.3937 77.2734 93.1908 77.2734C109.643 77.2734 123.892 89.3176 126.732 105.419C112.073 114.027 92.6747 114.933 89.5935 115.023C87.628 113.595 85.2189 112.742 82.6089 112.742C76.0337 112.742 70.6844 118.091 70.6844 124.667C70.6844 131.242 76.0336 136.591 82.6089 136.591C83.8478 136.591 85.0431 136.4 86.1674 136.048C91.8207 142.337 101.339 145.567 109.888 147.22L110.75 164.372C110.77 164.772 110.634 165.153 110.367 165.448C110.102 165.739 109.741 165.909 109.348 165.927C103.026 166.222 87.3062 166.014 77.7678 157.767C70.6567 151.62 64.5296 150.126 60.6416 149.956C59.899 149.924 59.5504 149.401 59.4353 149.178C59.185 148.694 59.2113 148.132 59.506 147.676L67.5261 135.258C67.8495 134.758 67.8039 134.103 67.4133 133.653C62.0551 127.461 59.104 119.544 59.104 111.362L59.1034 111.361ZM64.1107 110.072H66.7933C66.7933 108.897 66.877 107.717 67.0448 106.562L64.3885 106.179C64.2038 107.46 64.1107 108.769 64.1107 110.072ZM67.7391 103.327C69.9109 95.7754 75.6345 89.7066 83.0526 87.0942L82.1618 84.5636C73.9268 87.4647 67.5716 94.2017 65.1613 102.585L67.7391 103.327Z" fill="#AEAEAE"/>
<rect opacity="0.05" x="180" y="60.8359" width="82" height="82.6721" rx="13.4426" fill="#F9F9FB"/>
<path d="M249 66C247.939 66 246.922 66.4215 246.172 67.1715C245.422 67.9215 245 68.9392 245 70C245 71.0608 245.422 72.0784 246.172 72.8285C246.922 73.5785 247.939 74 249 74C250.061 74 251.078 73.5785 251.828 72.8285C252.578 72.0785 253 71.0608 253 70C252.999 68.9396 252.577 67.9226 251.827 67.1727C251.077 66.4227 250.06 66.0011 249 66ZM250.879 68.9662L248.828 71.4277C248.77 71.4935 248.689 71.5335 248.602 71.5385C248.52 71.5385 248.442 71.5058 248.385 71.4481L247.154 70.2173C247.041 70.0961 247.044 69.9073 247.162 69.79C247.278 69.6731 247.467 69.6696 247.589 69.7827L248.59 70.7753L250.423 68.5723C250.537 68.4407 250.735 68.4261 250.867 68.5396C250.998 68.6527 251.013 68.8511 250.9 68.9827L250.879 68.9662Z" fill="#00D4A1"/>
<path d="M198.195 127.248H199.939L200.771 128.96H198.195V134H195.859V122.8H200.323L201.251 124.752H198.195V127.248ZM206.066 122.8C206.599 122.8 207.052 122.992 207.426 123.376C207.81 123.749 208.002 124.208 208.002 124.752V132.048C208.002 132.592 207.81 133.056 207.426 133.44C207.052 133.813 206.599 134 206.066 134H203.778C203.234 134 202.77 133.813 202.386 133.44C202.012 133.056 201.826 132.592 201.826 132.048V124.752C201.826 124.208 202.012 123.749 202.386 123.376C202.77 122.992 203.234 122.8 203.778 122.8H206.066ZM205.682 132.048V124.752H204.146V132.048H205.682ZM213.378 122.8C213.911 122.8 214.365 122.992 214.738 123.376C215.122 123.749 215.314 124.208 215.314 124.752V132.048C215.314 132.592 215.122 133.056 214.738 133.44C214.365 133.813 213.911 134 213.378 134H211.09C210.546 134 210.082 133.813 209.698 133.44C209.325 133.056 209.138 132.592 209.138 132.048V124.752C209.138 124.208 209.325 123.749 209.698 123.376C210.082 122.992 210.546 122.8 211.09 122.8H213.378ZM212.994 132.048V124.752H211.458V132.048H212.994ZM221.587 122.8L222.083 124.752H220.099V134H219.859H218.019H217.779V124.752H216.291L215.779 122.8H221.587ZM228.768 126.832C228.683 127.056 228.539 127.243 228.336 127.392C228.144 127.531 227.925 127.6 227.68 127.6C227.968 127.6 228.219 127.691 228.432 127.872C228.645 128.053 228.773 128.283 228.816 128.56L228.832 132.048C228.832 132.592 228.645 133.051 228.272 133.424C228.091 133.605 227.883 133.744 227.648 133.84C227.403 133.947 227.152 134 226.896 134H222.64V122.8H226.896C227.429 122.8 227.883 122.992 228.256 123.376C228.64 123.749 228.832 124.208 228.832 124.752V126.432C228.832 126.571 228.811 126.704 228.768 126.832ZM224.96 132.048H226.512V128.56H224.96V132.048ZM224.96 126.832H226.512V124.752H224.96V126.832ZM234.191 122.8L235.631 131.552L235.615 134H233.727L233.519 132.592H231.791L231.599 134H229.695L229.679 131.552L231.119 122.8H234.191ZM232.095 130.528H233.231L232.655 126.528L232.095 130.528ZM238.898 132.048H241.506L240.53 134H236.578V122.8H238.898V132.048ZM244.319 132.048H246.927L245.951 134H241.999V122.8H244.319V132.048Z" fill="#F9F9FB"/>
<path d="M240.102 99.9441C239.843 99.6445 239.467 99.4725 239.072 99.4725H230.096L229.035 93.5348L236.626 91.9533C237.362 91.8001 237.835 91.0783 237.681 90.3421C237.528 89.6058 236.807 89.1334 236.07 89.2867L219.728 92.6913C219.354 92.7696 219.031 93.0003 218.836 93.328C218.641 93.6557 218.591 94.0506 218.701 94.4158L220.744 101.225C220.917 101.801 221.447 102.195 222.049 102.195H227.816L229.56 112.649C229.664 113.232 230.134 113.681 230.721 113.76L240.935 115.121C240.996 115.129 241.055 115.133 241.116 115.133C241.444 115.133 241.763 115.015 242.013 114.796C242.308 114.538 242.478 114.164 242.478 113.771C242.478 103.872 240.5 100.402 240.103 99.9432L240.102 99.9441ZM222.38 98.7916L221.055 94.3748L225.686 93.4104L226.647 98.7925H222.38L222.38 98.7916ZM230.581 102.196H238.285C238.526 102.74 238.902 103.8 239.212 105.601H231.189L230.581 102.196ZM232.066 111.191L231.675 108.325H239.559C239.642 109.269 239.705 111.014 239.734 112.215L232.066 111.192L232.066 111.191Z" fill="#F9F9FB"/>
<path d="M230.22 89.2555L234.362 88.6639C234.728 88.612 234.991 88.2766 234.943 87.9098C234.786 86.7121 234.254 85.592 233.916 84.9775C233.758 84.6906 233.417 84.5587 233.106 84.6617L231.584 85.169L230.222 89.2546L230.22 89.2555Z" fill="#F9F9FB"/>
<path d="M203.515 89.4121L205.483 87.7889L204.939 86.959C204.26 87.7923 203.81 88.6647 203.515 89.4121Z" fill="#F9F9FB"/>
<path d="M213.256 101.514C213.49 102.798 214.396 103.999 216.075 104.206L216.36 103.065L214.938 101.514H213.256Z" fill="#F9F9FB"/>
<path d="M219.07 81.0845C218.471 80.8138 217.737 80.5738 216.887 80.4648L217.094 81.0845H219.07Z" fill="#F9F9FB"/>
<path d="M202.302 109.004L202.888 112.521C202.943 112.849 203.227 113.09 203.56 113.09H206.387C206.387 109.685 202.302 109.004 202.302 109.004Z" fill="#F9F9FB"/>
<path d="M222.048 103.557C220.836 103.557 219.788 102.778 219.439 101.617L217.397 94.8072C217.178 94.0786 217.276 93.2854 217.665 92.6317C218.054 91.978 218.704 91.5141 219.45 91.3583L228.865 89.3964C228.846 89.2074 228.865 89.0134 228.928 88.827L230.289 84.7414C230.425 84.3345 230.744 84.0153 231.151 83.88L232.067 83.5744C231.098 82.3087 229.933 81.203 228.585 80.2838C225.436 78.1355 221.309 77 216.649 77C211.989 77 207.485 78.6206 204.278 81.5639C200.758 84.7958 198.897 89.3556 198.897 94.7526C198.897 99.5184 200.409 103.994 201.677 106.911C201.775 107.136 201.873 107.355 201.971 107.569L202.525 107.661C204.223 107.944 207.34 109.305 207.713 112.457H222.73C224.3 112.457 226.134 111.03 226.134 107.009C226.134 105.611 225.917 104.454 225.648 103.557L222.048 103.557ZM206.82 88.455L202.735 91.8256C202.61 91.9286 202.456 91.9814 202.301 91.9814C202.191 91.9814 202.081 91.955 201.98 91.9005C201.736 91.7695 201.596 91.5048 201.624 91.2298C201.637 91.0962 201.994 87.9205 204.543 85.3713C204.688 85.2266 204.891 85.1551 205.095 85.1755C205.299 85.1968 205.482 85.3083 205.594 85.4794L206.956 87.5562C207.147 87.8465 207.088 88.2337 206.82 88.455ZM215.368 79.3262C215.495 79.1483 215.701 79.0436 215.92 79.0436C219.565 79.0436 221.757 81.1945 221.849 81.2856C222.044 81.4805 222.102 81.7733 221.997 82.0278C221.891 82.2823 221.643 82.4483 221.368 82.4483H216.601C216.308 82.4483 216.048 82.261 215.955 81.9827L215.274 79.9399C215.205 79.7322 215.24 79.5041 215.368 79.3262ZM217.772 103.042L217.261 105.084C217.186 105.387 216.913 105.6 216.601 105.6C213.472 105.6 211.834 103.202 211.834 100.834C211.834 100.457 212.139 100.153 212.515 100.153H215.239C215.43 100.153 215.612 100.233 215.741 100.373L217.614 102.416C217.769 102.584 217.828 102.819 217.772 103.042Z" fill="#F9F9FB"/>
<rect opacity="0.05" x="17" y="186" width="147" height="187" rx="13.4426" fill="#F9F9FB"/>
<path d="M71.0935 216.2L68.1415 223.4L70.7095 233H67.1575L65.8855 228.08H65.1655V233H61.6855V216.2H65.1655V223.424L68.1415 216.2H71.0935ZM78.6666 216.2H82.1466V233H78.6666V230.072L75.5706 222.8V233H72.1386V216.2H75.4506L78.6666 223.76V216.2ZM87.5483 233H84.0683V216.2H87.5483V233ZM93.5149 222.632H98.0749V230.072C98.0749 230.888 97.7869 231.584 97.2109 232.16C96.6509 232.72 95.9629 233 95.1469 233H92.2669C91.4509 233 90.7549 232.72 90.1789 232.16C89.6189 231.584 89.3389 230.888 89.3389 230.072V219.128C89.3389 218.312 89.6189 217.624 90.1789 217.064C90.7549 216.488 91.4509 216.2 92.2669 216.2H97.6429L97.1149 219.128H92.8189V230.072H94.9069V225.56H94.3789L93.5149 222.632ZM106.013 216.2H109.493V233H106.013V225.944H103.205V233H99.7245V216.2H103.205V222.824H106.013V216.2ZM119.004 216.2L119.748 219.128H116.772V233H116.412H113.652H113.292V219.128H111.06L110.292 216.2H119.004Z" fill="#F9F9FB"/>
<path opacity="0.5" d="M115.319 204.071V202.777C115.298 201.232 114.042 200 112.489 200C110.936 200 109.681 201.232 109.681 202.756V204.05C109.298 204.05 109 204.342 109 204.718V209.332C109 209.708 109.298 210 109.681 210H115.319C115.702 210 116 209.708 116 209.332L116 204.739C115.978 204.363 115.68 204.071 115.319 204.071L115.319 204.071ZM112.782 208.267H112.209C112.022 208.267 111.878 208.102 111.909 207.92L112.043 207.119C111.85 206.978 111.74 206.73 111.772 206.465C111.807 206.174 112.028 205.927 112.317 205.851C112.799 205.721 113.255 206.097 113.255 206.556C113.255 206.785 113.149 206.994 112.979 207.119L113.084 207.931C113.107 208.109 112.965 208.267 112.782 208.267V208.267ZM114.404 204.071H110.574V202.777C110.574 201.754 111.425 200.898 112.489 200.898C113.532 200.898 114.404 201.733 114.404 202.777L114.404 204.071Z" fill="#F9F9FB"/>
<path d="M68.8205 208.292H71.1025L70.2485 210H66.7905V200.2H68.8205V208.292ZM73.5786 205.184V208.292H76.2526L75.4266 210H71.5346V200.2H75.4406L76.2526 201.908H73.5786V203.672H75.1046L75.8326 205.184H73.5786ZM80.406 200.2H82.436L80.812 210H78.138L76.514 200.2H78.544L79.468 206.738L80.406 200.2ZM85.1313 205.184V208.292H87.8053L86.9793 210H83.0873V200.2H86.9933L87.8053 201.908H85.1313V203.672H86.6573L87.3853 205.184H85.1313ZM90.5588 208.292H92.8408L91.9868 210H88.5288V200.2H90.5588V208.292ZM97.4108 200.242C97.4948 200.326 97.5834 200.415 97.6768 200.508C97.7701 200.601 97.8541 200.685 97.9288 200.76C98.0034 200.825 98.0781 200.9 98.1528 200.984C98.2274 201.059 98.3021 201.133 98.3768 201.208C98.4514 201.283 98.5261 201.357 98.6008 201.432C98.6754 201.507 98.7548 201.591 98.8388 201.684C98.9321 201.768 99.0254 201.857 99.1188 201.95V210.042H97.0888V201.95H96.3048V200.242H97.0888H97.4108ZM103.62 200.242L105.23 202.258V208.432C105.23 208.871 105.072 209.249 104.754 209.566C104.446 209.883 104.068 210.042 103.62 210.042H101.814C101.366 210.042 100.984 209.888 100.666 209.58C100.358 209.263 100.204 208.88 100.204 208.432V201.95C100.204 201.474 100.368 201.073 100.694 200.746C101.03 200.41 101.436 200.242 101.912 200.242H102.234H103.62ZM103.228 208.334V201.95H102.234V208.334H103.228Z" fill="#F9F9FB"/>
<path d="M32.12 246.2H33.184V255.062H38.168V256H32.12V246.2ZM39.2928 254.712V250.316L40.5808 249.028H44.1648L45.4528 250.316V254.712L44.1648 256H40.5808L39.2928 254.712ZM43.7168 255.076L44.4168 254.39V250.638L43.7168 249.952H41.0288L40.3288 250.638V254.39L41.0288 255.076H43.7168ZM47.2772 254.712V250.316L48.5652 249.028H52.1492L53.4372 250.316V254.712L52.1492 256H48.5652L47.2772 254.712ZM51.7012 255.076L52.4012 254.39V250.638L51.7012 249.952H49.0132L48.3132 250.638V254.39L49.0132 255.076H51.7012ZM55.4016 246.004H56.4376V251.912H58.0756L60.1196 249.028H61.2676L58.9156 252.388L61.4076 256H60.2596L58.0756 252.836H56.4376V256H55.4016V246.004ZM66.1613 249.028H67.1693V250.512L68.6533 249.028H70.7953L72.0833 250.316V256H71.0473V250.638L70.3473 249.952H68.9333L67.1973 251.688V256H66.1613V249.028ZM73.9784 254.712V250.316L75.2664 249.028H78.8504L80.1384 250.316V254.712L78.8504 256H75.2664L73.9784 254.712ZM78.4024 255.076L79.1024 254.39V250.638L78.4024 249.952H75.7144L75.0144 250.638V254.39L75.7144 255.076H78.4024ZM82.1027 254.712V246.004H83.1387V250.386L84.4967 249.028H86.9467L88.2347 250.316V254.712L86.9467 256H83.3907L82.1027 254.712ZM86.4987 255.076L87.1987 254.39V250.638L86.4987 249.952H84.7907L83.1387 251.604V254.39L83.8387 255.076H86.4987ZM90.2665 246.004H91.3025V256H90.2665V246.004ZM93.3377 254.712V250.316L94.6257 249.028H98.1397L99.4417 250.316V252.822H94.3737V254.39L95.0737 255.076H97.6917L98.3917 254.39V253.858H99.4277V254.712L98.1397 256H94.6257L93.3377 254.712ZM98.4057 251.926V250.638L97.7057 249.952H95.0737L94.3737 250.638V251.926H98.4057ZM101.441 256H101.273L100.867 255.594V254.978L101.273 254.572H101.889L102.295 254.978V256L101.595 257.736H101.021L101.441 256ZM108.121 249.938H106.861V249.028H108.121V247.474L109.339 246.256H111.355V247.152H109.787L109.157 247.768V249.028H111.355V249.938H109.157V256H108.121V249.938ZM112.342 254.712V250.316L113.63 249.028H117.144L118.446 250.316V252.822H113.378V254.39L114.078 255.076H116.696L117.396 254.39V253.858H118.432V254.712L117.144 256H113.63L112.342 254.712ZM117.41 251.926V250.638L116.71 249.952H114.078L113.378 250.638V251.926H117.41ZM120.189 254.712V250.316L121.477 249.028H124.991L126.293 250.316V252.822H121.225V254.39L121.925 255.076H124.543L125.243 254.39V253.858H126.279V254.712L124.991 256H121.477L120.189 254.712ZM125.257 251.926V250.638L124.557 249.952H121.925L121.225 250.638V251.926H125.257ZM128.247 246.004H129.283V256H128.247V246.004ZM31.98 265.432V264.816L32.4 264.396H33.016L33.436 264.816V265.432L33.016 265.852H32.4L31.98 265.432ZM32.19 267.028H33.226V274H32.19V267.028ZM35.468 267.028H36.476V268.512L37.96 267.028H40.102L41.39 268.316V274H40.354V268.638L39.654 267.952H38.24L36.504 269.688V274H35.468V267.028ZM42.4483 267.028H43.5123L45.5843 272.964H45.6403L47.7123 267.028H48.7763L46.2143 274H45.0103L42.4483 267.028ZM49.9722 265.432V264.816L50.3922 264.396H51.0082L51.4282 264.816V265.432L51.0082 265.852H50.3922L49.9722 265.432ZM50.1822 267.028H51.2182V274H50.1822V267.028ZM53.4602 267.028H54.4682V268.512L55.9522 267.028H58.0942L59.3822 268.316V274H58.3462V268.638L57.6462 267.952H56.2322L54.4962 269.688V274H53.4602V267.028ZM61.2772 272.712V268.316L62.5652 267.028H65.9252L67.2132 268.316V269.17H66.1772V268.638L65.4772 267.952H63.0132L62.3132 268.638V272.39L63.0132 273.076H65.4772L66.1772 272.39V271.858H67.2132V272.712L65.9252 274H62.5652L61.2772 272.712ZM68.8257 265.432V264.816L69.2457 264.396H69.8617L70.2817 264.816V265.432L69.8617 265.852H69.2457L68.8257 265.432ZM69.0357 267.028H70.0717V274H69.0357V267.028ZM72.3137 272.712V264.004H73.3497V268.386L74.7077 267.028H77.1577L78.4457 268.316V272.712L77.1577 274H73.6017L72.3137 272.712ZM76.7097 273.076L77.4097 272.39V268.638L76.7097 267.952H75.0017L73.3497 269.604V272.39L74.0497 273.076H76.7097ZM80.4774 264.004H81.5134V274H80.4774V264.004ZM83.5487 272.712V268.316L84.8367 267.028H88.3507L89.6527 268.316V270.822H84.5847V272.39L85.2847 273.076H87.9027L88.6027 272.39V271.858H89.6387V272.712L88.3507 274H84.8367L83.5487 272.712ZM88.6167 269.926V268.638L87.9167 267.952H85.2847L84.5847 268.638V269.926H88.6167ZM91.6516 274H91.4836L91.0776 273.594V272.978L91.4836 272.572H92.0996L92.5056 272.978V274L91.8056 275.736H91.2316L91.6516 274ZM97.4923 272.852V271.074L98.6403 269.94H102.364V268.61L101.664 267.924H99.2843L98.5843 268.61V269.184H97.5483V268.316L98.8363 267.028H102.098L103.386 268.316V274H102.392V272.768L101.104 274H98.6403L97.4923 272.852ZM100.894 273.104L102.364 271.69V270.836H99.0883L98.5283 271.382V272.558L99.0883 273.104H100.894ZM105.413 267.028H106.421V268.512L107.905 267.028H110.047L111.335 268.316V274H110.299V268.638L109.599 267.952H108.185L106.449 269.688V274H105.413V267.028ZM113.23 272.712V268.316L114.518 267.028H117.206L118.354 268.036V264.004H119.39V274H118.382V272.726L117.108 274H114.518L113.23 272.712ZM116.884 273.076L118.354 271.606V269.128L117.01 267.952H114.966L114.266 268.638V272.39L114.966 273.076H116.884ZM32.05 282.004H33.086V286.484L34.542 285.028H36.712L38 286.316V292H36.964V286.638L36.264 285.952H34.822L33.086 287.688V292H32.05V282.004ZM39.9644 283.432V282.816L40.3844 282.396H41.0004L41.4204 282.816V283.432L41.0004 283.852H40.3844L39.9644 283.432ZM40.1744 285.028H41.2104V292H40.1744V285.028ZM43.3123 290.712V286.316L44.6003 285.028H47.2883L48.4363 286.036V282.004H49.4723V292H48.4643V290.726L47.1903 292H44.6003L43.3123 290.712ZM46.9663 291.076L48.4363 289.606V287.128L47.0923 285.952H45.0483L44.3483 286.638V290.39L45.0483 291.076H46.9663ZM51.4334 290.712V286.316L52.7214 285.028H56.2354L57.5374 286.316V288.822H52.4694V290.39L53.1694 291.076H55.7874L56.4874 290.39V289.858H57.5234V290.712L56.2354 292H52.7214L51.4334 290.712ZM56.5014 287.926V286.638L55.8014 285.952H53.1694L52.4694 286.638V287.926H56.5014ZM68.7051 285.028V293.778L67.4171 295.052H64.0571L62.9791 293.974V293.12H64.0151V293.652L64.5051 294.128H66.9691L67.6691 293.442V290.516L66.1851 292H64.0571L62.7691 290.712V285.028H63.8051V290.39L64.5051 291.076H65.9051L67.6691 289.312V285.028H68.7051ZM70.6698 290.712V286.316L71.9578 285.028H75.5418L76.8298 286.316V290.712L75.5418 292H71.9578L70.6698 290.712ZM75.0938 291.076L75.7938 290.39V286.638L75.0938 285.952H72.4058L71.7058 286.638V290.39L72.4058 291.076H75.0938ZM78.7241 290.712V285.028H79.7601V290.39L80.4601 291.076H81.8601L83.5961 289.34V285.028H84.6321V292H83.6241V290.516L82.1401 292H80.0121L78.7241 290.712ZM86.7375 285.028H87.7455V286.274L88.9915 285.028H90.7975V285.952H89.2575L87.7735 287.436V292H86.7375V285.028ZM95.5422 290.712V282.004H96.5782V286.386L97.9362 285.028H100.386L101.674 286.316V290.712L100.386 292H96.8302L95.5422 290.712ZM99.9382 291.076L100.638 290.39V286.638L99.9382 285.952H98.2302L96.5782 287.604V290.39L97.2782 291.076H99.9382ZM103.426 290.852V289.074L104.574 287.94H108.298V286.61L107.598 285.924H105.218L104.518 286.61V287.184H103.482V286.316L104.77 285.028H108.032L109.32 286.316V292H108.326V290.768L107.038 292H104.574L103.426 290.852ZM106.828 291.104L108.298 289.69V288.836H105.022L104.462 289.382V290.558L105.022 291.104H106.828ZM111.207 290.712V286.316L112.495 285.028H115.183L116.331 286.036V282.004H117.367V292H116.359V290.726L115.085 292H112.495L111.207 290.712ZM114.861 291.076L116.331 289.606V287.128L114.987 285.952H112.943L112.243 286.638V290.39L112.943 291.076H114.861ZM31.91 308.712V304.316L33.198 303.028H35.886L37.034 304.036V300.004H38.07V310H37.062V308.726L35.788 310H33.198L31.91 308.712ZM35.564 309.076L37.034 307.606V305.128L35.69 303.952H33.646L32.946 304.638V308.39L33.646 309.076H35.564ZM40.0311 308.712V304.316L41.3191 303.028H44.8331L46.1351 304.316V306.822H41.0671V308.39L41.7671 309.076H44.3851L45.0851 308.39V307.858H46.1211V308.712L44.8331 310H41.3191L40.0311 308.712ZM45.0991 305.926V304.638L44.3991 303.952H41.7671L41.0671 304.638V305.926H45.0991ZM47.8788 308.712V304.316L49.1668 303.028H52.5268L53.8148 304.316V305.17H52.7788V304.638L52.0788 303.952H49.6148L48.9148 304.638V308.39L49.6148 309.076H52.0788L52.7788 308.39V307.858H53.8148V308.712L52.5268 310H49.1668L47.8788 308.712ZM55.4273 301.432V300.816L55.8473 300.396H56.4633L56.8833 300.816V301.432L56.4633 301.852H55.8473L55.4273 301.432ZM55.6373 303.028H56.6733V310H55.6373V303.028ZM58.5652 308.852V307.984H59.6012V308.558L60.1612 309.104H62.7372L63.2972 308.558V307.48L62.7372 306.92H59.7272L58.6212 305.814V304.176L59.7692 303.028H63.0452L64.1932 304.176V305.044H63.1572V304.47L62.5972 303.924H60.2172L59.6572 304.47V305.492L60.2172 306.052H63.1852L64.3332 307.2V308.852L63.1852 310H59.7132L58.5652 308.852ZM66.0093 301.432V300.816L66.4293 300.396H67.0453L67.4653 300.816V301.432L67.0453 301.852H66.4293L66.0093 301.432ZM66.2193 303.028H67.2553V310H66.2193V303.028ZM69.3573 308.712V304.316L70.6453 303.028H74.2293L75.5173 304.316V308.712L74.2293 310H70.6453L69.3573 308.712ZM73.7813 309.076L74.4813 308.39V304.638L73.7813 303.952H71.0933L70.3933 304.638V308.39L71.0933 309.076H73.7813ZM77.4816 303.028H78.4896V304.512L79.9736 303.028H82.1156L83.4036 304.316V310H82.3676V304.638L81.6676 303.952H80.2536L78.5176 305.688V310H77.4816V303.028ZM85.0887 308.852V307.984H86.1247V308.558L86.6847 309.104H89.2607L89.8207 308.558V307.48L89.2607 306.92H86.2507L85.1447 305.814V304.176L86.2927 303.028H89.5687L90.7167 304.176V305.044H89.6807V304.47L89.1207 303.924H86.7407L86.1807 304.47V305.492L86.7407 306.052H89.7087L90.8567 307.2V308.852L89.7087 310H86.2367L85.0887 308.852ZM95.9507 301.432V300.816L96.3707 300.396H96.9867L97.4067 300.816V301.432L96.9867 301.852H96.3707L95.9507 301.432ZM96.1607 303.028H97.1967V310H96.1607V303.028ZM99.4387 303.028H100.447V304.512L101.931 303.028H104.073L105.361 304.316V310H104.325V304.638L103.625 303.952H102.211L100.475 305.688V310H99.4387V303.028ZM110.464 308.852V307.984H111.5V308.558L112.06 309.104H114.636L115.196 308.558V307.48L114.636 306.92H111.626L110.52 305.814V304.176L111.668 303.028H114.944L116.092 304.176V305.044H115.056V304.47L114.496 303.924H112.116L111.556 304.47V305.492L112.116 306.052H115.084L116.232 307.2V308.852L115.084 310H111.612L110.464 308.852ZM118.608 308.712V303.938H117.348V303.028H118.636V300.76H119.644V303.028H121.828V303.938H119.644V308.39L120.344 309.09H121.828V310H119.896L118.608 308.712ZM129.23 303.028V311.778L127.942 313.052H124.582L123.504 311.974V311.12H124.54V311.652L125.03 312.128H127.494L128.194 311.442V308.516L126.71 310H124.582L123.294 308.712V303.028H124.33V308.39L125.03 309.076H126.43L128.194 307.312V303.028H129.23ZM131.405 300.004H132.441V310H131.405V300.004ZM134.476 308.712V304.316L135.764 303.028H139.278L140.58 304.316V306.822H135.512V308.39L136.212 309.076H138.83L139.53 308.39V307.858H140.566V308.712L139.278 310H135.764L134.476 308.712ZM139.544 305.926V304.638L138.844 303.952H136.212L135.512 304.638V305.926H139.544ZM142.59 302.076V300.2H143.654V302.076L143.444 307.732H142.8L142.59 302.076ZM142.464 309.622V309.062L142.842 308.684H143.402L143.78 309.062V309.622L143.402 310H142.842L142.464 309.622Z" fill="#F9F9FB"/>
<g opacity="0.5" filter="url(#filter0_d_490_4762)">
<rect x="28" y="325" width="125" height="33" rx="10" fill="#00644F"/>
<path d="M50.1433 334.8H52.4633V344.048C52.4633 344.592 52.2713 345.056 51.8873 345.44C51.5033 345.813 51.0446 346 50.5113 346H46.3353V334.8H48.6553V344.048H50.1433V334.8ZM58.0467 334.8H60.3667V346H58.0467V344.048L55.9827 339.2V346H53.6947V334.8H55.9027L58.0467 339.84V334.8ZM63.9678 344.048H66.5758L65.5998 346H61.6478V334.8H63.9678V344.048ZM71.2297 334.8C71.763 334.8 72.2164 334.992 72.5897 335.376C72.9737 335.749 73.1657 336.208 73.1657 336.752V344.048C73.1657 344.592 72.9737 345.056 72.5897 345.44C72.2164 345.813 71.763 346 71.2297 346H68.9417C68.3977 346 67.9337 345.813 67.5497 345.44C67.1764 345.056 66.9897 344.592 66.9897 344.048V336.752C66.9897 336.208 67.1764 335.749 67.5497 335.376C67.9337 334.992 68.3977 334.8 68.9417 334.8H71.2297ZM70.8457 344.048V336.752H69.3097V344.048H70.8457ZM76.6222 344.048H79.6942L79.8382 346H76.2542C75.7102 346 75.2462 345.813 74.8622 345.44C74.4889 345.056 74.3022 344.592 74.3022 344.048V336.752C74.3022 336.208 74.4889 335.749 74.8622 335.376C75.2462 334.992 75.7102 334.8 76.2542 334.8H79.8382L79.4862 336.752H76.6222V344.048ZM86.8573 334.8L84.8893 339.6L86.6013 346H84.2333L83.3853 342.72H82.9053V346H80.5853V334.8H82.9053V339.616L84.8893 334.8H86.8573ZM102.269 340.544H100.669V344.096H103.901V346.048H98.3491V340.272L100.173 338.544H101.805V336.784H99.3251V334.848H102.269C102.781 334.848 103.218 335.029 103.581 335.392C103.944 335.755 104.125 336.187 104.125 336.688V338.688C104.125 339.2 103.944 339.637 103.581 340C103.218 340.363 102.781 340.544 102.269 340.544ZM109.114 334.848L110.954 337.152V344.208C110.954 344.709 110.773 345.141 110.41 345.504C110.058 345.867 109.626 346.048 109.114 346.048H107.05C106.538 346.048 106.101 345.872 105.738 345.52C105.386 345.157 105.21 344.72 105.21 344.208V336.8C105.21 336.256 105.397 335.797 105.77 335.424C106.154 335.04 106.618 334.848 107.162 334.848H107.53H109.114ZM108.666 344.096V336.8H107.53V344.096H108.666ZM111.986 344.112H113.938V346.048L113.442 347.12H112.466L112.962 346.048H111.986V344.112ZM118.88 334.848L120.72 337.152V344.208C120.72 344.709 120.538 345.141 120.176 345.504C119.824 345.867 119.392 346.048 118.88 346.048H116.816C116.304 346.048 115.866 345.872 115.504 345.52C115.152 345.157 114.976 344.72 114.976 344.208V336.8C114.976 336.256 115.162 335.797 115.536 335.424C115.92 335.04 116.384 334.848 116.928 334.848H117.296H118.88ZM118.432 344.096V336.8H117.296V344.096H118.432ZM125.864 334.848L127.704 337.152V344.208C127.704 344.709 127.523 345.141 127.16 345.504C126.808 345.867 126.376 346.048 125.864 346.048H123.8C123.288 346.048 122.851 345.872 122.488 345.52C122.136 345.157 121.96 344.72 121.96 344.208V336.8C121.96 336.256 122.147 335.797 122.52 335.424C122.904 335.04 123.368 334.848 123.912 334.848H124.28H125.864ZM125.416 344.096V336.8H124.28V344.096H125.416ZM132.848 334.848L134.688 337.152V344.208C134.688 344.709 134.507 345.141 134.144 345.504C133.792 345.867 133.36 346.048 132.848 346.048H130.784C130.272 346.048 129.835 345.872 129.472 345.52C129.12 345.157 128.944 344.72 128.944 344.208V336.8C128.944 336.256 129.131 335.797 129.504 335.424C129.888 335.04 130.352 334.848 130.896 334.848H131.264H132.848ZM132.4 344.096V336.8H131.264V344.096H132.4Z" fill="#F9F9FB"/>
<g filter="url(#filter1_d_490_4762)">
<path d="M93.3001 343.996C94.7891 343.996 95.9964 342.789 95.9964 341.3C95.9964 339.811 94.7891 338.604 93.3001 338.604C91.8111 338.604 90.6038 339.811 90.6038 341.3C90.6038 342.789 91.8111 343.996 93.3001 343.996ZM93.3001 339.288C94.4109 339.288 95.3123 340.197 95.3123 341.3C95.3123 342.403 94.4109 343.312 93.3001 343.312C92.1893 343.312 91.2879 342.403 91.2879 341.3C91.2879 340.197 92.1975 339.288 93.3001 339.288Z" fill="url(#paint0_linear_490_4762)"/>
<path fill-rule="evenodd" clip-rule="evenodd" d="M95.1107 341.299C95.1107 342.297 94.2977 343.11 93.2997 343.11C92.3018 343.11 91.4888 342.297 91.4888 341.299C91.4888 340.301 92.3018 339.488 93.2997 339.488C94.2977 339.488 95.1107 340.301 95.1107 341.299ZM93.1938 341.687L93.5349 340.407H94.0752L94.2412 340.039H93.0007L93.2965 340.488L93.1003 340.377L92.723 341.783C92.6948 341.886 92.7069 341.973 92.7592 342.046C92.8115 342.116 92.889 342.151 92.9916 342.151H93.6768L93.7462 341.783H92.9946L93.1938 341.687Z" fill="url(#paint1_linear_490_4762)"/>
<path d="M93.3001 343.233C94.3625 343.233 95.2318 342.363 95.2318 341.301C95.2318 340.239 94.3625 339.369 93.3001 339.369C92.2377 339.369 91.3684 340.239 91.3684 341.301C91.3684 342.363 92.2377 343.233 93.3001 343.233ZM93.3001 339.45C94.3222 339.45 95.1513 340.279 95.1513 341.301C95.1513 342.323 94.3222 343.152 93.3001 343.152C92.278 343.152 91.4489 342.323 91.4489 341.301C91.4489 340.279 92.278 339.45 93.3001 339.45Z" fill="url(#paint2_linear_490_4762)"/>
<path d="M93.3 344.6C95.1192 344.6 96.6 343.119 96.6 341.3C96.6 339.481 95.1192 338 93.3 338C91.4808 338 90 339.481 90 341.3C90 343.119 91.4808 344.6 93.3 344.6ZM93.3 338.362C94.9179 338.362 96.2378 339.682 96.2378 341.3C96.2378 342.918 94.9179 344.238 93.3 344.238C91.6821 344.238 90.3622 342.918 90.3622 341.3C90.3622 339.682 91.6821 338.362 93.3 338.362Z" fill="url(#paint3_linear_490_4762)"/>
</g>
</g>
<rect opacity="0.05" x="273" y="60.8359" width="82" height="82.6721" rx="13.4426" fill="#F9F9FB"/>
<path d="M332.334 107.162C332.575 106.633 332.538 105.935 332.71 105.465C334.192 105.066 335.557 103.771 335.342 102.088H335.342C335.365 101.949 335.346 101.807 335.289 101.678L334.227 99.237H334.228C333.897 98.4752 333.35 97.8273 332.654 97.3742C331.958 96.9209 331.145 96.6821 330.314 96.6876C330.314 95.184 330.21 93.6824 330.004 92.193C329.593 91.76 329.255 91.2626 329.005 90.7207C328.833 90.3129 328.47 90.0169 328.036 89.9302C327.416 89.8094 326.777 90.0175 326.347 90.4805C325.646 91.065 324.747 91.3558 323.837 91.2923C322.927 91.2287 322.077 90.8155 321.465 90.1394C320 88.5408 320.597 85.9467 322.348 84.7849C322.637 84.6126 322.821 84.3082 322.839 83.9727C322.858 83.6373 322.709 83.3143 322.441 83.1112C321.748 82.5855 321.214 81.8774 320.899 81.066C320.584 80.2546 320.501 79.3718 320.659 78.516C319.488 77.9883 318.261 77.5956 317.001 77.3457C316.205 78.8277 314.791 79.8785 313.142 80.213C312.651 80.3872 312.273 80.7849 312.123 81.2837C311.973 81.7827 312.069 82.3231 312.383 82.7392C312.816 83.574 312.893 84.5491 312.594 85.4412C312.295 86.3332 311.647 87.0658 310.798 87.4714C309.949 87.8768 308.973 87.9205 308.091 87.5922C307.209 87.2641 306.499 86.5921 306.122 85.7303C305.942 85.2852 305.632 84.747 305.137 84.6843C304.849 84.6198 304.548 84.7009 304.331 84.9011C303.599 85.5146 302.698 85.8909 301.747 85.9794C300.796 86.068 299.841 85.8649 299.008 85.3972C297.412 88.427 296.613 92.2087 296.606 96.7108C296.066 96.7674 295.542 96.9279 295.064 97.1834C293.432 97.8676 292.772 100.207 292.096 101.678C291.614 103.455 293.022 105.049 294.675 105.466C294.851 105.935 294.808 106.633 295.051 107.162L295.051 107.162C295.651 108.483 295.691 109.991 295.16 111.342L294.751 112.338C294.513 112.932 294.584 113.606 294.94 114.138C295.297 114.67 295.892 114.992 296.533 114.999H299.089C299.668 114.994 300.216 114.731 300.581 114.281C300.946 113.831 301.09 113.241 300.975 112.674C300.604 110.645 299.779 107.693 299.801 105.651C302.381 105.235 304.881 104.424 307.213 103.245C307.307 103.267 307.4 103.286 307.493 103.308L307.492 103.307C311.672 104.213 316 104.192 320.171 103.244C322.503 104.424 325.004 105.235 327.584 105.651C327.608 107.683 326.795 110.668 326.411 112.675L326.411 112.674C326.291 113.243 326.434 113.835 326.8 114.286C327.166 114.737 327.715 114.999 328.296 114.999H330.852C331.493 114.993 332.089 114.67 332.445 114.138C332.801 113.606 332.872 112.932 332.634 112.337L332.225 111.342C331.695 109.992 331.734 108.484 332.334 107.162L332.334 107.162ZM332.576 103.879C332.391 103.048 332.164 102.228 331.894 101.421C334.627 101.5 334.138 103.236 332.576 103.879ZM309.182 95.9591C310.329 96.3118 311.209 95.1914 311.127 94.0994V94.0992C311.141 93.1747 311.524 92.2938 312.191 91.6532C312.857 91.0125 313.753 90.6655 314.677 90.6892C315.602 90.7131 316.478 91.106 317.111 91.78C317.745 92.454 318.082 93.3534 318.047 94.2776L318.024 94.8665C318.016 95.5437 318.422 96.1545 319.233 96.0134C320.045 95.8411 320.888 95.8888 321.676 96.1518C322.463 96.4148 323.166 96.8832 323.712 97.509C323.123 97.6407 322.519 97.7957 321.899 97.9817C321.228 97.5247 320.401 97.357 319.605 97.5166C318.804 97.6905 317.968 97.4738 317.351 96.9327C316.735 96.3916 316.413 95.5903 316.482 94.7734C316.616 94.1756 316.484 93.5489 316.12 93.0566C315.755 92.564 315.194 92.2546 314.584 92.2085C314.005 92.2459 313.469 92.5214 313.102 92.9696C312.734 93.4176 312.57 93.9979 312.646 94.5721C312.6 95.5471 312.109 96.4472 311.313 97.013C310.558 97.5578 309.591 97.7156 308.702 97.4392C307.579 97.1278 306.377 97.3142 305.401 97.9506C304.765 97.7723 304.146 97.6097 303.541 97.4779C304.254 96.735 305.156 96.2009 306.15 95.9332C307.145 95.6656 308.193 95.6745 309.182 95.9592L309.182 95.9591ZM293.561 102.257C293.648 101.941 294.047 101.528 295.488 101.429V101.429C295.219 102.233 294.992 103.051 294.808 103.879C294.155 103.62 293.396 103.033 293.561 102.257ZM299.382 113.309C299.311 113.398 299.203 113.449 299.089 113.449H296.533C296.405 113.452 296.285 113.39 296.214 113.284C296.143 113.179 296.132 113.044 296.184 112.927L296.594 111.932C296.929 111.092 297.096 110.193 297.082 109.288C297.069 108.383 296.877 107.489 296.516 106.659C295.829 105.019 296.615 103.024 297.106 101.437C297.524 101.462 297.99 101.503 298.51 101.565V101.565C298.112 104.136 298.17 106.757 298.681 109.308L299.458 112.993C299.482 113.105 299.454 113.221 299.382 113.309L299.382 113.309ZM299.815 104.079C299.842 103.351 299.948 102.517 300.044 101.788C301.487 102.016 303.051 102.326 304.693 102.683L304.692 102.683C303.123 103.326 301.487 103.794 299.815 104.08L299.815 104.079ZM315.3 102.388C310.058 102.878 304.394 100.735 299.607 100.148C297.924 99.8356 296.203 99.7871 294.506 100.004L294.575 99.8487L294.575 99.8488C294.779 99.3592 295.127 98.9431 295.573 98.6554C296.018 98.3677 296.54 98.2217 297.07 98.237C299.935 98.3109 302.776 98.7723 305.517 99.6086C308.732 100.706 312.132 101.156 315.521 100.934C318.282 100.582 321.003 99.9725 323.65 99.1126C325.833 98.5808 328.067 98.2874 330.314 98.237C330.87 98.2237 331.415 98.3856 331.873 98.6999C332.331 99.0142 332.679 99.4646 332.866 99.9876C327.075 99.3186 321.34 101.971 315.3 102.388L315.3 102.388ZM322.69 102.682C324.308 102.331 325.897 102.011 327.34 101.781C327.436 102.513 327.543 103.348 327.571 104.079C325.897 103.794 324.261 103.326 322.69 102.682L322.69 102.682ZM331.166 113.281C331.097 113.387 330.979 113.45 330.852 113.449H328.296C328.182 113.449 328.075 113.397 328.003 113.309C327.931 113.22 327.903 113.104 327.927 112.993C328.693 109.646 329.499 105.845 328.984 102.425L328.875 101.563C329.395 101.5 329.86 101.458 330.278 101.432L330.925 103.563V103.563C331.276 104.798 331.18 106.117 330.652 107.287C330.132 108.801 330.182 110.452 330.791 111.932L331.201 112.927C331.251 113.043 331.238 113.177 331.166 113.281L331.166 113.281Z" fill="#05876C"/>
<path d="M302.814 84.0964C304.544 82.503 306.644 82.8838 307.548 85.1117C309.015 87.665 312.349 85.574 310.826 83.0735H310.826C310.412 82.2304 310.402 81.2455 310.797 80.3937C311.193 79.542 311.953 78.9149 312.864 78.6875C313.858 78.4813 314.737 77.9086 315.328 77.0834C314.721 77.0129 314.11 76.9871 313.499 77.006C309.211 76.9521 305.065 78.5439 301.914 81.4539C301.105 82.2383 300.389 83.1148 299.783 84.0653C300.728 84.567 301.858 84.5787 302.813 84.0964L302.814 84.0964Z" fill="#05876C"/>
<path d="M323.333 81.8405C323.989 82.3306 324.374 83.1024 324.371 83.9211C324.368 84.7399 323.977 85.5087 323.318 85.994C322.273 86.688 321.745 88.0998 322.628 89.117C323.035 89.5299 323.596 89.7547 324.175 89.7369C324.755 89.7194 325.3 89.4609 325.681 89.0239C326.185 88.6228 326.8 88.3855 327.443 88.344C328.086 88.3024 328.726 88.4586 329.277 88.7914C328.518 86.0149 327.046 83.4852 325.007 81.4529C324.145 80.614 323.182 79.8851 322.14 79.2832C322.104 80.2776 322.548 81.2288 323.333 81.8404L323.333 81.8405Z" fill="#05876C"/>
<path opacity="0.5" d="M344.416 69.2568V68.2213C344.398 66.9855 343.322 66 341.991 66C340.659 66 339.584 66.9855 339.584 68.2045V69.24C339.255 69.24 339 69.4739 339 69.7745V73.4655C339 73.7661 339.255 74 339.584 74H344.416C344.745 74 345 73.7661 345 73.4655L345 69.791C344.981 69.4903 344.726 69.2568 344.416 69.2568L344.416 69.2568ZM342.242 72.6136H341.751C341.59 72.6136 341.467 72.4813 341.493 72.336L341.608 71.6952C341.443 71.582 341.348 71.3837 341.376 71.1722C341.406 70.939 341.595 70.7419 341.843 70.6804C342.257 70.5771 342.647 70.8775 342.647 71.2446C342.647 71.4281 342.556 71.5952 342.41 71.6955L342.501 72.3448C342.52 72.4873 342.399 72.6136 342.242 72.6136V72.6136ZM343.632 69.2568H340.349V68.2213C340.349 67.403 341.079 66.7181 341.991 66.7181C342.884 66.7181 343.632 67.3861 343.632 68.2213L343.632 69.2568Z" fill="#F9F9FB"/>
<path d="M304.238 122.8L305.678 131.552L305.662 134H303.774L303.566 132.592H301.838L301.646 134H299.742L299.726 131.552L301.166 122.8H304.238ZM302.142 130.528H303.278L302.702 126.528L302.142 130.528ZM312.608 134H310.576L309.808 129.952H308.944V134H306.624V122.816H310.544C311.078 122.816 311.536 123.008 311.92 123.392C312.304 123.765 312.496 124.224 312.496 124.768V128.144C312.496 128.741 312.251 129.221 311.76 129.584L312.608 134ZM308.944 124.752V128.016H310.176V124.752H308.944ZM318.872 122.8H321.192V134H318.872V127.568L317.416 129.616L315.976 127.568V134H313.656V122.8H315.976V124.016L317.416 126.064L318.872 124.016V122.8ZM325.94 122.8H328.26V128.032C328.26 128.565 328.073 129.019 327.7 129.392C327.327 129.765 326.879 129.957 326.356 129.968V134H324.036V129.968C323.503 129.957 323.049 129.765 322.676 129.392C322.313 129.019 322.132 128.565 322.132 128.032V122.8H324.452V128.032H325.94V122.8Z" fill="#F9F9FB"/>
<rect opacity="0.05" x="273" y="155" width="82" height="82.6721" rx="13.4426" fill="#F9F9FB"/>
<path opacity="0.5" d="M344.416 163.421V162.385C344.398 161.15 343.322 160.164 341.991 160.164C340.659 160.164 339.584 161.15 339.584 162.369V163.404C339.255 163.404 339 163.638 339 163.939V167.63C339 167.93 339.255 168.164 339.584 168.164H344.416C344.745 168.164 345 167.93 345 167.63L345 163.955C344.981 163.654 344.726 163.421 344.416 163.421L344.416 163.421ZM342.242 166.778H341.751C341.59 166.778 341.467 166.645 341.493 166.5L341.608 165.859C341.443 165.746 341.348 165.548 341.376 165.336C341.406 165.103 341.595 164.906 341.843 164.844C342.257 164.741 342.647 165.042 342.647 165.409C342.647 165.592 342.556 165.759 342.41 165.86L342.501 166.509C342.52 166.651 342.399 166.778 342.242 166.778V166.778ZM343.632 163.421H340.349V162.385C340.349 161.567 341.079 160.882 341.991 160.882C342.884 160.882 343.632 161.55 343.632 162.385L343.632 163.421Z" fill="#F9F9FB"/>
<path d="M296.404 221.812C296.734 221.812 297.038 221.892 297.316 222.052C297.593 222.212 297.812 222.436 297.972 222.724C298.132 223.001 298.212 223.305 298.212 223.636V226.34C298.212 226.841 298.036 227.273 297.684 227.636C297.332 227.988 296.905 228.164 296.404 228.164H293.22L293.3 226.212H295.908V223.748H294.356C293.854 223.748 293.422 223.572 293.06 223.22C292.708 222.857 292.532 222.425 292.532 221.924V218.788C292.532 218.287 292.708 217.86 293.06 217.508C293.422 217.145 293.854 216.964 294.356 216.964H297.492L297.412 218.916H294.852V221.812H296.404ZM303.387 216.964H305.707V228.164H303.387V223.46H301.515V228.164H299.195V216.964H301.515V221.38H303.387V216.964ZM311.152 216.964C311.685 216.964 312.138 217.156 312.512 217.54C312.896 217.913 313.088 218.372 313.088 218.916V226.212C313.088 226.756 312.896 227.22 312.512 227.604C312.138 227.977 311.685 228.164 311.152 228.164H308.864C308.32 228.164 307.856 227.977 307.472 227.604C307.098 227.22 306.912 226.756 306.912 226.212V218.916C306.912 218.372 307.098 217.913 307.472 217.54C307.856 217.156 308.32 216.964 308.864 216.964H311.152ZM310.768 226.212V218.916H309.232V226.212H310.768ZM317.008 221.252H320.048V226.212C320.048 226.756 319.856 227.22 319.472 227.604C319.099 227.977 318.64 228.164 318.096 228.164H316.176C315.632 228.164 315.168 227.977 314.784 227.604C314.411 227.22 314.224 226.756 314.224 226.212V218.916C314.224 218.372 314.411 217.913 314.784 217.54C315.168 217.156 315.632 216.964 316.176 216.964H319.76L319.408 218.916H316.544V226.212H317.936V223.204H317.584L317.008 221.252ZM324.956 216.964H327.276V226.212C327.276 226.756 327.084 227.22 326.7 227.604C326.316 227.977 325.857 228.164 325.324 228.164H321.148V216.964H323.468V226.212H324.956V216.964ZM332.859 216.964H335.179V228.164H332.859V226.212L330.795 221.364V228.164H328.507V216.964H330.715L332.859 222.004V216.964Z" fill="#F9F9FB"/>
<path d="M303.115 185.904C303.276 185.904 303.408 185.774 303.408 185.614C303.408 185.458 303.274 185.325 303.115 185.325C302.954 185.325 302.822 185.455 302.822 185.614C302.822 185.776 302.951 185.904 303.115 185.904ZM325.592 185.614C325.592 185.774 325.723 185.904 325.885 185.904C326.049 185.904 326.178 185.776 326.178 185.614C326.178 185.455 326.047 185.325 325.885 185.325C325.727 185.325 325.592 185.457 325.592 185.614ZM307.754 188.823L307.683 189.068C309.331 190.339 311.772 191.145 314.501 191.145C317.228 191.145 319.668 190.338 321.317 189.066L321.246 188.824C319.533 189.706 317.142 190.239 314.501 190.239C311.861 190.238 309.469 189.705 307.754 188.823L307.754 188.823ZM308.141 181.077C308.164 182.128 309.248 182.843 311.245 183.174C311.754 181.887 313.019 180.972 314.5 180.972C315.981 180.972 317.246 181.887 317.755 183.174C319.752 182.843 320.837 182.13 320.861 181.085C320.861 181.041 320.855 181.003 320.855 180.959C319.227 179.881 316.982 179.214 314.501 179.214C312.019 179.214 309.774 179.881 308.148 180.957C308.147 181 308.141 181.035 308.141 181.077L308.141 181.077ZM315.796 187.634C315.394 187.792 314.958 187.883 314.5 187.883C314.042 187.883 313.605 187.792 313.205 187.634C311.126 187.536 309.061 187.099 307.474 186.214C307.762 186.845 307.919 187.511 307.919 188.195C307.919 188.232 307.914 188.27 307.903 188.306L307.869 188.423C309.514 189.289 311.871 189.832 314.501 189.832C317.127 189.832 319.486 189.289 321.13 188.423L321.097 188.306C321.087 188.271 321.081 188.233 321.081 188.195C321.081 187.51 321.238 186.844 321.527 186.212C319.94 187.098 317.875 187.536 315.796 187.634L315.796 187.634ZM299.806 200.92C299.25 200.784 298.723 200.614 298.239 200.415C298.218 200.406 298.199 200.396 298.18 200.385C298.176 200.383 298.171 200.38 298.167 200.379L298.068 200.526L296 203.552C296.202 203.67 296.416 203.776 296.635 203.874C297.987 204.491 299.708 204.858 301.591 204.858C302.123 204.858 302.643 204.832 303.145 204.774L304.009 201.271C303.705 201.291 303.396 201.306 303.082 201.306C301.931 201.307 300.829 201.176 299.806 200.92L299.806 200.92ZM301.321 196.968C300.872 196.86 300.432 196.725 300.021 196.566C299.988 196.554 299.96 196.541 299.929 196.53L299.899 196.573L297.745 199.738C297.952 199.843 298.166 199.942 298.397 200.033V200.04C298.859 200.23 299.368 200.394 299.905 200.526C300.875 200.769 301.95 200.9 303.082 200.9C303.429 200.9 303.775 200.887 304.11 200.861L304.197 200.526L304.675 198.582C304.691 198.442 304.709 198.3 304.734 198.143C304.777 197.874 304.83 197.604 304.892 197.339C304.783 197.342 304.672 197.347 304.567 197.347C303.44 197.347 302.347 197.219 301.321 196.968L301.321 196.968ZM305.504 195.202C305.337 195.162 305.207 195.026 305.191 194.852C305.14 194.333 305.06 193.836 304.962 193.349C304.214 193.294 303.481 193.183 302.783 193.008C302.412 192.919 302.087 192.822 301.81 192.719C301.77 192.706 301.736 192.693 301.697 192.679L299.494 195.903C299.708 196.007 299.933 196.099 300.165 196.185C300.558 196.336 300.979 196.467 301.418 196.572C302.383 196.808 303.446 196.94 304.566 196.94C304.711 196.94 304.853 196.936 304.996 196.929C305.089 196.593 305.196 196.268 305.316 195.965L305.504 195.202ZM303.16 189.413L301.326 192.101C301.523 192.186 301.719 192.265 301.933 192.331C302.233 192.443 302.551 192.534 302.88 192.613C303.505 192.768 304.178 192.878 304.881 192.935C304.871 192.888 304.862 192.84 304.851 192.796L304.83 192.712C304.474 191.304 303.912 190.199 303.16 189.413ZM302.942 188.654C303.035 188.726 303.122 188.798 303.208 188.877V188.884C304.059 189.659 304.783 190.847 305.228 192.613C305.255 192.725 305.288 192.843 305.308 192.968C305.434 193.526 305.534 194.136 305.601 194.813L305.787 194.163L306.119 192.987L306.225 192.613H306.232L307.375 188.654L307.508 188.194C307.508 187.33 307.243 186.508 306.767 185.762C306.158 185.322 305.655 184.795 305.287 184.173C304.577 183.619 303.727 183.15 302.77 182.798V182.804L299.414 187.525H299.454C300.603 187.525 301.866 187.794 302.942 188.654L302.942 188.654ZM303.115 184.918C303.5 184.918 303.82 185.233 303.82 185.614C303.82 186.001 303.5 186.31 303.115 186.31C302.723 186.31 302.411 186.001 302.411 185.614C302.411 185.233 302.723 184.918 303.115 184.918ZM330.933 200.526L330.833 200.379C330.829 200.38 330.826 200.382 330.822 200.385C330.803 200.396 330.782 200.407 330.762 200.415C330.277 200.615 329.75 200.785 329.196 200.92C328.171 201.176 327.068 201.307 325.918 201.307C325.604 201.307 325.294 201.292 324.991 201.271L325.855 204.774C326.358 204.833 326.878 204.859 327.409 204.859C329.292 204.859 331.013 204.491 332.365 203.874C332.585 203.776 332.798 203.671 333 203.553L330.933 200.526ZM329.095 200.526C329.632 200.394 330.141 200.23 330.603 200.04V200.033C330.833 199.942 331.048 199.843 331.256 199.738L329.101 196.572L329.072 196.53C329.042 196.541 329.015 196.553 328.985 196.563C328.568 196.725 328.128 196.86 327.681 196.967C326.653 197.219 325.56 197.347 324.434 197.347C324.329 197.347 324.218 197.342 324.108 197.338C324.171 197.603 324.224 197.873 324.265 198.142C324.291 198.299 324.309 198.441 324.325 198.581L324.803 200.526L324.89 200.861C325.225 200.887 325.571 200.9 325.918 200.9C327.05 200.9 328.124 200.768 329.095 200.526ZM327.582 196.573C328.021 196.468 328.442 196.337 328.835 196.186C329.066 196.1 329.291 196.009 329.505 195.904L327.258 192.614L327.163 192.472C327.15 192.476 327.138 192.482 327.125 192.485C326.836 192.593 326.52 192.687 326.161 192.773C325.494 192.94 324.796 193.048 324.084 193.103C323.963 193.651 323.87 194.238 323.809 194.853C323.792 195.027 323.663 195.162 323.495 195.203L323.682 195.965C323.804 196.268 323.911 196.593 324.004 196.93C324.147 196.938 324.288 196.941 324.433 196.941C325.554 196.941 326.617 196.809 327.582 196.573ZM324.173 192.707L324.15 192.797C324.139 192.84 324.128 192.886 324.118 192.936C324.821 192.879 325.495 192.77 326.12 192.614C326.449 192.535 326.767 192.443 327.068 192.332C327.281 192.266 327.478 192.187 327.675 192.102L325.84 189.415C325.088 190.199 324.526 191.304 324.173 192.707ZM323.706 184.179C323.341 184.797 322.84 185.321 322.235 185.759C321.758 186.506 321.493 187.33 321.493 188.195L321.626 188.654L322.769 192.614H322.775L322.882 192.988L323.214 194.163L323.401 194.813C323.467 194.137 323.566 193.526 323.693 192.968C323.712 192.843 323.745 192.725 323.772 192.614C324.218 190.848 324.942 189.659 325.792 188.884V188.878C325.879 188.799 325.965 188.727 326.058 188.654C327.135 187.795 328.397 187.525 329.547 187.525H329.587L326.231 182.804V182.797C325.27 183.151 324.418 183.622 323.706 184.179L323.706 184.179ZM326.589 185.615C326.589 186.002 326.277 186.31 325.885 186.31C325.499 186.31 325.181 186.002 325.181 185.615C325.181 185.234 325.5 184.919 325.885 184.919C326.277 184.918 326.589 185.234 326.589 185.615ZM317.161 175.956C317.925 176.096 321.272 176.945 321.272 181.087C321.237 182.613 319.574 183.277 317.882 183.567C317.954 183.843 317.997 184.13 317.997 184.428C317.997 185.541 317.459 186.53 316.63 187.162C319.42 186.891 323.965 185.812 323.965 181.671C323.965 177.179 319.875 176.721 321.307 171.233C321.341 171.105 321.233 170.982 321.1 171.004C320.29 171.134 318.044 171.717 318.82 174.124C318.854 174.232 318.792 174.346 318.68 174.364C318.202 174.443 317.09 174.737 317.011 175.769C317.003 175.859 317.07 175.94 317.161 175.957L317.161 175.956ZM312.37 187.162C311.541 186.53 311.003 185.541 311.003 184.428C311.003 184.13 311.046 183.843 311.118 183.567C309.425 183.277 307.762 182.613 307.73 181.086C307.73 176.944 311.074 176.096 311.836 175.956C311.926 175.939 311.993 175.858 311.987 175.769C311.912 174.736 310.797 174.442 310.318 174.363C310.205 174.345 310.143 174.231 310.178 174.123C310.958 171.716 308.712 171.133 307.902 171.003C307.77 170.981 307.662 171.103 307.696 171.232C309.128 176.72 305.032 177.177 305.032 181.67C305.032 185.811 309.578 186.889 312.37 187.162L312.37 187.162ZM317.585 184.428C317.585 182.744 316.204 181.379 314.5 181.379C312.796 181.379 311.414 182.744 311.414 184.428C311.414 186.112 312.795 187.477 314.5 187.477C316.204 187.476 317.585 186.112 317.585 184.428ZM312.594 184.428C312.594 183.39 313.449 182.545 314.5 182.545C315.551 182.545 316.406 183.389 316.406 184.428C316.406 185.467 315.551 186.311 314.5 186.311C313.449 186.311 312.594 185.466 312.594 184.428ZM315.994 184.428C315.994 183.612 315.325 182.952 314.5 182.952C313.674 182.952 313.005 183.612 313.005 184.428C313.005 185.244 313.674 185.904 314.5 185.904C315.325 185.904 315.994 185.244 315.994 184.428ZM321.918 194.439C321.9 194.439 321.882 194.44 321.865 194.442C321.872 194.442 321.801 195.336 321.782 195.437C321.737 195.659 321.649 196.005 321.365 196.005C321.36 196.005 321.354 196.005 321.349 196.004C321.064 195.992 320.784 195.748 320.564 195.592C320.201 195.334 319.84 195.071 319.441 194.867C319.004 194.643 318.525 194.494 318.03 194.494C318.017 194.494 318.004 194.494 317.99 194.495C317.703 194.499 317.418 194.554 317.147 194.648C316.991 194.703 316.841 194.769 316.696 194.847C316.68 194.856 316.65 194.875 316.614 194.898C316.628 194.904 316.639 194.916 316.653 194.916C317.619 194.93 318.373 195.471 318.531 196.262C318.662 196.92 318.348 197.817 317.072 198.357C317.046 198.368 317.018 198.373 316.991 198.373C316.911 198.373 316.835 198.327 316.801 198.251C316.757 198.148 316.805 198.027 316.909 197.984C317.96 197.54 318.227 196.844 318.126 196.341C318.027 195.844 317.532 195.336 316.649 195.322C316.503 195.322 316.361 195.258 316.261 195.147C316.247 195.132 316.239 195.115 316.231 195.097C316.229 195.096 316.226 195.096 316.225 195.095C316.14 195.011 316.079 194.906 315.984 194.83C315.889 194.754 315.774 194.696 315.661 194.65C315.293 194.501 314.891 194.467 314.499 194.443C314.447 194.439 314.394 194.438 314.34 194.438C313.861 194.438 313.294 194.565 312.942 194.871C312.896 194.911 312.837 195.012 312.782 195.056C312.774 195.088 312.762 195.12 312.738 195.147C312.638 195.259 312.495 195.322 312.346 195.322C311.466 195.336 310.971 195.844 310.872 196.341C310.772 196.844 311.039 197.539 312.089 197.984C312.194 198.028 312.242 198.148 312.197 198.251C312.164 198.328 312.088 198.374 312.008 198.374C311.981 198.374 311.953 198.368 311.927 198.357C310.651 197.817 310.337 196.921 310.469 196.262C310.626 195.472 311.38 194.931 312.344 194.916C312.36 194.916 312.372 194.903 312.387 194.896C312.351 194.876 312.316 194.854 312.28 194.835C312.105 194.744 311.923 194.667 311.734 194.609C311.483 194.533 311.226 194.496 310.969 194.496C310.692 194.496 310.415 194.539 310.147 194.623C309.69 194.765 309.273 195.009 308.881 195.277C308.573 195.487 308.281 195.735 307.949 195.906C307.847 195.96 307.738 195.999 307.637 195.999C307.533 195.999 307.437 195.957 307.362 195.846C307.266 195.702 307.23 195.517 307.203 195.349C307.188 195.259 307.133 194.442 307.134 194.442C307.116 194.44 307.099 194.439 307.081 194.439C306.395 194.439 305.484 196.028 305.14 198.205C304.895 199.72 305.075 200.19 305.788 200.752C306.033 200.944 306.371 201.086 306.789 201.257C308.264 201.875 307.65 206.325 312.384 209.038C312.284 208.787 312.231 208.513 312.231 208.23C312.231 207.82 312.347 207.425 312.566 207.088C312.627 206.993 312.755 206.966 312.85 207.027C312.946 207.087 312.973 207.213 312.912 207.307C312.858 207.39 312.815 207.479 312.776 207.569C312.69 207.776 312.642 207.998 312.642 208.229C312.642 208.593 312.75 208.933 312.944 209.216C312.994 209.29 313.05 209.359 313.111 209.424C313.471 209.78 313.961 210 314.5 210C315.04 210 315.53 209.779 315.882 209.431C315.883 209.431 315.883 209.431 315.885 209.43C315.948 209.364 316.004 209.293 316.056 209.218C316.25 208.935 316.357 208.595 316.357 208.23C316.357 207.999 316.31 207.777 316.223 207.571C316.185 207.48 316.142 207.391 316.088 207.308C316.026 207.214 316.054 207.088 316.15 207.028C316.245 206.967 316.374 206.995 316.434 207.089C316.653 207.426 316.769 207.821 316.769 208.231C316.769 208.516 316.716 208.79 316.615 209.043C321.349 206.324 320.735 201.875 322.211 201.258C322.628 201.087 322.967 200.945 323.212 200.753C323.924 200.191 324.104 199.721 323.86 198.206C323.516 196.028 322.604 194.439 321.919 194.439L321.918 194.439ZM311.865 197.43C311.821 197.209 311.965 196.989 312.188 196.947C312.225 196.94 312.253 196.933 312.282 196.933L312.361 196.94C312.692 196.947 313.052 197.21 313.168 197.431C313.304 197.659 313.377 197.837 313.485 197.993C313.651 198.234 313.918 198.399 314.199 198.481C314.3 198.51 314.407 198.527 314.512 198.526C314.663 198.525 314.811 198.487 314.949 198.429C315.079 198.375 315.228 198.306 315.329 198.207C315.357 198.18 315.387 198.155 315.413 198.126C315.451 198.084 315.485 198.04 315.514 197.992C315.622 197.836 315.694 197.658 315.831 197.43C315.946 197.209 316.306 196.947 316.637 196.939L316.717 196.932C316.947 196.932 317.135 197.11 317.142 197.337C317.149 197.565 316.962 197.757 316.732 197.764C316.703 197.764 316.666 197.757 316.637 197.757C316.529 197.729 316.479 197.714 316.335 197.835C316.198 197.949 316.054 198.149 315.861 198.305C315.62 198.497 315.323 198.64 315.012 198.657C314.866 198.666 314.719 198.655 314.573 198.654C314.317 198.652 314.062 198.673 313.808 198.632C313.57 198.582 313.333 198.467 313.139 198.305C312.944 198.148 312.801 197.949 312.664 197.835C312.52 197.714 312.469 197.728 312.361 197.756C312.131 197.801 311.908 197.658 311.865 197.43L311.865 197.43ZM321.853 200.251C321.087 200.931 320.352 202.263 319.965 203.033C319.948 203.382 319.882 203.716 319.752 204.004C319.662 204.242 319.426 204.401 319.165 204.401C319.119 204.401 319.079 204.383 319.035 204.374C318.992 204.37 318.948 204.365 318.908 204.348C318.48 204.164 318.004 204.011 317.489 203.888C317.481 203.886 317.474 203.884 317.466 203.882C317.329 203.85 317.186 203.821 317.044 203.793C316.251 203.639 315.39 203.556 314.5 203.556C313.662 203.556 312.845 203.628 312.069 203.769C311.336 203.905 310.67 204.1 310.092 204.347C310.045 204.367 309.996 204.375 309.946 204.377C309.909 204.383 309.873 204.4 309.835 204.4C309.574 204.4 309.338 204.241 309.258 204.029C309.116 203.719 309.047 203.381 309.032 203.028C308.645 202.258 307.912 200.93 307.145 200.249C306.984 200.104 306.925 199.882 306.995 199.683C307.061 199.496 307.232 199.365 307.434 199.345C307.538 199.331 307.647 199.324 307.757 199.324C308.562 199.324 309.792 199.675 311.12 201.302C312.131 201.545 313.293 201.675 314.5 201.675C315.693 201.675 316.858 201.544 317.875 201.306C319.205 199.675 320.436 199.324 321.242 199.324C321.352 199.324 321.461 199.331 321.565 199.344C321.767 199.365 321.939 199.496 322.004 199.683C322.075 199.882 322.016 200.105 321.853 200.251ZM314.5 202.083C313.422 202.083 312.407 201.98 311.502 201.801C311.78 202.193 312.058 202.64 312.333 203.141C312.37 203.193 312.392 203.254 312.401 203.316C313.065 203.216 313.762 203.15 314.5 203.15C315.235 203.15 315.939 203.207 316.6 203.306C316.61 203.248 316.63 203.192 316.664 203.143C316.664 203.143 316.664 203.142 316.666 203.141C316.935 202.648 317.214 202.201 317.494 201.807C316.589 201.983 315.575 202.083 314.5 202.083ZM310.893 201.671C309.598 200.029 308.428 199.731 307.758 199.731C307.652 199.731 307.559 199.739 307.48 199.749C307.372 199.757 307.343 199.877 307.423 199.949C308.215 200.653 308.963 201.969 309.431 202.908C309.741 203.527 309.928 203.975 309.928 203.975C310.526 203.719 311.224 203.513 311.994 203.37C311.987 203.363 311.98 203.348 311.972 203.335C311.606 202.666 311.246 202.119 310.893 201.671ZM321.52 199.75C321.44 199.739 321.347 199.732 321.242 199.732C320.572 199.732 319.401 200.029 318.107 201.671C317.754 202.119 317.394 202.666 317.027 203.336C317.02 203.349 317.013 203.363 317.005 203.371C317.776 203.513 318.474 203.72 319.071 203.976C319.071 203.976 319.259 203.528 319.569 202.909C320.036 201.97 320.785 200.654 321.577 199.95C321.656 199.878 321.627 199.757 321.52 199.75Z" fill="#FFB4C2"/>
<rect opacity="0.05" x="273" y="249" width="82" height="82.6721" rx="13.4426" fill="#F9F9FB"/>
<path fill-rule="evenodd" clip-rule="evenodd" d="M307.761 303.984C307.337 303.984 304.983 304.045 304.767 303.929C304.314 303.687 300.375 301.425 300.885 296.461C300.885 293.956 300.803 292.334 300.725 290.765C300.65 289.285 300.574 287.758 300.565 285.49H309.657V290.292H305.737L306.076 291.145C306.387 291.615 308.216 292.98 308.216 293.458V303.527C308.216 303.78 308.012 303.984 307.759 303.984L307.761 303.984ZM303.157 288.968C301.14 288.968 301.14 285.902 303.157 285.902C305.173 285.902 305.173 288.968 303.157 288.968ZM303.157 286.816C302.344 286.816 302.342 288.053 303.157 288.053C303.972 288.053 303.972 286.816 303.157 286.816ZM307.078 288.968C305.061 288.968 305.062 285.902 307.078 285.902C309.095 285.902 309.095 288.968 307.078 288.968ZM307.078 286.816C306.265 286.816 306.264 288.053 307.078 288.053C307.893 288.053 307.893 286.816 307.078 286.816Z" fill="#C2B0FF"/>
<path fill-rule="evenodd" clip-rule="evenodd" d="M322.669 303.984H319.891C319.638 303.984 319.434 303.779 319.434 303.527V293.458C319.434 292.981 321.261 291.617 321.574 291.145L321.913 290.292H317.993V285.49H327.086C327.077 287.756 327.001 289.284 326.926 290.764C326.849 292.332 326.767 293.953 326.767 296.459C327.275 301.424 323.337 303.685 322.885 303.927C322.819 303.964 322.745 303.982 322.67 303.982L322.669 303.984ZM320.567 288.968C318.549 288.968 318.549 285.903 320.567 285.903C322.583 285.903 322.583 288.968 320.567 288.968ZM320.567 286.816C319.754 286.816 319.752 288.053 320.567 288.053C321.382 288.053 321.38 286.816 320.567 286.816ZM324.489 288.968C322.472 288.968 322.472 285.903 324.489 285.903C326.506 285.903 326.506 288.968 324.489 288.968ZM324.489 286.816C323.675 286.816 323.674 288.053 324.489 288.053C325.303 288.053 325.302 286.816 324.489 286.816Z" fill="#C2B0FF"/>
<path fill-rule="evenodd" clip-rule="evenodd" d="M300.574 284.578C300.772 279.186 304.465 274.433 309.658 272.748V284.578H300.574ZM303.571 283.207C303.277 283.207 303.058 282.933 303.127 282.646C303.823 279.697 305.792 277.166 308.528 275.698C309.058 275.413 309.489 276.219 308.959 276.504C306.452 277.847 304.649 280.162 304.014 282.856C303.964 283.066 303.776 283.208 303.569 283.208L303.571 283.207Z" fill="#C2B0FF"/>
<path fill-rule="evenodd" clip-rule="evenodd" d="M317.992 272.748C323.189 274.435 326.887 279.206 327.084 284.578H317.992V272.748ZM324.079 283.207C323.872 283.207 323.685 283.066 323.634 282.856C322.999 280.163 321.196 277.847 318.689 276.503C318.159 276.219 318.592 275.413 319.12 275.698C321.858 277.164 323.827 279.697 324.522 282.645C324.59 282.933 324.371 283.207 324.077 283.207L324.079 283.207Z" fill="#C2B0FF"/>
<path fill-rule="evenodd" clip-rule="evenodd" d="M313.776 297.87C313.609 297.87 313.454 297.777 313.374 297.629C313.042 297.011 310.572 292.582 310.572 292.308V271.228C310.572 270.976 310.776 270.771 311.029 270.771H316.623C316.876 270.771 317.08 270.976 317.08 271.228V292.308C317.08 292.587 314.52 297.014 314.176 297.635C314.096 297.78 313.943 297.87 313.777 297.87L313.776 297.87ZM313.827 276.686C311.81 276.686 311.81 273.622 313.827 273.622C315.843 273.622 315.843 276.686 313.827 276.686ZM313.827 274.536C313.012 274.536 313.012 275.773 313.827 275.773C314.64 275.773 314.64 274.536 313.827 274.536ZM313.827 280.608C311.81 280.608 311.81 277.544 313.827 277.544C315.843 277.544 315.843 280.608 313.827 280.608ZM313.827 278.456C313.012 278.456 313.012 279.692 313.827 279.692C314.64 279.692 314.64 278.456 313.827 278.456ZM313.827 284.541C311.81 284.541 311.81 281.477 313.827 281.477C315.843 281.477 315.843 284.541 313.827 284.541ZM313.827 282.391C313.012 282.391 313.012 283.628 313.827 283.628C314.64 283.628 314.64 282.391 313.827 282.391ZM313.827 288.476C311.81 288.476 311.81 285.412 313.827 285.412C315.843 285.412 315.843 288.476 313.827 288.476ZM313.827 286.325C313.012 286.325 313.012 287.561 313.827 287.561C314.641 287.561 314.641 286.325 313.827 286.325ZM313.827 293.476C313.682 293.476 313.546 293.408 313.46 293.292L312.155 291.531C312.034 291.37 312.034 291.149 312.155 290.988C314.081 288.391 313.572 288.385 315.5 290.988C315.621 291.149 315.621 291.37 315.5 291.531L314.195 293.292C314.11 293.408 313.973 293.476 313.828 293.476H313.827ZM313.09 291.259L313.827 292.252L314.564 291.257L313.827 290.263L313.09 291.257V291.259Z" fill="#C2B0FF"/>
<path fill-rule="evenodd" clip-rule="evenodd" d="M300.04 281.841C297.74 279.834 294.862 275.149 298.785 265.286C298.972 264.817 299.676 264.96 299.667 265.464C299.665 265.526 299.607 271.36 304.025 275.054C302.09 276.878 300.683 279.23 300.041 281.84L300.04 281.841Z" fill="#C2B0FF"/>
<path fill-rule="evenodd" clip-rule="evenodd" d="M323.626 275.056C328.057 271.357 327.987 265.528 327.985 265.464C327.974 264.96 328.68 264.816 328.867 265.286C332.785 275.142 329.915 279.827 327.617 281.836C326.972 279.228 325.562 276.879 323.627 275.054L323.626 275.056Z" fill="#C2B0FF"/>
<path opacity="0.5" d="M344.416 257.421V256.385C344.398 255.15 343.322 254.164 341.991 254.164C340.659 254.164 339.584 255.15 339.584 256.369V257.404C339.255 257.404 339 257.638 339 257.939V261.63C339 261.93 339.255 262.164 339.584 262.164H344.416C344.745 262.164 345 261.93 345 261.63L345 257.955C344.981 257.654 344.726 257.421 344.416 257.421L344.416 257.421ZM342.242 260.778H341.751C341.59 260.778 341.467 260.645 341.493 260.5L341.608 259.859C341.443 259.746 341.348 259.548 341.376 259.336C341.406 259.103 341.595 258.906 341.843 258.844C342.257 258.741 342.647 259.042 342.647 259.409C342.647 259.592 342.556 259.759 342.41 259.86L342.501 260.509C342.52 260.651 342.399 260.778 342.242 260.778V260.778ZM343.632 257.421H340.349V256.385C340.349 255.567 341.079 254.882 341.991 254.882C342.884 254.882 343.632 255.55 343.632 256.385L343.632 257.421Z" fill="#F9F9FB"/>
<path d="M300.591 310.964H302.911L301.055 322.164H297.999L296.143 310.964H298.463L299.519 318.436L300.591 310.964ZM305.976 322.164H303.656V310.964H305.976V322.164ZM313.521 310.964L311.553 315.764L313.265 322.164H310.897L310.049 318.884H309.569V322.164H307.249V310.964H309.569V315.78L311.553 310.964H313.521ZM316.538 322.164H314.218V310.964H316.538V322.164ZM322.164 310.964H324.484V322.164H322.164V320.212L320.1 315.364V322.164H317.812V310.964H320.02L322.164 316.004V310.964ZM328.469 315.252H331.509V320.212C331.509 320.756 331.317 321.22 330.933 321.604C330.56 321.977 330.101 322.164 329.557 322.164H327.637C327.093 322.164 326.629 321.977 326.245 321.604C325.872 321.22 325.685 320.756 325.685 320.212V312.916C325.685 312.372 325.872 311.913 326.245 311.54C326.629 311.156 327.093 310.964 327.637 310.964H331.221L330.869 312.916H328.005V320.212H329.397V317.204H329.045L328.469 315.252Z" fill="#F9F9FB"/>
<rect opacity="0.05" x="273" y="343" width="82" height="82.6721" rx="13.4426" fill="#F9F9FB"/>
<path d="M322.278 386.74L334.675 392.716L333.521 393.869L323.527 389.082L322.278 386.74Z" fill="#E6DE00"/>
<path d="M301.859 388.914L310.758 390.549C314.768 391.284 318.597 392.784 322.04 394.97C321.451 394.677 320.854 394.398 320.249 394.135H320.247C318.146 393.23 315.957 392.535 313.717 392.061L301.112 389.391C300.362 388.864 299.695 388.232 299.129 387.51C298.7 386.996 298.306 386.452 297.95 385.883L301.573 388.782C301.656 388.849 301.757 388.894 301.859 388.914L301.859 388.914Z" fill="#E6DE00"/>
<path d="M327.306 392.336L328.091 394.758V397.647L324.56 391.02L327.306 392.336Z" fill="#E6DE00"/>
<path d="M329.392 398.001V394.656C329.392 394.588 329.382 394.521 329.36 394.455L328.923 393.111L332.547 394.844L329.392 398.001Z" fill="#E6DE00"/>
<path d="M309.146 370.182L334.766 377.361V378.211L312.456 371.829L312.436 371.824L311.441 371.538C311.22 371.476 310.984 371.533 310.816 371.689C310.651 371.844 310.578 372.078 310.626 372.301L312.102 379.212H312.1C312.143 379.407 312.273 379.573 312.454 379.66L334.766 390.415V391.318L311.288 380.002L309.146 370.182Z" fill="#E6DE00"/>
<path d="M298.747 365.371L301.258 376.63L298.863 375.524L297.09 367.73V367.71C297.06 367.525 296.952 367.362 296.792 367.262L296.772 367.249L293.529 365.393L299.372 362.663C299.628 362.542 299.888 362.424 300.149 362.307L301.305 362.838L298.978 364.724H298.973C298.783 364.879 298.695 365.13 298.747 365.371L298.747 365.371Z" fill="#E6DE00"/>
<path d="M296.157 369.502L297.664 376.126C297.709 376.324 297.842 376.49 298.025 376.575L301.904 378.363V378.366C302.13 378.468 302.393 378.436 302.586 378.28C302.779 378.125 302.867 377.874 302.812 377.631L300.104 365.484L302.927 363.195C303.103 363.052 303.193 362.831 303.166 362.608C303.138 362.385 302.995 362.192 302.792 362.099L301.751 361.62C302.471 361.324 303.198 361.044 303.923 360.785C306.819 359.74 309.146 359 312.739 359C313.04 359 313.349 359.008 313.657 359.023H313.69C319.369 359.023 324.124 360.675 327.851 363.942L324.755 363.797H324.75C324.459 363.782 324.193 363.965 324.103 364.241C324.01 364.519 324.115 364.822 324.356 364.985C325.733 365.961 327.037 367.032 328.258 368.195C330.693 370.447 332.774 373.052 334.434 375.921L308.455 368.636C308.235 368.576 307.999 368.633 307.833 368.789C307.668 368.947 307.595 369.178 307.643 369.401L310.083 380.584C310.125 380.782 310.256 380.948 310.436 381.033L320.293 385.782L325.762 396.046C321.479 392.59 316.403 390.261 310.992 389.267L302.256 387.663L296.554 383.101C296.313 382.49 296.103 381.868 295.925 381.233C295.225 378.753 294.27 374.054 295.732 370.443C295.879 370.082 296.022 369.768 296.155 369.5L296.157 369.502ZM307.667 382.282L314.578 386.299C314.731 386.382 314.924 386.327 315.011 386.174C315.102 386.024 315.052 385.828 314.904 385.735L308.116 381.793L305.026 367.799C305.009 367.716 304.956 367.641 304.884 367.596C304.811 367.548 304.723 367.533 304.64 367.553C304.465 367.591 304.354 367.764 304.392 367.939L307.511 382.075C307.531 382.162 307.587 382.238 307.667 382.283L307.667 382.282ZM305.254 381.768L306.516 381.886L305.641 377.992L304.379 377.874L305.254 381.768Z" fill="#E6DE00"/>
<path d="M329.134 367.226C328.256 366.401 327.454 365.717 326.797 365.188L329.264 365.303L329.279 365.32L329.407 365.458L329.492 365.551L329.615 365.686L329.7 365.782C329.741 365.827 329.778 365.872 329.818 365.917C329.846 365.95 329.873 365.982 329.901 366.015L330.014 366.15C330.041 366.183 330.069 366.216 330.097 366.248L330.207 366.384L330.287 366.481C330.322 366.527 330.36 366.572 330.393 366.617L330.47 366.717C330.505 366.762 330.54 366.807 330.573 366.85L330.651 366.95L330.751 367.086L330.826 367.186L330.924 367.319L330.997 367.419L331.092 367.552L331.162 367.652C331.192 367.695 331.225 367.74 331.255 367.785L331.323 367.886L331.413 368.018C331.436 368.051 331.458 368.084 331.478 368.116C331.508 368.161 331.536 368.204 331.566 368.249C331.589 368.282 331.609 368.314 331.631 368.347L331.717 368.48C331.737 368.512 331.757 368.545 331.782 368.575L331.864 368.711L331.922 368.803L332.005 368.939L332.06 369.032C332.088 369.077 332.115 369.122 332.14 369.167L332.183 369.252L332.261 369.388C332.278 369.418 332.293 369.445 332.311 369.475L332.389 369.611L332.434 369.694C332.459 369.739 332.484 369.784 332.509 369.831L332.552 369.912C332.577 369.957 332.602 370.004 332.627 370.05L332.667 370.125L332.74 370.265L332.775 370.335C332.8 370.383 332.825 370.431 332.847 370.478L332.88 370.544C332.905 370.591 332.93 370.641 332.953 370.689L332.98 370.744C333.005 370.794 333.03 370.844 333.053 370.895L333.073 370.937L333.148 371.095L333.163 371.125C333.191 371.183 333.216 371.238 333.241 371.293L333.246 371.303C333.394 371.624 333.524 371.925 333.642 372.209L333.725 372.412L333.728 372.407C332.358 370.541 330.821 368.808 329.134 367.226Z" fill="#E6DE00"/>
<path d="M312.123 373.088L334.766 379.565V388.97L313.309 378.625L312.123 373.088ZM314.741 377.07C315.27 377.07 315.749 376.751 315.952 376.26C316.155 375.771 316.042 375.207 315.669 374.831C315.292 374.457 314.728 374.344 314.237 374.547C313.748 374.75 313.427 375.229 313.427 375.758C313.429 376.483 314.016 377.07 314.741 377.07Z" fill="#E6DE00"/>
<path d="M314.079 375.758C314.079 376.64 315.403 376.64 315.403 375.758C315.403 374.875 314.079 374.875 314.079 375.758Z" fill="#E6DE00"/>
<path opacity="0.5" d="M344.416 351.421V350.385C344.398 349.15 343.322 348.164 341.991 348.164C340.659 348.164 339.584 349.15 339.584 350.369V351.404C339.255 351.404 339 351.638 339 351.939V355.63C339 355.93 339.255 356.164 339.584 356.164H344.416C344.745 356.164 345 355.93 345 355.63L345 351.955C344.981 351.654 344.726 351.421 344.416 351.421L344.416 351.421ZM342.242 354.778H341.751C341.59 354.778 341.467 354.645 341.493 354.5L341.608 353.859C341.443 353.746 341.348 353.548 341.376 353.336C341.406 353.103 341.595 352.906 341.843 352.844C342.257 352.741 342.647 353.042 342.647 353.409C342.647 353.592 342.556 353.759 342.41 353.86L342.501 354.509C342.52 354.651 342.399 354.778 342.242 354.778V354.778ZM343.632 351.421H340.349V350.385C340.349 349.567 341.079 348.882 341.991 348.882C342.884 348.882 343.632 349.55 343.632 350.385L343.632 351.421Z" fill="#F9F9FB"/>
<path d="M300.091 414.212H303.163L303.307 416.164H299.723C299.179 416.164 298.715 415.977 298.331 415.604C297.958 415.22 297.771 414.756 297.771 414.212V406.916C297.771 406.372 297.958 405.913 298.331 405.54C298.715 405.156 299.179 404.964 299.723 404.964H303.307L302.955 406.916H300.091V414.212ZM307.526 404.964H309.846V410.196C309.846 410.729 309.659 411.183 309.286 411.556C308.913 411.929 308.465 412.121 307.942 412.132V416.164H305.622V412.132C305.089 412.121 304.635 411.929 304.262 411.556C303.899 411.183 303.718 410.729 303.718 410.196V404.964H306.038V410.196H307.526V404.964ZM316.916 408.996C316.831 409.22 316.687 409.407 316.484 409.556C316.292 409.695 316.074 409.764 315.828 409.764C316.116 409.764 316.367 409.855 316.58 410.036C316.794 410.217 316.922 410.447 316.964 410.724L316.98 414.212C316.98 414.756 316.794 415.215 316.42 415.588C316.239 415.769 316.031 415.908 315.796 416.004C315.551 416.111 315.3 416.164 315.044 416.164H310.788V404.964H315.044C315.578 404.964 316.031 405.156 316.404 405.54C316.788 405.913 316.98 406.372 316.98 406.916V408.596C316.98 408.735 316.959 408.868 316.916 408.996ZM313.108 414.212H314.66V410.724H313.108V414.212ZM313.108 408.996H314.66V406.916H313.108V408.996ZM320.515 410.66V414.212H323.571L322.627 416.164H318.179V404.964H322.643L323.571 406.916H320.515V408.932H322.259L323.091 410.66H320.515ZM330.382 416.164H328.35L327.582 412.116H326.718V416.164H324.398V404.98H328.318C328.851 404.98 329.31 405.172 329.694 405.556C330.078 405.929 330.27 406.388 330.27 406.932V410.308C330.27 410.905 330.024 411.385 329.534 411.748L330.382 416.164ZM326.718 406.916V410.18H327.95V406.916H326.718Z" fill="#F9F9FB"/>
<rect opacity="0.05" x="180" y="155" width="82" height="82.6721" rx="13.4426" fill="#F9F9FB"/>
<path opacity="0.5" d="M251.416 163.421V162.385C251.398 161.15 250.322 160.164 248.991 160.164C247.659 160.164 246.584 161.15 246.584 162.369V163.404C246.255 163.404 246 163.638 246 163.939V167.63C246 167.93 246.255 168.164 246.584 168.164H251.416C251.745 168.164 252 167.93 252 167.63L252 163.955C251.981 163.654 251.726 163.421 251.416 163.421L251.416 163.421ZM249.242 166.778H248.751C248.59 166.778 248.467 166.645 248.493 166.5L248.608 165.859C248.443 165.746 248.348 165.548 248.376 165.336C248.406 165.103 248.595 164.906 248.843 164.844C249.257 164.741 249.647 165.042 249.647 165.409C249.647 165.592 249.556 165.759 249.41 165.86L249.501 166.509C249.52 166.651 249.399 166.778 249.242 166.778V166.778ZM250.632 163.421H247.349V162.385C247.349 161.567 248.079 160.882 248.991 160.882C249.884 160.882 250.632 161.55 250.632 162.385L250.632 163.421Z" fill="#F9F9FB"/>
<path d="M210.051 216.964H212.371V228.164H210.051V221.732L208.595 223.78L207.155 221.732V228.164H204.835V216.964H207.155V218.18L208.595 220.228L210.051 218.18V216.964ZM215.968 228.164H213.648V216.964H215.968V228.164ZM221.594 216.964H223.914V228.164H221.594V226.212L219.53 221.364V228.164H217.242V216.964H219.45L221.594 222.004V216.964ZM227.531 222.66V226.212H230.587L229.643 228.164H225.195V216.964H229.659L230.587 218.916H227.531V220.932H229.275L230.107 222.66H227.531ZM237.397 228.164H235.365L234.597 224.116H233.733V228.164H231.413V216.98H235.333C235.867 216.98 236.325 217.172 236.709 217.556C237.093 217.929 237.285 218.388 237.285 218.932V222.308C237.285 222.905 237.04 223.385 236.549 223.748L237.397 228.164ZM233.733 218.916V222.18H234.965V218.916H233.733Z" fill="#F9F9FB"/>
<path fill-rule="evenodd" clip-rule="evenodd" d="M214.595 206.404C210.338 204.259 207.436 200.124 206.866 195.392H204.721C205.321 201.087 208.849 206.059 214.03 208.5V208.352C213.971 207.655 214.174 206.96 214.6 206.404L214.595 206.404ZM221.007 178.844C222.861 178.844 224.641 179.581 225.953 180.893C227.264 182.205 228 183.983 228 185.839C228 187.694 227.264 189.474 225.953 190.784C224.641 192.096 222.861 192.833 221.007 192.833C219.152 192.833 217.372 192.096 216.06 190.784C214.75 189.474 214.013 187.694 214.013 185.839C214.013 183.983 214.75 182.205 216.06 180.893C217.373 179.581 219.152 178.844 221.007 178.844ZM221.007 181.246V181.247C218.818 181.253 216.939 182.805 216.517 184.953C216.096 187.1 217.252 189.246 219.275 190.077C221.3 190.909 223.629 190.195 224.841 188.374C226.052 186.55 225.807 184.126 224.255 182.582C223.391 181.725 222.223 181.244 221.007 181.247L221.007 181.246ZM223.53 183.314V183.316C222.331 182.113 220.45 181.923 219.037 182.862C217.622 183.802 217.068 185.61 217.714 187.18C218.359 188.751 220.024 189.648 221.689 189.321C223.356 188.994 224.561 187.538 224.566 185.839C224.566 184.892 224.19 183.985 223.519 183.316L223.53 183.314ZM226.965 208.231V208.233C226.991 208.706 226.824 209.168 226.504 209.516C226.183 209.863 225.734 210.065 225.26 210.075H216.754C215.794 209.993 215.059 209.192 215.059 208.231C215.059 207.27 215.794 206.469 216.754 206.387H225.26C225.734 206.397 226.184 206.599 226.506 206.948C226.826 207.296 226.993 207.76 226.965 208.233V208.231ZM218.546 171C217.522 171 216.691 171.831 216.691 172.856V179.086C217.979 178.26 219.477 177.822 221.007 177.822C222.536 177.822 224.034 178.26 225.322 179.086V172.856C225.322 171.831 224.492 171 223.468 171H218.546ZM201.394 190.084C201.161 190.084 200.937 190.178 200.777 190.347C200.616 190.515 200.529 190.741 200.539 190.974V193.533C200.541 194.004 200.923 194.384 201.394 194.388H240.62C240.85 194.386 241.07 194.292 241.23 194.129C241.39 193.965 241.479 193.745 241.475 193.515V190.974C241.486 190.741 241.399 190.515 241.237 190.347C241.077 190.178 240.853 190.084 240.62 190.084H227.799C226.333 192.424 223.768 193.845 221.008 193.845C218.248 193.845 215.682 192.424 214.217 190.084L201.394 190.084ZM235.148 195.392C234.578 200.125 231.675 204.26 227.419 206.405C227.843 206.961 228.046 207.656 227.989 208.353V208.501C233.166 206.057 236.694 201.088 237.293 195.392L235.148 195.392ZM226.346 173.048V179.85C227.612 180.978 228.486 182.478 228.844 184.135C229.202 185.793 229.026 187.521 228.34 189.069H234.569V187.543C234.571 186.507 235.41 185.668 236.446 185.666H238.329C237.355 181.895 235.179 178.545 232.13 176.122L230.693 182.569C230.632 182.844 230.363 183.017 230.088 182.957C229.814 182.896 229.642 182.625 229.701 182.352L231.241 175.45C229.742 174.404 228.091 173.594 226.346 173.048L226.346 173.048ZM213.674 189.066C212.989 187.515 212.814 185.789 213.172 184.133C213.53 182.478 214.404 180.978 215.668 179.85V173.048C213.923 173.593 212.271 174.403 210.773 175.45L212.305 182.351C212.364 182.624 212.192 182.895 211.917 182.956C211.642 183.017 211.371 182.843 211.312 182.569L209.883 176.122C206.835 178.543 204.662 181.895 203.694 185.666H205.577C206.612 185.668 207.452 186.507 207.454 187.543V189.078L213.674 189.066ZM239.264 189.066H235.584V187.543C235.586 187.072 235.967 186.691 236.438 186.69H238.409C238.875 186.698 239.248 187.077 239.25 187.543V189.078L239.264 189.066ZM206.432 189.066H202.764V187.543C202.766 187.072 203.148 186.691 203.619 186.69H205.59C206.06 186.691 206.442 187.072 206.444 187.543L206.432 189.066Z" fill="#99FDFD"/>
<rect opacity="0.05" x="180" y="249" width="82" height="82.6721" rx="13.4426" fill="#F9F9FB"/>
<path d="M232.706 274.313L229.029 272.493C227.84 271.987 226.484 271.753 225.343 271.519C221.198 270.669 215.897 271.037 212.955 274.217C212.993 274.184 212.922 274.255 212.955 274.217C210.319 276.667 209.388 280.659 208.848 284.757C208.729 285.673 208.165 286.289 208.051 286.7C207.449 288.94 207.774 290.492 208.858 293.644C209.187 294.608 209.531 295.587 209.713 296.59C209.894 297.593 210.009 298.323 209.402 299.145C209.608 297.779 209.23 296.805 208.562 295.282C208.003 294.016 207.196 293.118 206.561 291.896C204.765 288.453 203.624 284.365 204.006 280.502C204.331 277.231 205.291 273.94 207.339 271.366C209.46 268.702 212.602 267.002 215.868 266.027C223.399 263.783 231.947 265.273 238.27 269.939C238.012 269.752 235.858 271.448 235.619 271.619C234.483 272.436 233.681 273.3 232.716 274.313" fill="#FF946B"/>
<path d="M221.756 290.564C221.594 290.54 221.326 290.502 221.174 290.44C221.174 290.44 220.801 290.268 220.476 289.527C219.879 288.171 219.894 285.549 221.904 285.698C222.434 285.736 222.921 285.908 223.16 286.385C223.432 286.925 223.332 287.522 223.093 288.047C223.06 288.124 222.773 288.797 222.745 288.792C224.02 288.558 225.304 288.463 226.579 288.233C228.255 287.928 229.96 287.613 231.464 286.777C232.716 286.084 233.819 285.64 235.089 284.977L234.267 289.542L234.353 289.962C234.115 290 233.876 290.039 233.637 290.077C233.026 290.172 232.415 290.263 231.799 290.349C230.968 290.463 230.132 290.568 229.296 290.664C228.399 290.764 227.496 290.85 226.593 290.908C225.782 290.96 224.965 290.994 224.148 290.965C223.833 290.956 223.518 290.927 223.208 290.893" fill="#FF946B"/>
<path d="M233.69 284.045C233.69 284.045 231.255 286.499 224.817 287.502C224.817 287.502 225.262 284.866 222.578 284.336C219.732 283.778 217.602 286.848 219.717 290.745C219.717 290.745 218.585 290.2 217.993 296.857C217.993 296.857 218.829 297.793 212.325 297.201C212.325 297.201 215.873 294.541 215.185 293.357C215.185 293.357 215.243 293.004 214.803 292.55C214.364 292.096 211.317 288.362 212.669 285.052C214.02 281.748 215.252 276.719 222.291 276.519C229.33 276.318 232.649 282.12 233.69 284.04L233.69 284.045Z" fill="#FF946B"/>
<path d="M230.39 296.949C230.429 297.001 230.414 297.121 230.414 297.183C230.419 297.288 230.424 297.393 230.429 297.498C230.438 297.699 230.443 297.899 230.448 298.1C230.457 298.754 230.443 299.413 230.395 300.067C230.338 300.851 230.233 301.634 230.061 302.398C229.965 302.808 229.851 303.214 229.708 303.606C229.708 303.606 228.323 304.642 226.245 303.358C224.168 302.073 223.418 299.633 223.418 299.633L223.972 294.504L227.53 294.556C227.53 294.556 227.635 294.709 227.649 294.724C227.764 294.876 227.888 295.024 228.017 295.168C228.471 295.664 228.996 296.099 229.564 296.462C229.808 296.619 230.061 296.758 230.319 296.892C230.343 296.906 230.371 296.92 230.386 296.944L230.39 296.949Z" fill="#FF946B"/>
<path d="M227.21 292.277L227.219 293.352L224.101 293.309L224.159 292.282L227.21 292.277Z" fill="#FF946B"/>
<path d="M227.219 293.352C227.219 293.352 227.219 293.934 227.539 294.564C227.859 295.195 223.939 294.674 223.939 294.674L224.101 293.309" fill="#FF946B"/>
<path d="M233.022 276.18L231.508 278.138C231.508 278.138 227.922 274.933 223.447 274.618C222.291 274.537 220.906 274.613 219.684 274.986C216.274 276.022 213.337 277.469 211.246 285.931L210.133 285.53C210.133 285.53 210.114 275 218.504 273.281C221.819 272.603 226.68 272.493 233.022 276.175L233.022 276.18Z" fill="#FF946B"/>
<path opacity="0.5" d="M251.416 257.421V256.385C251.398 255.15 250.322 254.164 248.991 254.164C247.659 254.164 246.584 255.15 246.584 256.369V257.404C246.255 257.404 246 257.638 246 257.939V261.63C246 261.93 246.255 262.164 246.584 262.164H251.416C251.745 262.164 252 261.93 252 261.63L252 257.955C251.981 257.654 251.726 257.421 251.416 257.421L251.416 257.421ZM249.242 260.778H248.751C248.59 260.778 248.467 260.645 248.493 260.5L248.608 259.859C248.443 259.746 248.348 259.548 248.376 259.336C248.406 259.103 248.595 258.906 248.843 258.844C249.257 258.741 249.647 259.042 249.647 259.409C249.647 259.592 249.556 259.759 249.41 259.86L249.501 260.509C249.52 260.651 249.399 260.778 249.242 260.778V260.778ZM250.632 257.421H247.349V256.385C247.349 255.567 248.079 254.882 248.991 254.882C249.884 254.882 250.632 255.55 250.632 256.385L250.632 257.421Z" fill="#F9F9FB"/>
<path d="M207.032 310.964L207.528 312.916H205.544V322.164H205.304H203.464H203.224V312.916H201.736L201.224 310.964H207.032ZM214.069 322.164H212.037L211.269 318.116H210.405V322.164H208.085V310.98H212.005C212.539 310.98 212.997 311.172 213.381 311.556C213.765 311.929 213.957 312.388 213.957 312.932V316.308C213.957 316.905 213.712 317.385 213.221 317.748L214.069 322.164ZM210.405 312.916V316.18H211.637V312.916H210.405ZM219.277 310.964C219.81 310.964 220.263 311.156 220.637 311.54C221.021 311.913 221.213 312.372 221.213 312.916V320.212C221.213 320.756 221.021 321.22 220.637 321.604C220.263 321.977 219.81 322.164 219.277 322.164H216.989C216.445 322.164 215.981 321.977 215.597 321.604C215.223 321.22 215.037 320.756 215.037 320.212V312.916C215.037 312.372 215.223 311.913 215.597 311.54C215.981 311.156 216.445 310.964 216.989 310.964H219.277ZM218.893 320.212V312.916H217.357V320.212H218.893ZM224.253 310.964H226.573V320.212C226.573 320.756 226.381 321.22 225.997 321.604C225.624 321.977 225.165 322.164 224.621 322.164H222.621L221.645 320.212H224.253V310.964ZM231.964 310.964L233.404 319.716L233.388 322.164H231.5L231.292 320.756H229.564L229.372 322.164H227.468L227.452 319.716L228.892 310.964H231.964ZM229.868 318.692H231.004L230.428 314.692L229.868 318.692ZM238.703 310.964H241.023V322.164H238.703V320.212L236.639 315.364V322.164H234.351V310.964H236.559L238.703 316.004V310.964Z" fill="#F9F9FB"/>
<rect opacity="0.05" x="179" y="342" width="84" height="84.6721" rx="14.4426" fill="#F9F9FB" stroke="#1AE1B7" stroke-width="2"/>
<path d="M217.118 365.176C216.991 364.992 216.95 364.764 217.006 364.547C217.063 364.328 217.212 364.145 217.416 364.046L219.37 363.095C219.496 363.034 219.639 363.008 219.775 363.021L221.901 363.209C222.12 363.228 222.313 363.335 222.446 363.508C222.566 363.665 222.617 363.855 222.598 364.049C222.58 364.049 222.563 364.048 222.545 364.048C220.617 364.048 218.782 364.452 217.118 365.176L217.118 365.176Z" fill="#AEAEAE"/>
<path d="M234.672 378.52L233.757 378.914L235.369 382.665C234.509 382.962 233.507 383.237 232.381 383.432L231.017 379.905L230.088 380.264L231.37 383.58C230.434 383.692 229.427 383.743 228.355 383.705L227.159 380.659L226.231 381.024L227.256 383.633C225.93 383.513 224.518 383.25 223.035 382.799C223.037 382.749 223.043 382.699 223.043 382.648C223.043 381.664 222.717 380.757 222.172 380.021C224.758 379.864 231.283 379.149 236.241 375.904L238.523 381.213C238.121 381.459 237.361 381.884 236.303 382.314L234.672 378.52Z" fill="#AEAEAE"/>
<path d="M222.887 383.795C224.431 384.254 225.897 384.523 227.272 384.647L226.239 387.013L227.152 387.412L228.328 384.718C228.602 384.728 228.872 384.734 229.137 384.734C229.888 384.734 230.605 384.692 231.287 384.619L229.845 388.25L230.771 388.618L232.42 384.466C233.46 384.295 234.397 384.055 235.228 383.789L233.353 389.198L234.295 389.525L236.43 383.362C237.126 383.087 237.715 382.808 238.179 382.562L235.139 390.669C233.325 390.643 224.69 390.314 220.891 386.44C221.86 385.855 222.586 384.913 222.887 383.795L222.887 383.795Z" fill="#AEAEAE"/>
<path d="M205.736 371.006C206.301 371.006 206.771 370.891 207.143 370.744C208.583 370.173 209.68 368.728 210.234 366.675C211.021 363.762 211.641 362.807 211.647 362.798L210.823 362.238C210.794 362.28 210.115 363.294 209.272 366.416C208.833 368.043 207.99 369.234 206.946 369.733C207.911 368.924 208.449 367.504 208.542 365.495C208.643 363.304 209.631 361.374 211.253 360.199C211.305 360.161 211.358 360.124 211.412 360.087C213.697 358.541 216.352 358.927 218.175 359.523C219.316 359.895 220.62 360.565 220.862 361.328C220.939 361.571 220.897 361.828 220.742 362.106L219.864 362.028C219.666 362.011 219.468 362.031 219.277 362.079C218.461 361.363 215.673 359.388 211.663 361.567L212.139 362.442C215.18 360.79 217.325 361.841 218.26 362.527L217.152 363.067C216.641 362.938 215.286 362.715 213.916 363.477C212.508 364.259 211.535 365.82 211.025 368.114L211.997 368.33C212.444 366.326 213.252 364.986 214.4 364.347C215.047 363.988 215.692 363.914 216.183 363.932C216.123 364.048 216.075 364.17 216.042 364.299C215.928 364.744 216 365.208 216.224 365.605C213.324 367.127 211.035 369.659 209.83 372.734C206.343 373.427 204.712 371.857 204 370.668C204.65 370.913 205.23 371.006 205.736 371.006L205.736 371.006Z" fill="#AEAEAE"/>
<path d="M218.614 383.619C218.078 383.619 217.641 383.183 217.641 382.647C217.641 382.11 218.078 381.674 218.614 381.674C219.15 381.674 219.587 382.11 219.587 382.647C219.587 383.183 219.15 383.619 218.614 383.619Z" fill="#AEAEAE"/>
<path d="M218.614 386.08C216.721 386.08 215.181 384.54 215.181 382.647C215.181 380.755 216.721 379.215 218.614 379.215C220.507 379.215 222.046 380.755 222.046 382.647C222.046 384.54 220.506 386.08 218.614 386.08ZM218.614 380.678C217.528 380.678 216.645 381.561 216.645 382.647C216.645 383.733 217.528 384.616 218.614 384.616C219.7 384.616 220.583 383.733 220.583 382.647C220.583 381.561 219.7 380.678 218.614 380.678Z" fill="#AEAEAE"/>
<path d="M209.884 377.706C209.884 370.725 215.563 365.045 222.545 365.045C228.656 365.045 233.948 369.518 235.003 375.499C229.558 378.696 222.353 379.033 221.209 379.066C220.479 378.536 219.584 378.219 218.614 378.219C216.172 378.219 214.185 380.206 214.185 382.648C214.185 385.09 216.172 387.077 218.614 387.077C219.075 387.077 219.519 387.006 219.936 386.875C222.036 389.211 225.571 390.411 228.746 391.025L229.067 397.396C229.074 397.544 229.024 397.686 228.925 397.795C228.826 397.903 228.692 397.967 228.546 397.973C226.198 398.083 220.359 398.006 216.816 394.943C214.175 392.659 211.899 392.104 210.455 392.041C210.179 392.029 210.05 391.835 210.007 391.752C209.914 391.573 209.924 391.364 210.033 391.194L213.012 386.582C213.132 386.396 213.115 386.153 212.97 385.986C210.98 383.686 209.884 380.746 209.884 377.706L209.884 377.706ZM211.744 377.227H212.74C212.74 376.791 212.771 376.352 212.834 375.923L211.847 375.781C211.778 376.257 211.744 376.743 211.744 377.227ZM213.091 374.722C213.898 371.917 216.024 369.663 218.779 368.693L218.448 367.753C215.39 368.83 213.029 371.333 212.134 374.446L213.091 374.722Z" fill="#AEAEAE"/>
<path opacity="0.5" d="M251.416 351.421V350.385C251.398 349.15 250.322 348.164 248.991 348.164C247.659 348.164 246.584 349.15 246.584 350.369V351.404C246.255 351.404 246 351.638 246 351.939V355.63C246 355.93 246.255 356.164 246.584 356.164H251.416C251.745 356.164 252 355.93 252 355.63L252 351.955C251.981 351.654 251.726 351.421 251.416 351.421L251.416 351.421ZM249.242 354.778H248.751C248.59 354.778 248.467 354.645 248.493 354.5L248.608 353.859C248.443 353.746 248.348 353.548 248.376 353.336C248.406 353.103 248.595 352.906 248.843 352.844C249.257 352.741 249.647 353.042 249.647 353.409C249.647 353.592 249.556 353.759 249.41 353.86L249.501 354.509C249.52 354.651 249.399 354.778 249.242 354.778V354.778ZM250.632 351.421H247.349V350.385C247.349 349.567 248.079 348.882 248.991 348.882C249.884 348.882 250.632 349.55 250.632 350.385L250.632 351.421Z" fill="#F9F9FB"/>
<path d="M208.279 404.964L206.311 409.764L208.023 416.164H205.655L204.807 412.884H204.327V416.164H202.007V404.964H204.327V409.78L206.311 404.964H208.279ZM213.328 404.964H215.648V416.164H213.328V414.212L211.264 409.364V416.164H208.976V404.964H211.184L213.328 410.004V404.964ZM219.249 416.164H216.929V404.964H219.249V416.164ZM223.227 409.252H226.267V414.212C226.267 414.756 226.075 415.22 225.691 415.604C225.317 415.977 224.859 416.164 224.315 416.164H222.395C221.851 416.164 221.387 415.977 221.003 415.604C220.629 415.22 220.443 414.756 220.443 414.212V406.916C220.443 406.372 220.629 405.913 221.003 405.54C221.387 405.156 221.851 404.964 222.395 404.964H225.979L225.627 406.916H222.763V414.212H224.155V411.204H223.803L223.227 409.252ZM231.559 404.964H233.879V416.164H231.559V411.46H229.687V416.164H227.367V404.964H229.687V409.38H231.559V404.964ZM240.219 404.964L240.715 406.916H238.731V416.164H238.491H236.651H236.411V406.916H234.923L234.411 404.964H240.219Z" fill="#F9F9FB"/>
<g filter="url(#filter2_d_490_4762)">
<path d="M36.3398 3C37.0065 3 37.5732 3.24 38.0398 3.72C38.5198 4.18667 38.7598 4.76 38.7598 5.44V14.56C38.7598 15.24 38.5198 15.82 38.0398 16.3C37.5732 16.7667 37.0065 17 36.3398 17H33.4798C32.7998 17 32.2198 16.7667 31.7398 16.3C31.2732 15.82 31.0398 15.24 31.0398 14.56V5.44C31.0398 4.76 31.2732 4.18667 31.7398 3.72C32.2198 3.24 32.7998 3 33.4798 3H36.3398ZM35.8598 14.56V5.44H33.9398V14.56H35.8598ZM47.7205 6.94C47.7205 8.26 47.2205 9.35333 46.2205 10.22C47.2205 11.1 47.7205 12.2 47.7205 13.52V17H44.7805V11.52H43.0405V17H40.1405V13.52C40.1405 12.2 40.6405 11.1 41.6405 10.22C40.6405 9.35333 40.1405 8.26 40.1405 6.94V3H43.0405V8.98H44.7805V3H47.7205V6.94ZM56.5267 5.46V11.4C56.5267 12.0267 56.3001 12.5667 55.8467 13.02C55.4067 13.46 54.8734 13.68 54.2467 13.68H52.0867V17H49.1867V3.02H54.0867C54.7534 3.02 55.3267 3.26 55.8067 3.74C56.2867 4.20667 56.5267 4.78 56.5267 5.46ZM53.6267 11.24V5.44H52.0867V11.24H53.6267Z" fill="#F9F9FB"/>
</g>
<g filter="url(#filter3_d_490_4762)">
<path d="M336 10.18H334V14.62H338.04V17.06H331.1V9.84L333.38 7.68H335.42V5.48H332.32V3.06H336C336.64 3.06 337.187 3.28667 337.64 3.74C338.094 4.19333 338.32 4.73333 338.32 5.36V7.86C338.32 8.5 338.094 9.04667 337.64 9.5C337.187 9.95333 336.64 10.18 336 10.18ZM344.556 3.06L346.856 5.94V14.76C346.856 15.3867 346.63 15.9267 346.176 16.38C345.736 16.8333 345.196 17.06 344.556 17.06H341.976C341.336 17.06 340.79 16.84 340.336 16.4C339.896 15.9467 339.676 15.4 339.676 14.76V5.5C339.676 4.82 339.91 4.24667 340.376 3.78C340.856 3.3 341.436 3.06 342.116 3.06H342.576H344.556ZM343.996 14.62V5.5H342.576V14.62H343.996ZM353.287 3.06L355.587 5.94V14.76C355.587 15.3867 355.36 15.9267 354.907 16.38C354.467 16.8333 353.927 17.06 353.287 17.06H350.707C350.067 17.06 349.52 16.84 349.067 16.4C348.627 15.9467 348.407 15.4 348.407 14.76V5.5C348.407 4.82 348.64 4.24667 349.107 3.78C349.587 3.3 350.167 3.06 350.847 3.06H351.307H353.287ZM352.727 14.62V5.5H351.307V14.62H352.727ZM362.017 3.06L364.317 5.94V14.76C364.317 15.3867 364.091 15.9267 363.637 16.38C363.197 16.8333 362.657 17.06 362.017 17.06H359.437C358.797 17.06 358.251 16.84 357.797 16.4C357.357 15.9467 357.137 15.4 357.137 14.76V5.5C357.137 4.82 357.371 4.24667 357.837 3.78C358.317 3.3 358.897 3.06 359.577 3.06H360.037H362.017ZM361.457 14.62V5.5H360.037V14.62H361.457ZM370.032 10.964C370.032 11.756 369.732 12.412 369.132 12.932C369.732 13.46 370.032 14.12 370.032 14.912V17H368.268V13.712H367.224V17H365.484V14.912C365.484 14.12 365.784 13.46 366.384 12.932C365.784 12.412 365.484 11.756 365.484 10.964V8.6H367.224V12.188H368.268V8.6H370.032V10.964ZM375.316 10.076V13.64C375.316 14.016 375.18 14.34 374.908 14.612C374.644 14.876 374.324 15.008 373.948 15.008H372.652V17H370.912V8.612H373.852C374.252 8.612 374.596 8.756 374.884 9.044C375.172 9.324 375.316 9.668 375.316 10.076ZM373.576 13.544V10.064H372.652V13.544H373.576Z" fill="#F9F9FB"/>
</g>
<rect opacity="0.5" x="65" y="2" width="260" height="18" rx="9" fill="#F9F9FB"/>
</g>
<defs>
<filter id="filter0_d_490_4762" x="24" y="325" width="133" height="41" filterUnits="userSpaceOnUse" color-interpolation-filters="sRGB">
<feFlood flood-opacity="0" result="BackgroundImageFix"/>
<feColorMatrix in="SourceAlpha" type="matrix" values="0 0 0 0 0 0 0 0 0 0 0 0 0 0 0 0 0 0 127 0" result="hardAlpha"/>
<feOffset dy="4"/>
<feGaussianBlur stdDeviation="2"/>
<feComposite in2="hardAlpha" operator="out"/>
<feColorMatrix type="matrix" values="0 0 0 0 0 0 0 0 0 0 0 0 0 0 0 0 0 0 0.25 0"/>
<feBlend mode="normal" in2="BackgroundImageFix" result="effect1_dropShadow_490_4762"/>
<feBlend mode="normal" in="SourceGraphic" in2="effect1_dropShadow_490_4762" result="shape"/>
</filter>
<filter id="filter1_d_490_4762" x="85.2175" y="333.217" width="16.1652" height="16.1647" filterUnits="userSpaceOnUse" color-interpolation-filters="sRGB">
<feFlood flood-opacity="0" result="BackgroundImageFix"/>
<feColorMatrix in="SourceAlpha" type="matrix" values="0 0 0 0 0 0 0 0 0 0 0 0 0 0 0 0 0 0 127 0" result="hardAlpha"/>
<feOffset/>
<feGaussianBlur stdDeviation="2.39127"/>
<feComposite in2="hardAlpha" operator="out"/>
<feColorMatrix type="matrix" values="0 0 0 0 0.847226 0 0 0 0 0.821809 0 0 0 0 0 0 0 0 0.5 0"/>
<feBlend mode="normal" in2="BackgroundImageFix" result="effect1_dropShadow_490_4762"/>
<feBlend mode="normal" in="SourceGraphic" in2="effect1_dropShadow_490_4762" result="shape"/>
</filter>
<filter id="filter2_d_490_4762" x="28.0496" y="0.00977468" width="31.4673" height="19.9805" filterUnits="userSpaceOnUse" color-interpolation-filters="sRGB">
<feFlood flood-opacity="0" result="BackgroundImageFix"/>
<feColorMatrix in="SourceAlpha" type="matrix" values="0 0 0 0 0 0 0 0 0 0 0 0 0 0 0 0 0 0 127 0" result="hardAlpha"/>
<feOffset/>
<feGaussianBlur stdDeviation="1.49511"/>
<feComposite in2="hardAlpha" operator="out"/>
<feColorMatrix type="matrix" values="0 0 0 0 1 0 0 0 0 1 0 0 0 0 1 0 0 0 0.5 0"/>
<feBlend mode="normal" in2="BackgroundImageFix" result="effect1_dropShadow_490_4762"/>
<feBlend mode="normal" in="SourceGraphic" in2="effect1_dropShadow_490_4762" result="shape"/>
</filter>
<filter id="filter3_d_490_4762" x="328.11" y="0.0703216" width="50.1958" height="19.9805" filterUnits="userSpaceOnUse" color-interpolation-filters="sRGB">
<feFlood flood-opacity="0" result="BackgroundImageFix"/>
<feColorMatrix in="SourceAlpha" type="matrix" values="0 0 0 0 0 0 0 0 0 0 0 0 0 0 0 0 0 0 127 0" result="hardAlpha"/>
<feOffset/>
<feGaussianBlur stdDeviation="1.49511"/>
<feComposite in2="hardAlpha" operator="out"/>
<feColorMatrix type="matrix" values="0 0 0 0 1 0 0 0 0 1 0 0 0 0 1 0 0 0 0.5 0"/>
<feBlend mode="normal" in2="BackgroundImageFix" result="effect1_dropShadow_490_4762"/>
<feBlend mode="normal" in="SourceGraphic" in2="effect1_dropShadow_490_4762" result="shape"/>
</filter>
<linearGradient id="paint0_linear_490_4762" x1="93.3001" y1="338.604" x2="93.3001" y2="343.996" gradientUnits="userSpaceOnUse">
<stop stop-color="#EAE205"/>
<stop offset="1" stop-color="#FED45F"/>
</linearGradient>
<linearGradient id="paint1_linear_490_4762" x1="93.2997" y1="339.488" x2="93.2997" y2="343.11" gradientUnits="userSpaceOnUse">
<stop stop-color="#EAE205"/>
<stop offset="1" stop-color="#FED45F"/>
</linearGradient>
<linearGradient id="paint2_linear_490_4762" x1="93.3001" y1="339.369" x2="93.3001" y2="343.233" gradientUnits="userSpaceOnUse">
<stop stop-color="#EAE205"/>
<stop offset="1" stop-color="#FED45F"/>
</linearGradient>
<linearGradient id="paint3_linear_490_4762" x1="93.3" y1="338" x2="93.3" y2="344.6" gradientUnits="userSpaceOnUse">
<stop stop-color="#EAE205"/>
<stop offset="1" stop-color="#FED45F"/>
</linearGradient>
</defs>
</svg>
